<svg xmlns="http://www.w3.org/2000/svg" xmlns:xlink="http://www.w3.org/1999/xlink" xmlns:serif="http://www.serif.com/">
    <defs>
        <path id="4f30a" d="M364.77 496.42v-130.8h104.64v130.8z"/>
        <path id="4f30b" d="M351.46 521.64v-35.03h91.34v35.03z"/>
        <path id="4f30c"
              d="M447.922 345.72H344.27c-19.958 0-36.138 16.174-36.138 36.132V485.5c0 19.962 16.18 36.135 36.138 36.135h59.248v-69.97h-24.04v-27.086h24.04v-19.13h.004c.102-18.33 6.74-24.59 6.74-24.59 9.75-12.669 25.039-12.29 25.039-12.29H459.622v25.507h-16.23c-11.138-.192-12.09 9.235-12.157 11.372h.007v19.131h27.175l-3.324 27.085h-23.851v69.971h16.68c19.956 0 36.133-16.173 36.133-36.135V381.852c0-19.958-16.177-36.133-36.133-36.133z"/>
        <path id="bnfca"
              d="M445.688 567.072H351.99c-18.043 0-32.67 14.632-32.67 32.671v93.702c0 18.046 14.627 32.665 32.67 32.665h93.7c18.045 0 32.665-14.619 32.665-32.665v-93.702c0-18.039-14.62-32.67-32.666-32.67z"/>
        <path id="bnfcb"
              d="M450.662 558.632c19.96 0 36.133 16.184 36.133 36.138v103.65c0 19.96-16.172 36.132-36.133 36.132H347.017c-19.958 0-36.14-16.172-36.14-36.133V594.77c0-19.954 16.182-36.138 36.14-36.138zm-96.4 57.59c7.77 0 14.089-6.307 14.089-14.089 0-7.788-6.318-14.11-14.09-14.11-7.794 0-14.094 6.322-14.094 14.11 0 7.782 6.3 14.09 14.095 14.09zm12.158 88.938v-78.24H342.1v78.24zm91.095-42.914c0-21.063-4.547-37.262-29.175-37.262-11.828 0-19.762 6.48-23.006 12.636H405v-10.704h-23.33v78.244h24.31v-38.699c0-10.205 1.932-20.102 14.584-20.102 12.485 0 12.64 11.68 12.64 20.752v38.05h24.31z"/>
        <radialGradient cx="0" cy="0" gradientTransform="matrix(27.933,0,0,27.933,2,21.5)"
                        gradientUnits="userSpaceOnUse" id="_Radial1" r="1">
            <stop offset="0" style="stop-color:#ff8100;stop-opacity:1"/>
            <stop offset="0.19" style="stop-color:#ff7209;stop-opacity:1"/>
            <stop offset="0.32" style="stop-color:#f55e16;stop-opacity:1"/>
            <stop offset="0.48" style="stop-color:#d92938;stop-opacity:1"/>
            <stop offset="1" style="stop-color:#9100ff;stop-opacity:1"/>
        </radialGradient>
        <path id="dopva"
              d="M561.243 525.908h103.65c19.95 0 36.133-16.183 36.133-36.14v-103.65c0-19.958-16.184-36.132-36.133-36.132h-103.65c-19.96 0-36.138 16.174-36.138 36.132v103.65c0 19.957 16.178 36.14 36.138 36.14z"/>
        <path id="dopvb"
              d="M572.326 422.072c32.598 0 59.121 26.628 59.121 59.362H614.21c0-11.269-4.362-21.855-12.279-29.804-7.903-7.948-18.418-12.319-29.605-12.319zm.026-30.56c49.375 0 89.547 40.344 89.547 89.944H644.66c0-40.09-32.438-72.704-72.308-72.704zm11.9 89.841c-6.594 0-11.94-5.347-11.94-11.94 0-6.598 5.346-11.94 11.94-11.94 6.592 0 11.94 5.342 11.94 11.94 0 6.593-5.348 11.94-11.94 11.94z"/>
        <path id="xa4xa" d="M542.46 703.48V577.56h143.66v125.92z"/>
        <path id="xa4xb"
              d="M668.152 557.258H564.514c-19.96 0-36.143 16.183-36.143 36.145V697.05c0 19.947 16.182 36.133 36.143 36.133h103.638c19.961 0 36.144-16.186 36.144-36.133V593.403c0-19.962-16.183-36.145-36.144-36.145zm-4.417 65.754c.054 1.007.07 2.022.07 3.04 0 31.106-23.676 66.985-66.98 66.985-13.297 0-25.668-3.898-36.084-10.583 1.848.219 3.718.329 5.612.329 11.031 0 21.184-3.76 29.238-10.077-10.294-.191-18.985-6.995-21.987-16.36 1.435.278 2.907.436 4.427.436 2.144 0 4.231-.296 6.195-.832-10.76-2.155-18.879-11.67-18.879-23.078 0-.101 0-.195.006-.301a23.36 23.36 0 0 0 10.665 2.949c-6.328-4.226-10.479-11.434-10.479-19.6a23.5 23.5 0 0 1 3.186-11.824c11.604 14.24 28.963 23.603 48.525 24.599a24.068 24.068 0 0 1-.604-5.376c0-12.99 10.533-23.534 23.534-23.534 6.78 0 12.88 2.86 17.184 7.44a47.401 47.401 0 0 0 14.951-5.72 23.69 23.69 0 0 1-10.353 13.023 47.226 47.226 0 0 0 13.513-3.706 47.725 47.725 0 0 1-11.74 12.19z"/>
        <path id="u58ja"
              d="M560.661 320.71h103.65c19.95 0 36.133-16.183 36.133-36.14V180.92c0-19.958-16.184-36.132-36.133-36.132h-103.65c-19.96 0-36.138 16.174-36.138 36.132v103.65c0 19.957 16.178 36.14 36.138 36.14z"/>
        <path id="u58jb"
              d="M577.115 271.617h72.238c14.034 0 18.837-11.381 18.837-25.424v-26.887c0-14.043-4.203-25.422-18.246-25.422h-73.43c-14.039 0-19.74 11.379-19.74 25.422v26.887c0 14.043 6.3 25.424 20.341 25.424zm24.202-53.817v-.24l30.348 15.841-30.348 15.835z"/>
        <path id="u58jc" d="M631.665 233.4l-30.348-15.84v.209l2.344 1.018z"/>
    </defs>
    <symbol id="fb" viewBox="0 0 177 177">
        <g>
            <g transform="translate(-308 -345)">
                <use fill="#fff" xlink:href="#4f30a"/>
            </g>
            <g transform="translate(-308 -345)">
                <use fill="#fff" xlink:href="#4f30b"/>
            </g>
            <g transform="translate(-308 -345)">
                <use fill="#4267b2" xlink:href="#4f30c"/>
            </g>
        </g>
    </symbol>
    <symbol id="in" viewBox="0 0 177 177">
        <g>
            <g transform="translate(-310 -558)">
                <use fill="#fff" xlink:href="#bnfca"/>
            </g>
            <g transform="translate(-310 -558)">
                <use fill="#0077b5" xlink:href="#bnfcb"/>
            </g>
        </g>
    </symbol>
    <symbol id="inst" viewBox="0 0 24 24">
        <rect height="24" id="Artboard10" style="fill:none;" width="24" x="0" y="0"/>
        <path
            d="M22,7c0,-2.761 -2.239,-5 -5,-5c-3.054,0 -6.946,0 -10,0c-2.761,0 -5,2.239 -5,5c0,3.054 0,6.946 0,10c0,2.761 2.239,5 5,5c3.054,0 6.946,0 10,0c2.761,0 5,-2.239 5,-5c0,-3.054 0,-6.946 0,-10Z"
            style="fill:url(#_Radial1);"/>
        <path
            d="M14.958,5.005c2.091,0.02 4.016,1.815 4.037,4.037c0.007,1.972 0.007,3.944 0,5.916c-0.02,2.083 -1.815,4.016 -4.037,4.037c-1.972,0.007 -3.944,0.007 -5.916,0c-2.092,-0.02 -4.016,-1.815 -4.037,-4.037c-0.007,-1.972 -0.007,-3.944 0,-5.916c0.019,-2.093 1.81,-4.016 4.037,-4.037c1.972,-0.007 3.944,-0.007 5.916,0Zm-5.889,0.945c-1.623,0.005 -3.103,1.412 -3.119,3.098c-0.006,1.968 -0.006,3.936 0,5.904c0.015,1.605 1.388,3.082 3.098,3.098c1.968,0.006 3.936,0.006 5.904,0c1.609,-0.015 3.082,-1.388 3.098,-3.098c0.006,-1.968 0.006,-3.936 0,-5.904c-0.015,-1.616 -1.415,-3.082 -3.098,-3.098c-1.961,-0.006 -3.922,0 -5.883,0Z"
            style="fill:#fff;fill-rule:nonzero;"/>
        <path
            d="M12.024,8.5c1.618,0.015 3.126,1.263 3.422,2.862c0.211,1.14 -0.187,2.376 -1.027,3.178c-0.935,0.89 -2.382,1.208 -3.622,0.754c-1.386,-0.507 -2.361,-1.968 -2.296,-3.448c0.079,-1.768 1.641,-3.34 3.499,-3.346c0.008,0 0.016,0 0.024,0Zm-0.04,0.947c-1.155,0.011 -2.244,0.887 -2.484,2.025c-0.243,1.151 0.419,2.428 1.506,2.887c1.187,0.502 2.72,-0.061 3.293,-1.233c0.593,-1.211 0.034,-2.856 -1.218,-3.441c-0.341,-0.159 -0.72,-0.239 -1.097,-0.238Z"
            style="fill:#fff;fill-rule:nonzero;"/>
        <path
            d="M16.5,8.227c0,-0.193 -0.077,-0.378 -0.213,-0.514c-0.136,-0.136 -0.321,-0.213 -0.514,-0.213c-0.015,0 -0.031,0 -0.046,0c-0.193,0 -0.378,0.077 -0.514,0.213c-0.136,0.136 -0.213,0.321 -0.213,0.514c0,0.008 0,0.015 0,0.023c0,0.199 0.079,0.39 0.22,0.53c0.14,0.141 0.331,0.22 0.53,0.22c0,0 0,0 0,0c0.414,0 0.75,-0.336 0.75,-0.75c0,-0.008 0,-0.015 0,-0.023Z"
            style="fill:#fff;"/>
    </symbol>
    <symbol id="rss" viewBox="0 0 176 176">
        <g>
            <g transform="translate(-525 -350)">
                <use fill="#ff8200" xlink:href="#dopva"/>
            </g>
            <g transform="translate(-525 -350)">
                <use fill="#fff" xlink:href="#dopvb"/>
            </g>
        </g>
    </symbol>
    <symbol id="tw" viewBox="0 0 177 177">
        <g>
            <g transform="translate(-528 -557)">
                <use fill="#fff" xlink:href="#xa4xa"/>
            </g>
            <g transform="translate(-528 -557)">
                <use fill="#38a1f3" xlink:href="#xa4xb"/>
            </g>
        </g>
    </symbol>
    <symbol id="yotube" viewBox="0 0 177 177">
        <g>
            <g transform="translate(-524 -144)">
                <use fill="#ed3833" xlink:href="#u58ja"/>
            </g>
            <g transform="translate(-524 -144)">
                <use fill="#fff" xlink:href="#u58jb"/>
            </g>
            <g transform="translate(-524 -144)">
                <use fill="#fff" xlink:href="#u58jc"/>
            </g>
        </g>
    </symbol>
</svg>
