<svg xmlns="http://www.w3.org/2000/svg" width="81" height="40" viewBox="0 0 81 40"><g><g><g><g><g><path fill="#12a0d2" d="M26.612 14.27c.368.458.659.964.874 1.52.214.556.321 1.19.321 1.9 0 .86-.208 1.704-.624 2.533-.417.83-1.104 1.416-2.062 1.76.801.335 1.368.811 1.702 1.428.334.618.501 1.56.501 2.827v1.214c0 .826.032 1.386.096 1.68.096.466.319.81.67 1.03v.454h-4.006c-.11-.401-.189-.724-.236-.97a9.247 9.247 0 0 1-.153-1.556l-.024-1.68c-.014-1.153-.206-1.921-.574-2.306-.368-.384-1.057-.576-2.068-.576h-3.544v7.088h-3.547V12.54h8.308c1.187.024 2.1.18 2.74.466.64.286 1.182.707 1.626 1.263zm-9.127 1.41v4.856h3.91c.776 0 1.358-.098 1.747-.294.686-.344 1.03-1.022 1.03-2.036 0-1.095-.332-1.831-.997-2.207-.373-.213-.933-.319-1.68-.319z"/></g><g><path fill="#12a0d2" d="M30.31 15.653h3.406v-3.225H30.31zm0 14.966h3.406V17.247H30.31z"/></g><g><path fill="#12a0d2" d="M49.344 20.087v9.753c0 2.1-.434 3.48-1.272 4.493-1.116 1.35-2.885 2.055-5.087 2.055-2.358 0-4.374-.736-5.336-1.687-.527-.521-.745-1.104-.745-1.748 0-.95.714-1.871 1.83-1.871 1.055 0 1.893.736 1.893 1.748 0 .153-.031.399-.062.522.558.183 1.21.337 2.016.337 1.21 0 2.172-.368 2.761-1.166.404-.552.62-1.318.62-2.33v-1.71c-1.023 1.012-2.109 1.495-3.908 1.495-3.443 0-6.205-2.607-6.205-6.594 0-3.834 2.824-6.364 6.36-6.364 1.737 0 2.978.674 3.878 1.441v-1.196s10.487.029 10.516 0v3.036c1.148-1.81 2.575-3.281 4.312-3.281 1.675 0 2.513 1.012 2.513 2.208 0 1.135-.9 2.085-2.017 2.085-1.023 0-1.706-.582-1.985-1.196-.962.338-2.078 1.38-2.699 2.546v5.275h2.358v2.76h-7.756v-2.76h2.017v-7.851zm7.26-2.822zm-10.641 3.68c-.807-.613-1.83-1.042-3.04-1.042-2.079 0-3.599.904-3.599 3.448 0 2.451 1.52 3.8 3.599 3.8 1.147 0 2.171-.521 3.04-1.318z"/></g><g><path fill="#12a0d2" d="M66.573 36.956h.91l.282-1.329h-.91l.367-1.745h-1.566l-.37 1.743h-.913l-.293 1.33h.925c-.285 1.346-.574 2.72-.665 3.165-.193.957.127 1.209.931 1.209h1.342l.282-1.408h-.777c-.184 0-.152-.154-.093-.386.06-.234.548-2.579.548-2.579"/></g><g><path fill="#12a0d2" d="M50.923 35.468c.263-1.235.762-1.592 1.99-1.592h2.629l-.32 1.509h-1.788c-.21 0-.574.01-.636.302l-.749 3.526c-.103.492-.043.607.455.607h1.778l-.32 1.506H51.11c-.921 0-1.28-.7-1.1-1.548z"/></g><g><path fill="#12a0d2" d="M58.288 35.623c.816 0 1.2.473 1.077 1.255-.048.299-.134.72-.22 1.1-.138.6-.267 1.193-.267 1.193l-2.696.006s-.011.091-.09.497c-.045.225.113.322.376.322h2.256l-.282 1.329h-2.815c-.92 0-1.353-.409-1.151-1.361l.66-3.116c.169-.797.81-1.225 1.572-1.225zm-.518 2.397s.158-.758.158-.87c0-.152-.106-.207-.309-.207h-.514c-.2 0-.428.116-.495.348l-.16.73z"/></g><g><path fill="#12a0d2" d="M60.038 35.623h2.816c.805 0 1.165.449.996 1.245l-.945 4.457h-1.583l.849-4.006c.06-.283-.113-.368-.367-.368h-.463l-.926 4.374h-1.583z"/></g><g><path fill="#12a0d2" d="M69.528 35.623h1.116l-.282 1.328c-.15 0-.235-.003-.348-.002-.365.004-.552.059-.634.445l-.833 3.93h-1.583l.922-4.35c.192-.902.742-1.351 1.642-1.351"/></g><g><path fill="#12a0d2" d="M70.947 35.623h1.583l-.85 4.006c-.061.293.081.366.355.366h.005c.254 0 .462-.084.522-.366l.85-4.006h1.583l-.945 4.456c-.17.795-.719 1.246-1.525 1.246h-1.528c-.805 0-1.164-.45-.995-1.246z"/></g><g><path fill="#12a0d2" d="M75.332 35.623h2.537c.414 0 .817.093.962.46.28-.377.6-.46 1.012-.46h.677c.773 0 1.13.512.96 1.255l-.942 4.447-1.61.001.836-3.975c.064-.304-.09-.42-.323-.42h-.038a.46.46 0 0 0-.426.355l-.856 4.039h-1.583l.857-4.039c.044-.209-.052-.354-.275-.354l-.464-.002-.94 4.395h-1.583z"/></g><g><path fill="#12a0d2" d="M81.598 34.12v-.227h1.196v.227h-.464v1.364h-.268V34.12z"/></g><g><path fill="#12a0d2" d="M82.994 35.484v-1.591h.327l.283.74c.02.055.046.13.077.224l.061.184h.008l.145-.408.277-.74h.331v1.59h-.264v-.721c0-.12.01-.284.028-.491h-.008l-.116.338-.295.784h-.2l-.29-.784-.12-.34h-.01c.022.193.032.357.032.493v.722z"/></g><g><path fill="#12a0d2" d="M4 2.186v39.188h39.639v-3.397l-36.267.064V5.519h32.895v9.974h3.372V2.186z"/></g></g></g></g></g></svg>