<svg xmlns="http://www.w3.org/2000/svg" width="174" height="22" viewBox="0 0 317 40">
    <g>
        <path fill="#687381"
              d="M143.501 34.94c-.598-2.588 2.188-9.155-2.388-10.149l-6.369 6.766c3.384-.199 6.37 1.193 8.757 3.382zm31.644-16.519l-5.573-3.186c-.198 4.977-.595 12.142-.198 17.316l5.373 2.987zm-29.256.001c-3.185-.399-5.572-2.389-8.159-3.78l-.2 7.96c.995.597 1.594 1.79 2.59 1.79 2.187-2.19 3.98-3.78 5.77-5.97zm17.314-4.976c.397.2.198.794.198 1.194-1.59.2-3.78.2-5.174 0-.597 5.371-.398 12.138-.597 17.711.796 1.195 1.99 2.388 3.384 2.587 1.591-.398 1.791-1.993 2.985-2.587l.198-14.925c2.986-1.395 5.774-3.184 8.358-5.574 2.59 1.194 5.176 2.59 7.565 4.18-.399 4.58-.399 12.14 0 16.915-3.184 1.397-5.774 3.385-8.56 5.97-2.783-1.588-5.569-3.379-8.159-4.973l-5.174 4.58c-2.186-.998-4.58-3.187-6.568-4.58l.993-2.388.202-16.119c-.399-.597-1.393-.2-1.99-.2-2.192 2.19-3.98 3.98-6.172 5.971l3.98 2.985-.196 8.755c-2.789 1.397-5.374 3.386-7.96 5.378-2.389-1.793-4.779-3.785-7.964-2.989-2.186.596-1.79 3.186-1.19 4.378-.996 0-.996-1.39-.996-2.386-.4-3.78 3.98-6.168 6.167-9.157l-4.177-3.38c-.199-2.988.398-5.372.197-8.36 2.987-1.394 5.575-3.185 7.963-5.376 2.786 1.794 5.771 3.585 9.154 3.982 2.984-2.189 5.573-5.77 8.36-7.962l.198 6.171zM97.727 33.148c1.592 2.19 3.384.202 5.174-.398l.2-9.55c-1.394-1.396-3.185-2.589-5.175-3.187zM239.428 23.2c-1.592-2.987-4.975-5.772-8.36-4.379l.398 17.316c2.987.198 5.97-.597 7.962-2.587 1.99-2.986 1.592-7.365 0-10.35zM222.31 10.661c-2.985 1.791-4.775 5.372-5.174 8.16-.597 4.378.4 9.552 3.981 12.934.995-.594.995-1.792 1.394-2.787zm15.723.995a25.065 25.065 0 0 0-6.966-3.384l.2 9.552c1.99-1.79 4.975-3.78 6.766-6.168zm-7.96-3.983c-.797-.197-2.187-1.194-2.787-.197v18.707c-.796 2.785-2.985 4.774-5.57 6.17 2.386 1.79 5.173 3.384 8.357 3.58zm2.19-4.975c3.384 2.191 6.964 3.584 10.55 4.977L245 5.683l.598.6c-2.389 2.385-6.169 5.57-8.558 8.16 4.18 1.588 8.558 5.57 8.36 10.545 1.196 4.18-3.186 6.37-4.977 8.76-3.184 2.982-6.765 4.775-10.546 5.967-6.968.198-13.934-3.182-16.719-9.552-1.99-4.775-1.99-9.552.796-13.93 5.773-5.376 12.338-8.558 18.308-13.535zm58.91 16.122c-.597-.996-1.792-2.388-3.186-2.388-.995.398-1.992 1.194-2.586 1.99v14.33c1.991.797 3.581 2.985 5.572 2.787zM281.62 6.083c1.591-1.99 3.98-3.385 6.364-2.987-3.98 1.393-2.386 6.567-2.585 9.554.2 1.59-.599 3.38 0 4.577l5.771-4.577c2.19.395 4.38 2.786 5.175 4.975-.198 4.375-.399 11.144 0 15.522-2.786 1.791-6.17 3.583-8.56 6.37l-8.355-4.976.795-2.786V8.867c-.199-1.39-.995-2.985-2.189-3.98 1.395-.396 2.39.995 3.584 1.196zm-11.546 12.935l-5.569-2.985c-.402 4.776-.2 11.544-.2 16.915 1.988.998 3.58 2.391 5.77 3.188zM251.17 5.882c1.194-1.789 3.384-2.784 5.175-2.784-2.588 1.79-1.993 3.978-2.19 6.764 0 7.164 0 13.337-.2 20.701.2 1.592-.798 4.774 2.39 5.174.993-.198 1.99-.997 2.985-1.594l-.399-15.72c3.184-1.397 6.17-3.186 8.757-5.97l7.764 4.178c-.4 5.171-.4 11.94 0 17.116-3.185 1.192-5.97 3.582-8.36 5.968-2.988-1.39-5.573-3.58-8.359-4.577l-4.975 4.378c-1.99-1.192-3.782-2.588-5.573-3.98l1.195-2.389-.203-26.072c-.197-.994-.992-1.79-1.192-2.586.995 0 1.992 1.194 3.185 1.393zm59.706 15.326c-1.194-1.79-3.383-3.98-5.174-5.177-.198 2.985 0 5.575-.198 8.957zm-5.373 5.174l.197 5.97c1.79 1.395 3.781 3.186 5.97 2.587l4.178-3.184c.402-.198.202.201.402.4-2.192 2.585-5.177 4.774-7.764 7.363-2.985-1.592-6.17-3.184-8.757-5.375 1.394-3.579.398-9.154.796-12.934l-.198-2.986c3.184-1.392 5.773-3.98 8.756-5.97l6.766 6.567zm-243.996-6.17c-1.592-1.59-3.584-3.58-5.176-4.975l-.398 9.155zM9.562 29.765c1.194-6.566.995-11.543.597-18.309l-3.98 2.986c-2.189 4.775-.996 11.741 2.786 16.12zm8.756-20.898l-2.786-.395c-1.592 8.16 3.184 17.313-5.97 22.69.796.792 1.791.792 2.388 1.588 1.99.997 4.58 1.99 6.567 1.99zm13.733-4.975c.993-1.99 2.787-3.184 5.174-3.184-3.78 3.584-1.79 10.348-2.189 15.526 1.992-1.195 3.981-3.185 6.17-4.577 1.99.198 3.583 1.99 4.578 3.581l.397 1.593c-.397 4.577-.199 12.338 0 17.115 1.194 1.988 2.985.794 4.18-.397l.597-.604v-15.32c2.986-1.393 5.773-3.584 8.36-5.773 2.388 1.99 4.775 4.18 6.966 6.57l-10.35 7.362c0 2.985-1.193 7.163 2.986 7.961 1.394.994 2.39 1.193 3.98.397 1.193-.793 1.99-2.785 3.384-2.388-2.19 2.19-5.374 4.777-7.96 7.163l-7.168-4.573c-3.182.196-5.57 6.564-8.955 2.784l-1.194-2.19V17.426c0-.995-.995-1.99-1.99-2.19-1.592 0-2.786 1.195-3.98 2.39l-.199 14.925 2.388 2.388c-1.197.994-2.787 4.18-4.578 2.785l-4.378-3.582-9.156 4.775c-7.362.2-14.527-2.784-17.71-9.352-1.992-4.577-1.992-8.758.397-13.134 3.78-3.184 8.358-5.375 12.54-7.763-2.79-.796-7.168-1.19-10.153-.796-.995-.197-1.79.995-1.99 1.99-.398 1.194.597 1.794.796 2.79C1.004 11.257 1.402 8.67 1.8 6.878c3.383-5.574 9.751-2.987 14.93-2.788 3.382 0 8.357 1.99 11.144-.995.397-.399.397-1.593.995-1.394l.397.2-3.98 6.964c-1.792.4-3.98.4-5.772.2-.4 9.355.197 16.915-.2 25.673 3.185 1.396 6.966-.395 9.951-2.188l.398-.597c0-10.348 0-21.097.598-30.052zm91.547 13.733l-5.572-2.985c-.398 4.975-.597 11.741-.198 17.314l5.373 2.985zm5.573-2.387c-.793 4.776-.596 11.941-.396 17.116-3.186 1.592-5.972 3.58-8.957 5.972-2.784-1.594-5.769-3.387-8.358-5.178l.796-1.393c.397-4.976.397-9.754.198-14.527 2.587-1.79 6.17-3.582 8.955-6.172zm58.312-2.786c1.396 1.194 1.99 2.985 2.786 4.38 2.986-.799 5.971-7.564 8.958-2.789 1.191 1.195 2.388 2.788 1.79 4.38.197 4.778-.798 11.541 0 16.32.797.796 2.19 1.592 2.986.198.398-.397.995-.994 1.391-.796-1.588 1.593-3.778 3.58-5.968 4.975-1.592-.794-3.184-2.189-3.78-4.179.397-5.374.596-11.94.397-16.718-.199-.994-1.395-2.19-2.39-2.389-1.592 0-2.585 1.394-3.582 1.99l-.598 15.124c.4 1.197 2.39 1.794 2.39 2.986l-3.386 2.985-4.974-3.978c.2-.596.995-1.392 1.195-2.388l.398-14.927c-.398-1.195-2.588-1.99-1.394-3.184 1.393-.598 2.588-2.786 3.781-1.99zm-93.736 9.953c-1.194 2.783-4.378 4.973-6.767 6.365 3.582.4 6.568 1.992 9.554 3.584l.796-21.296c0-.396.597-.595.796-.199v8.561c1.99-.997 3.98-2.19 5.573-3.982.197-4.18-3.186-7.166-5.176-10.549-6.965 3.184-3.184 12.54-4.776 17.516zM78.223 4.093c5.175-4.38 10.548-.796 16.52-.997-3.383 1.393-7.562 4.38-8.159 8.56-1.196 5.77 1.99 13.134-4.778 15.721l-2.388.795c1.194-.994 2.785-2.586 2.586-4.577.797-1.99-.395-3.584-2.586-3.98-.995.2-2.189 0-2.985.597-.398.996-.598 1.788-.199 2.786-.995-.596-.797-1.992-.597-2.987.197-1.39 1.591-1.99 2.586-2.585h3.781c-.597-4.577 2.787-8.159 6.371-10.549-2.788-.595-6.57-1.592-9.753-.199-.598.997-1.195 2.59-.399 3.784 0 .2.2.397.2.796h-.2c-1.394-2.39-1.592-4.777 0-7.165zM103.3 17.026c1.79 1.595 3.98 2.59 5.771 3.982-.995 3.384-.598 7.563-.796 10.747-4.179 1.393-8.757 2.59-11.742 6.171-5.574-2.786-11.942-7.363-18.11-3.783-1.394 1.194-1.594 3.982-.599 5.574-.995.4-1.193-1.59-1.393-2.387-.599-1.993.995-3.78 1.99-5.573 2.985-4.377 9.951-.996 10.746-7.563.4-4.18-.597-9.155.995-13.136 3.185-4.775 7.961-6.566 12.34-9.949 2.191 3.58 5.176 7.163 6.37 11.343-1.393 1.99-3.782 2.785-5.572 4.574z" />
    </g>
</svg>