<svg xmlns="http://www.w3.org/2000/svg" width="128" height="26" viewBox="0 0 220 45"><g><g><path fill="#687381" d="M73.512 1.07h17.471l3.625 18.543L98.561 1.07h17.005v6.803h-3.024v19.209h3.024v6.803h-14.718v-6.803h2.502V8.203l-6.324 25.683h-7.623L83.36 7.874v19.209h2.584v6.803h-12.43v-6.803h2.974V7.873h-2.975z"/></g><g><path fill="#687381" d="M166.372 27.082h1.999v6.804h-10.648v-15.37c0-1.865-.844-2.662-2.185-2.662-1.552 0-2.895 1.524-2.964 3.654v7.575h2.435v6.804h-12.99v-6.805h1.953v-10.87h-1.953V9.405h9.671v4.553c1.772-2.99 4.48-5.076 8.074-5.076 4.7 0 6.492 2.701 6.608 7.044v11.155z"/></g><g><path fill="#687381" d="M178.06 18.902c0-1.063.097-4.005 2.883-4.005 2.423 0 3.06 2.212 2.93 4.005zm14.089 6.57h-7.734c-.144.9-.74 3.073-3.245 3.073-3.027 0-3.337-3.355-3.337-5.244h14.64c.477-8.091-2.74-14.417-11.761-14.417-9.021 0-11.715 6.783-11.715 12.858 0 9.544 5.623 12.758 12.043 12.758 6.147 0 10.304-3.115 11.109-9.027z"/></g><g><path fill="#687381" d="M125.099 21.692c0-1.518 0-6.2 3.437-6.2 3.439 0 3.439 4.68 3.439 6.2 0 1.522 0 6.203-3.439 6.203-3.437 0-3.437-4.681-3.437-6.203zm-8.836 0c0 7.796 3.999 12.809 12.273 12.809 8.275 0 12.275-5.013 12.275-12.81 0-7.79-4-12.806-12.275-12.806-8.274 0-12.273 5.016-12.273 12.807z"/></g><g><path fill="#687381" d="M205.257 9.406v6.806h-1.954l3.301 10.585 3.068-10.585h-2.043V9.406h11.69v6.806h-2.046l-6.555 18.065c-2.823 7.812-5.883 9.958-11.45 9.958-2.324 0-3.773-.376-5.03-.66v-6.76c1.334.28 2.542.503 3.701.503 1.615 0 2.895-.478 3.545-1.972.185-.379.152-.326.296-.703l-6.836-18.43h-2.046V9.405h12.36z"/></g><g><path fill="#687381" d="M6.33 17.49c.003 5.168 3.477 10.737 11.097 10.737h9.504a.765.765 0 0 0 .761-.756V7.469c-.003-1.18.595-2.105 1.564-2.419.937-.302 1.966.082 2.596 1.013 0 0 13.433 21.947 13.433 21.95.156.22.338.292.45.254.128-.043.261-.255.26-.667V7.473c-.002-1.176.594-2.104 1.56-2.417.937-.301 1.964.083 2.596 1.014 2.673 4.438 13.35 21.814 13.431 21.948.141.195.328.3.477.254.168-.056.276-.307.276-.666V1.068h-3.69V16.55s-2.44-4.194-6.6-11.467C49.972-2.023 42.288.924 42.288 7.04v9.505s-2.382-4.195-6.54-11.464C31.674-2.03 23.975.918 23.975 7.035v16.372c.001.593-.427 1.118-1.059 1.118h-5.036c-10.895.013-9.922-14.164-.648-14.177 4.12-.005 5.566 0 5.566 0v-3.71h-5.766C9.673 6.65 6.327 12.273 6.33 17.49z"/></g><g><path fill="#687381" d="M66.126 1.067v26.536c.003 1.19-.58 2.116-1.527 2.412-.91.292-1.884-.083-2.517-.986-.11-.177-10.79-17.56-13.435-21.97-.178-.264-.408-.305-.548-.258-.198.061-.31.313-.31.671V27.6c.005 1.426-.778 2.184-1.516 2.412-.895.292-1.86-.088-2.49-.988 0 0-13.432-21.965-13.432-21.972-.181-.262-.412-.3-.554-.256-.2.064-.312.31-.312.67V27.47c0 1.433-1.146 2.585-2.554 2.585h-9.504c-8.851 0-12.887-6.512-12.892-12.564C4.53 11.196 8.82 4.82 17.03 4.81h5.769V1.062h-5.05c-22.653 0-22.435 32.781.3 32.798h8.89c3.82 0 6.279-2.294 6.274-6.545v-8.308s4.983 8.397 6.943 11.686c3.326 5.592 11.375 4.491 11.354-2.503v-9.177s4.984 8.394 6.943 11.683c3.327 5.592 11.376 4.492 11.355-2.5V1.066h-3.682z"/></g></g></svg>