<svg xmlns="http://www.w3.org/2000/svg" width="108" height="35" viewBox="0 0 190 64">
    <g>
        <path fill="#687381" d="M63.249 63.567H.486V.808h62.763z" />
    </g>
    <g>
        <path fill="#fff"
              d="M20.707 36.98v1.083H7.284V36.98c2.792-.127 3.584-.456 3.584-3.42V14.22c0-2.964-.792-3.297-3.501-3.42V9.716h23.677l.169 6.25h-1.168c-1-3.167-2.085-4.167-7.63-4.167H18.12c-1.29 0-1.581.292-1.581 1.46v8.965h2.115c4.42 0 5.379-.797 5.92-3.757h1.084v10.007h-1.084c-.582-3.336-2.251-4.167-5.92-4.167h-2.115v9.253c0 2.964.79 3.293 4.168 3.42zm37.726-21.01h-1.424c-.908-3.062-2.247-4.17-5.24-4.17h-3.5v21.76c0 2.964.792 3.293 4.002 3.42v1.083H38.597V36.98c3.209-.127 4-.456 4-3.42V11.8h-3.501c-2.991 0-4.328 1.108-5.237 4.17h-1.426l.577-6.254h24.847z" />
    </g>
    <g>
        <path fill="#687381"
              d="M79.651 39.92c0 1.373.372 1.526 1.938 1.59V42h-6.236v-.49c1.296-.064 1.666-.217 1.666-1.59v-8.987c0-1.38-.37-1.534-1.632-1.59v-.504h11.009l.073 2.902h-.54c-.466-1.47-.968-1.935-3.546-1.935h-1.995c-.6 0-.737.134-.737.681v4.162h2.25c2.054 0 2.499-.369 2.75-1.743h.504v4.652h-.505c-.27-1.553-1.047-1.94-2.749-1.94h-2.25zm12.981 0c0 1.373.366 1.526 1.937 1.59V42h-6.51v-.49c1.573-.064 1.935-.217 1.935-1.59v-8.987c0-1.38-.362-1.534-1.936-1.59v-.504h6.511v.503c-1.57.057-1.937.21-1.937 1.591zm15.517-8.618c0-1.279-.35-1.8-1.784-1.96v-.503h4.649v.503c-1.432.16-1.78.681-1.78 1.96v11.022h-.66L99.59 31.938v7.611c0 1.28.345 1.801 1.78 1.96V42h-4.652v-.49c1.435-.16 1.783-.68 1.783-1.96v-8.865c-.446-.783-.97-1.152-1.783-1.343v-.503h3.585l7.847 9.07zm10.966 5.982l-1.958-5.212-1.976 5.212zM124.614 42h-5.695v-.49c.913 0 1.395-.198 1.395-.834 0-.54-.64-1.998-.793-2.425h-4.769c-.15.427-.752 1.884-.752 2.425 0 .636.444.834 1.354.834V42h-4.183v-.49c.831-.179 1.277-.427 1.607-1.24l4.826-11.743h.637l4.63 11.334c.506 1.241.756 1.668 1.743 1.65zM135.6 29.342v-.503h4.648v.503c-1.434.16-1.784.681-1.784 1.96v11.022h-.657l-8.989-10.386v7.611c0 1.28.348 1.801 1.782 1.96V42h-4.65v-.49c1.434-.16 1.784-.68 1.784-1.96v-8.865c-.447-.783-.972-1.152-1.785-1.343v-.503h3.585l7.845 9.07.001-6.607c0-1.279-.348-1.8-1.78-1.96zm18.413 9.565c-1.377 2.348-3.179 3.417-5.912 3.417-4.28 0-6.818-2.813-6.818-7.019 0-2.998 2.364-6.778 6.955-6.778 1.375 0 3.33.777 3.622.777.386 0 .502-.21.816-.777h.656l.273 4.398h-.582c-.777-2.037-2.149-3.507-4.456-3.507-3.1 0-4.455 3.354-4.455 5.887 0 3.551 1.53 5.931 4.805 5.931 2.555 0 3.97-1.897 4.572-2.73zm6.38 1.012c0 1.374.37 1.527 1.938 1.591V42h-6.51v-.49c1.571-.064 1.938-.217 1.938-1.59v-8.987c0-1.38-.367-1.534-1.939-1.59v-.504h6.511v.503c-1.569.057-1.939.21-1.939 1.591zm11.266-2.635l-1.957-5.212-1.976 5.212zM177.163 42h-5.698v-.49c.91 0 1.393-.198 1.393-.834 0-.54-.639-1.998-.793-2.425h-4.765c-.153.427-.754 1.884-.754 2.425 0 .636.445.834 1.354.834V42h-4.184v-.49c.833-.179 1.278-.427 1.609-1.24l4.825-11.743h.639l4.63 11.334c.503 1.241.754 1.668 1.744 1.65zm1.15 0v-.49c1.26-.058 1.629-.217 1.629-1.59v-8.987c0-1.38-.369-1.534-1.629-1.59v-.504h6.083v.503c-1.451.057-1.822.21-1.822 1.591v9.24c0 .796.234 1.063 1.706 1.063 2.363 0 3.757-.427 4.881-2.749h.505l-.89 3.513zM78.244 62.76c1.496-.065 1.86-.218 1.86-1.592V51.055H78.48c-1.531 0-2.133.618-2.56 2.4h-.58l.31-3.367h11.545l.31 3.366h-.584c-.422-1.78-1.023-2.399-2.552-2.399h-1.63v10.113c0 1.374.369 1.527 1.858 1.591v.49h-6.353zm17.127-.008v.497h-6.51v-.497c1.572-.057 1.938-.21 1.938-1.584v-8.993c0-1.374-.366-1.527-1.939-1.584v-.509h6.51v.51c-1.567.056-1.938.21-1.938 1.583v8.993c0 1.374.37 1.527 1.938 1.584zm13.828-12.664h4.535v.503c-1.26.057-1.626.21-1.626 1.584v8.993c0 1.374.366 1.527 1.626 1.591v.49h-5.929v-.49c1.298-.064 1.669-.217 1.669-1.59v-9.26h-.04l-4.399 11.505h-.6l-4.298-11.506h-.04v8.89c0 1.28.347 1.801 1.781 1.961v.49H97.23v-.49c1.431-.16 1.78-.68 1.78-1.96V51.85c0-.91-.387-1.26-1.78-1.26v-.503h4.784l3.506 9.14zm6.405 12.671c1.258-.064 1.625-.217 1.625-1.59v-8.994c0-1.374-.367-1.527-1.625-1.584v-.503h11.002l.076 2.902h-.538c-.468-1.47-.973-1.935-3.548-1.935h-1.993c-.605 0-.737.134-.737.675v4.168h2.246c2.052 0 2.497-.369 2.751-1.743h.505V58.8h-.505c-.273-1.546-1.046-1.934-2.751-1.934h-2.246v4.556c0 .79.232 1.063 2.557 1.063 2.36 0 3.757-.427 4.88-2.756h.503l-.89 3.52h-11.313zm14.422-3.647c.56 1.744 2.228 3.564 4.167 3.564 1.663 0 2.264-1.158 2.264-2.189 0-3.023-6.818-3.583-6.818-7.338 0-1.82 1.763-3.373 3.776-3.373 1.976 0 2.673.694 3.548.694.368 0 .599-.287.696-.694h.505v4.181h-.505c-.542-1.896-1.897-3.29-3.682-3.29-1.47 0-2.016.948-2.016 1.846 0 2.685 6.822 2.768 6.822 7.395 0 2.068-1.703 3.66-4.07 3.66-2.324 0-2.924-.809-3.836-.809-.345 0-.582.23-.657.655h-.7v-4.302z" />
    </g>
</svg>