<svg xmlns="http://www.w3.org/2000/svg" width="86" height="22" viewBox="0 0 152 39">
    <g>
        <path fill="#677380"
              d="M92.585 11.3c5.888 0 10.389 5.194 10.389 12.294 0 9.005-5.54 14.72-14.718 14.72-3.291 0-6.581-.52-9.698-1.213.173-3.637.347-25.802 0-29.958-.346-2.079-.866-2.945-2.424-3.29L74.92 3.68V2.64L86.524.562c-.173 1.732-.173 6.754-.173 12.295 1.905-1.039 3.809-1.558 6.234-1.558zm-3.983 25.108c3.637 0 6.234-5.368 6.234-12.295 0-5.54-2.08-10.043-5.888-10.043-.866 0-1.56.173-2.597.52-.173 9.004 0 19.221.173 21.645.519.173 1.385.173 2.078.173z" />
    </g>
    <g>
        <path fill="#677380"
              d="M31.282 1.256H.805v1.558l1.732.173c2.25.347 3.117 1.732 3.462 5.022.52 6.234.348 17.49 0 22.859-.345 3.289-1.211 4.849-3.462 5.02l-1.732.348v1.385h19.568v-1.385l-2.078-.347c-2.251-.172-3.117-1.732-3.463-5.021-.174-2.252-.347-5.89-.347-10.391l4.156.173c2.599 0 3.81 2.078 4.33 5.023h1.558V13.378H22.97c-.52 2.944-1.731 5.02-4.33 5.02l-4.156.174c0-5.887.173-11.43.347-14.72h6.06c4.676 0 7.1 2.945 8.832 8.14l1.73-.52z" />
    </g>
    <g>
        <path fill="#677380"
              d="M54.142 24.633c0 7.445-4.85 13.68-13.508 13.68s-12.988-5.887-12.988-13.68c0-7.447 4.849-13.68 13.507-13.68 8.659 0 12.989 5.887 12.989 13.68zm-18.356 0c0 6.58 1.73 11.948 5.196 11.948 3.98 0 5.02-5.195 5.02-11.948 0-6.58-1.731-11.949-5.368-11.949-3.81 0-4.848 5.195-4.848 11.95z" />
    </g>
    <g>
        <path fill="#677380"
              d="M118.56 10.952c7.273 0 10.737 5.37 10.737 12.468h-16.106c-.173 6.408 2.944 11.083 9.18 11.083 2.77 0 4.155-.692 5.886-1.904l.693.865c-1.732 2.425-5.542 4.85-10.39 4.85-7.793 0-13.334-5.542-13.334-13.509 0-7.099 4.502-13.853 13.334-13.853zm2.77 10.39c0-3.463-.519-8.658-3.463-8.658s-4.503 4.848-4.676 8.832z" />
    </g>
    <g>
        <path fill="#677380"
              d="M149.903 12.338c-2.078-.866-4.849-1.385-7.965-1.385-6.407 0-10.39 3.809-10.39 8.312 0 4.502 2.943 6.407 7.1 7.792 4.328 1.558 5.541 2.771 5.541 4.85 0 2.077-1.559 3.982-4.329 3.982-3.29 0-5.715-1.905-7.62-7.1l-1.213.346.174 7.62c2.078.866 5.888 1.558 9.178 1.558 6.754 0 11.083-3.464 11.083-8.83 0-3.638-1.905-5.716-6.408-7.448-4.848-1.905-6.58-3.117-6.58-5.368 0-2.252 1.56-3.81 3.637-3.81 3.117 0 5.195 1.904 6.753 6.58l1.212-.346z" />
    </g>
    <g>
        <path fill="#677380"
              d="M76.653 11.645c-2.943-1.732-8.139-.866-10.91 5.368l.174-6.06-11.603 2.251v1.038l1.212.174c1.559.173 2.251 1.038 2.425 3.29.346 4.156.173 11.43 0 15.066-.174 2.078-.866 3.117-2.425 3.29l-1.212.173v1.386h16.105v-1.386l-2.078-.173c-1.732-.173-2.251-1.212-2.424-3.29-.347-3.29-.347-9.87-.174-14.027.866-1.212 4.676-2.25 8.139 0z" />
    </g>
</svg>