<svg xmlns="http://www.w3.org/2000/svg" width="200" height="28" viewBox="0 0 200 28"><defs><clipPath id="3qkca"><path d="M0 28h200V0H0z"/></clipPath></defs><g><g><g><path fill="#232d37" d="M67.253 11.55c-.423 0-.846.12-1.21.419-.302.299-.483.658-.483 1.137 0 .478.181.837.484 1.136.302.3.726.42 1.21.42.423 0 .846-.12 1.209-.42.302-.299.484-.658.484-1.136 0-.48-.182-.838-.484-1.137-.302-.3-.726-.419-1.21-.419"/></g><g/><g clip-path="url(#3qkca)"><path fill="#232d37" d="M65.86 27.646h2.782V15.68H65.86z"/></g><g clip-path="url(#3qkca)"><path fill="#232d37" d="M12.46 13.16a3.838 3.838 0 0 0-3.87 3.83c0 2.093 1.754 3.828 3.87 3.828 2.117 0 3.871-1.735 3.871-3.829 0-2.094-1.754-3.829-3.87-3.829"/></g><g clip-path="url(#3qkca)"><path fill="#64c800" d="M118.834 12.21H101.78v2.273h7.136v13.163h2.782V14.484h7.136z"/></g><g clip-path="url(#3qkca)"><path fill="#64c800" d="M127.669 15.61c-1.452-.358-3.085-.418-4.657.18-.484.18-.907.419-1.27.718v-.897h-2.782v11.965h2.782v-6.76c0-.479.12-.898.302-1.317.182-.418.423-.717.787-.957.362-.299.725-.478 1.21-.657.422-.12.906-.18 1.45-.18.302 0 .545.06.787.06s.484.12.725.179l.424.18.665-2.453z"/></g><g clip-path="url(#3qkca)"><path fill="#64c800" d="M141.696 17.652c.423.659.665 1.376.544 2.334v7.777h-2.781v-.957c-.484.36-1.029.599-1.694.778-.907.3-1.814.419-2.721.419-.726 0-1.452-.06-2.178-.12a11.56 11.56 0 0 1-2.177-.538 3.495 3.495 0 0 1-1.693-1.197c-.423-.598-.666-1.376-.666-2.273 0-.778.122-1.376.545-1.915.423-.538.846-.897 1.45-1.197.606-.239 1.271-.418 1.936-.538.666-.06 1.391-.12 2.057-.12h5.2v-.06a2.05 2.05 0 0 0-.302-1.076 1.971 1.971 0 0 0-.846-.658 3.46 3.46 0 0 0-1.33-.42c-.908-.119-1.755-.119-2.722 0-.423.06-.786.18-1.21.3-.302.12-.666.299-.968.538-.302.24-.544.479-.665.778l-2.6-.658.06-.06c.242-.718.545-1.256 1.088-1.675a9 9 0 0 1 1.694-1.017 10.26 10.26 0 0 1 1.935-.539c1.452-.18 2.783-.12 4.233.06.787.12 1.512.36 2.178.658.665.36 1.21.778 1.633 1.376zm-2.237 4.488h-4.96c-1.088 0-1.874.12-2.54.418-.544.24-.786.599-.786 1.197 0 .359.18.658.362.838.243.239.545.418.969.538.423.12.846.18 1.33.24.484.06.907.06 1.33.06.423 0 .907 0 1.452-.12.544-.06 1.028-.24 1.452-.42.422-.179.786-.418 1.088-.717.303-.18.423-.479.423-.838z"/></g><g clip-path="url(#3qkca)"><path fill="#64c800" d="M156.276 23.457c-.12.42-.302.658-.665.958-.303.299-.665.478-1.089.658-.423.18-.847.299-1.33.359-1.21.18-2.359.12-3.327-.12a7.146 7.146 0 0 1-1.512-.658c-.423-.3-.725-.659-.967-1.197a4.054 4.054 0 0 1-.363-1.735c0-.658.12-1.196.363-1.735.242-.479.544-.897.907-1.196.423-.3.907-.599 1.451-.779.968-.299 2.057-.358 3.327-.119a5.5 5.5 0 0 1 1.33.36c.424.179.786.418 1.089.657.302.299.544.598.665.958l.121.418 2.6-.658-.18-.42c-.303-.717-.666-1.315-1.21-1.853-.484-.479-1.089-.838-1.754-1.138a8.474 8.474 0 0 0-1.996-.598c-1.693-.298-3.387-.179-4.899.18-.907.3-1.693.658-2.358 1.197-.666.538-1.21 1.196-1.694 1.974a5.555 5.555 0 0 0-.665 2.692c0 1.077.181 1.975.665 2.753.424.777.968 1.435 1.694 1.914.665.539 1.451.898 2.419 1.077.907.24 1.875.359 2.842.359.665 0 1.452-.06 2.117-.18.726-.12 1.39-.3 1.996-.598.665-.3 1.21-.658 1.693-1.137.544-.478.907-1.076 1.15-1.855l.18-.418-2.6-.598z"/></g><g clip-path="url(#3qkca)"><path fill="#64c800" d="M174.3 15.618h-4.415l-6.773 4.428V11.55h-2.722v16.095h2.722v-4.787l.786-.539 7.257 5.326h4.294l-9.193-6.822z"/></g><g clip-path="url(#3qkca)"><path fill="#64c800" d="M199.578 15.61c-1.45-.358-3.084-.418-4.656.18-.484.18-.907.419-1.27.718v-.897h-2.782v11.965h2.781v-6.76c0-.479.121-.898.303-1.317.181-.418.423-.717.786-.957.363-.299.726-.478 1.21-.657.484-.18.968-.18 1.451-.18.302 0 .545.06.786.06.243 0 .484.12.726.179l.424.18.665-2.453z"/></g><g clip-path="url(#3qkca)"><path fill="#232d37" d="M29.69 27.706h2.782V12.21H29.69z"/></g><g clip-path="url(#3qkca)"><path fill="#232d37" d="M46.993 16.697c-.544-.42-1.21-.718-1.996-.898-.725-.18-1.572-.299-2.419-.299-1.028 0-1.995.18-2.963.538-.605.24-1.15.539-1.633.958v-1.257H35.2v11.966h2.782v-6.701c0-.538.12-.957.423-1.316.303-.419.666-.778.968-.958.423-.299.907-.478 1.451-.657a7.465 7.465 0 0 1 1.573-.18c1.088 0 1.996.239 2.6.718.666.418.908 1.137.908 2.034v7.06h2.782v-7.12c0-.837-.121-1.675-.424-2.274-.242-.717-.665-1.255-1.27-1.614"/></g><g clip-path="url(#3qkca)"><path fill="#232d37" d="M62.356 21.421c-.544-.238-1.15-.418-1.814-.598-.666-.12-1.33-.239-1.996-.299-.665-.06-1.33-.12-1.935-.18-.666-.059-1.15-.12-1.633-.299-.424-.12-.786-.239-1.028-.418-.182-.12-.303-.3-.303-.48 0-.298.06-.418.242-.657.182-.18.423-.36.786-.479.363-.119.787-.18 1.21-.299.968-.119 1.935-.119 2.721 0 .424.06.726.12 1.029.24.302.119.544.299.786.418.242.18.423.42.665.778l.181.3 2.601-.658-.181-.48c-.303-.658-.666-1.077-1.09-1.495-.422-.419-.967-.659-1.571-.898-.545-.18-1.21-.419-1.815-.419-1.33-.18-2.721-.12-4.112.06-.787.12-1.452.3-2.057.598-.665.3-1.21.659-1.572 1.197a3.117 3.117 0 0 0-.665 1.974c0 .66.181 1.197.544 1.676.363.418.786.718 1.33.957.545.24 1.15.42 1.754.538.666.12 1.27.18 1.996.3.665.06 1.33.12 1.935.18.605.059 1.15.178 1.633.299.424.119.787.299 1.029.478.18.18.302.42.302.658 0 .3-.06.479-.302.659-.242.179-.545.358-.908.418-.423.12-.846.18-1.33.18-1.089.06-1.996.06-2.843-.06-.423-.06-.786-.12-1.21-.3-.362-.12-.664-.299-.967-.538-.302-.24-.544-.539-.786-.897l-.181-.3-2.601.838.181.419c.303.658.726 1.196 1.21 1.675.544.419 1.089.778 1.693.958.666.238 1.21.418 1.936.418.665.06 1.33.12 2.056.12.665 0 1.451-.06 2.238-.12a6.462 6.462 0 0 0 2.177-.538c.665-.24 1.27-.659 1.754-1.137.483-.538.725-1.197.725-2.034 0-.659-.181-1.257-.544-1.735a3.08 3.08 0 0 0-1.27-1.018"/></g><g clip-path="url(#3qkca)"><path fill="#232d37" d="M79.41 17.952c.544.06 1.089.3 1.573.478.484.18.907.479 1.21.839.303.299.424.657.424.956v2.872c0 .419-.121.718-.424.958a3.5 3.5 0 0 1-1.21.778c-.484.179-.968.418-1.573.418-.545.12-.968.12-1.452.12-.666 0-1.331-.06-1.936-.24-.545-.12-1.09-.419-1.452-.657-.424-.3-.726-.659-.908-1.197-.242-.48-.363-1.017-.363-1.735 0-.658.121-1.197.363-1.675.182-.479.545-.898.908-1.197.423-.36.847-.598 1.452-.778.665 0 1.33-.12 1.936-.12.423 0 .847.06 1.452.18zm3.265-1.256c-.544-.419-1.149-.659-1.814-.838-1.936-.598-3.931-.538-5.685-.06-.907.3-1.694.659-2.359 1.197a5.574 5.574 0 0 0-1.572 1.974c-.424.778-.605 1.676-.605 2.693 0 1.077.181 1.974.605 2.751.423.778.907 1.437 1.633 1.915.665.539 1.451.838 2.358 1.077.907.24 1.815.36 2.843.36.423 0 .907-.061 1.39-.061.485-.06.908-.12 1.452-.3.424-.119.907-.298 1.33-.537.122-.06.303-.18.424-.24v.898h2.782V11.55h-2.782z"/></g><g clip-path="url(#3qkca)"><path fill="#232d37" d="M99.127 23.633l2.48.778-.06.06c-.424.717-.787 1.316-1.33 1.734a6.798 6.798 0 0 1-1.694 1.077c-.605.24-1.33.42-1.996.539-.726.06-1.391.12-2.177.12-1.028 0-1.936-.12-2.843-.36-.907-.299-1.693-.658-2.358-1.136-.726-.478-1.27-1.137-1.694-1.915-.484-.777-.665-1.674-.665-2.751 0-1.017.242-1.915.665-2.693a6.514 6.514 0 0 1 1.633-1.975c.665-.537 1.452-.897 2.359-1.196 1.754-.538 3.81-.599 5.564-.06.846.24 1.572.598 2.298 1.137.726.538 1.27 1.136 1.693 1.914.424.718.666 1.616.666 2.573v1.197H89.814c.12.3.242.658.423.957.182.359.545.718.968 1.017.423.3.907.538 1.451.658 1.028.24 2.238.24 3.206.12.483 0 .907-.18 1.33-.3.424-.178.786-.358 1.089-.657zm-9.315-3.35h8.713c-.121-.24-.242-.54-.424-.778-.242-.36-.544-.659-.968-.958-.363-.299-.847-.478-1.331-.598a6.984 6.984 0 0 0-3.146 0c-.484.18-.908.359-1.331.598-.303.3-.666.54-.969.958z"/></g><g clip-path="url(#3qkca)"><path fill="#64c800" d="M186.457 23.633l2.48.778-.06.06c-.424.717-.787 1.316-1.33 1.734a6.798 6.798 0 0 1-1.694 1.077c-.605.24-1.271.48-1.997.539-.725.06-1.39.12-2.176.12-1.029 0-1.936-.12-2.843-.36-.908-.299-1.693-.658-2.358-1.136-.726-.478-1.271-1.137-1.694-1.915-.484-.777-.665-1.674-.665-2.751 0-1.017.242-1.915.665-2.693a6.523 6.523 0 0 1 1.633-1.975c.665-.537 1.452-.897 2.359-1.196 1.753-.538 3.81-.599 5.564-.06.846.24 1.572.598 2.298 1.137.726.538 1.27 1.136 1.693 1.914.424.718.665 1.616.665 2.573v1.197h-11.853c.12.3.242.658.423.957.182.359.544.718.967 1.017.424.3.907.538 1.452.658 1.028.24 2.238.24 3.206.12.483 0 .907-.18 1.33-.3.424-.178.786-.358 1.089-.657zm-9.315-3.35h8.713c-.121-.24-.242-.54-.424-.778-.242-.36-.545-.659-.968-.958a3.804 3.804 0 0 0-1.331-.598 6.984 6.984 0 0 0-3.146 0c-.484.18-.908.359-1.331.598-.303.3-.666.54-.969.958z"/></g><g clip-path="url(#3qkca)"><path fill="#64c800" d="M13.305 0v2.573c1.573 1.974 8.225 8.376 8.225 12.504.06 4.966-4.052 8.974-9.072 8.974s-9.071-4.008-9.071-8.974c0-3.949 6.652-10.23 8.225-12.385V0C8.83 2.273 0 9.932 0 15.675c0 6.76 5.564 12.265 12.398 12.265s12.398-5.504 12.398-12.265C24.916 9.872 16.087 2.273 13.306 0"/></g></g></g></svg>