<svg xmlns="http://www.w3.org/2000/svg" width="34" height="34" viewBox="0 0 120 120">
    <defs>
        <linearGradient id="c4eta1" x1="60" x2="60" y1="0" y2="120" gradientUnits="userSpaceOnUse">
            <stop offset="0" stop-color="#d66efd" />
            <stop offset="1" stop-color="#842cc1" />
        </linearGradient>
        <clipPath id="c4etb1">
            <path d="M72.843 95H73l.004-.052C89.834 89.473 102 73.658 102 55c0-23.196-18.804-42-42-42S18 31.804 18 55c0 18.657 12.165 34.473 28.996 39.948L47 95h.157a41.17 41.17 0 0 1-.16-.052L44.243 58H75.84l-2.835 36.948a41.23 41.23 0 0 1-.16.052z" />
        </clipPath>
    </defs>
    <g>
        <path fill="url(#c4eta1)"
              d="M91.406 0C108.75 0 120 11.25 120 28.594v62.812C120 108.75 108.75 120 91.406 120H28.594C11.25 120 0 108.75 0 91.406V28.594C0 11.25 11.25 0 28.594 0h62.812z" />
    </g>
    <g>
        <path fill="#fff" d="M60 62c5.523 0 10-4.477 10-10s-4.477-10-10-10-10 4.477-10 10 4.477 10 10 10z" />
    </g>
    <g>
        <path fill="#fff"
              d="M69.795 72.243c1.142 7.937-2.856 28.312-2.856 28.312s-1.018 5.432-6.667 5.432H60V66c3.776.122 9.07 1.209 9.795 6.243zm-19.59.013c-1.142 7.937 2.856 28.312 2.856 28.312S54.08 106 59.728 106H60V66.013c-3.776.122-9.07 1.209-9.795 6.243z" />
    </g>
    
    <g />
    <g clip-path="url(#c4etb1)">
        <path fill="none"
              stroke="#fff"
              stroke-miterlimit="20"
              stroke-width="5"
              d="M59.97 80.8c14.083 0 25.5-11.417 25.5-25.5s-11.417-25.5-25.5-25.5-25.5 11.417-25.5 25.5 11.417 25.5 25.5 25.5z" />
    </g>
    <g clip-path="url(#c4etb1)">
        <path fill="none"
              stroke="#fff"
              stroke-miterlimit="20"
              stroke-width="5"
              d="M60 95c21.815 0 39.5-17.685 39.5-39.5S81.815 16 60 16 20.5 33.685 20.5 55.5 38.185 95 60 95z" />
    </g>
</svg>