<svg xmlns="http://www.w3.org/2000/svg" width="64" height="64" viewBox="0 0 40 40">
    <g>
        <path fill="#0066d9"
              d="M10.83 17.98c-.724 0-1.31.586-1.31 1.31v1.428c0 .724.586 1.31 1.31 1.31.723 0 1.31-.586 1.31-1.31V19.29c0-.724-.587-1.31-1.31-1.31" />
    </g>
    <g>
        <path fill="#4285f4"
              d="M29.17 17.98c-.724 0-1.31.586-1.31 1.31v1.428c0 .724.586 1.31 1.31 1.31.723 0 1.31-.586 1.31-1.31V19.29c0-.724-.587-1.31-1.31-1.31" />
    </g>
    <g>
        <path fill="#ea4335"
              d="M15.36 22.26c-.724 0-1.31.586-1.31 1.31v1.428a1.308 1.308 0 1 0 2.62 0V23.57c0-.724-.587-1.31-1.31-1.31" />
    </g>
    <g>
        <path fill="#ea4335"
              d="M15.36 13.69c-.724 0-1.31.586-1.31 1.31v4.672h.002a1.309 1.309 0 0 0 2.616 0h.001V15c0-.724-.586-1.31-1.31-1.31" />
    </g>
    <g>
        <path fill="#34a853"
              d="M24.64 13.69c-.724 0-1.31.586-1.31 1.31v1.428a1.308 1.308 0 1 0 2.62 0V15c0-.724-.587-1.31-1.31-1.31" />
    </g>
    <g>
        <path fill="#fab908"
              d="M20 9.52c-.724 0-1.31.586-1.31 1.31v1.428a1.308 1.308 0 1 0 2.62 0V10.83c0-.724-.587-1.31-1.31-1.31" />
    </g>
    <g>
        <path fill="#fab908"
              d="M20 26.43c-.724 0-1.31.586-1.31 1.31v1.428a1.308 1.308 0 1 0 2.62 0V27.74c0-.724-.587-1.31-1.31-1.31" />
    </g>
    <g>
        <path fill="#34a853"
              d="M24.64 19.05c-.724 0-1.31.586-1.31 1.31v4.642a1.308 1.308 0 1 0 2.62 0V20.36c0-.724-.587-1.31-1.31-1.31" />
    </g>
    <g>
        <path fill="#fab908" d="M21.31 16.19a1.31 1.31 0 1 0-2.62 0v7.619a1.309 1.309 0 1 0 2.62 0v-4.444z" />
    </g>
</svg>