<svg xmlns="http://www.w3.org/2000/svg" width="194" height="26" viewBox="0 0 336 44">
    <g>
        <path fill="#677380"
              d="M25.686 4.505c0 3.452-2.726 5.27-5.452 5.27v5.633l2.907 2.362v.182l-2.907 2.362v7.45c2-1.09 3.634-3.27 4.725-5.632h.363c0 5.996-4.725 11.812-11.994 11.812-6.723 0-12.72-5.452-12.72-12.721 0-6.18 4.906-11.267 10.358-12.721l.182.546c-1.999 1.09-3.998 2.725-4.725 5.088l9.086-3.998v12.539L8.06 26.31c1.998 2.18 4.361 2.908 7.087 2.908 1.453 0 3.09-.182 4.543-1.091v-7.814l-2.726-2.362v-.182l2.726-2.362V9.775c-1.454-.182-4.18-.727-6.724-1.454-2.908-.91-5.088-1.636-6.724-1.636-1.817 0-2.544 1.272-2.544 1.999 0 1.09.545 1.454.91 1.817l-.183.364c-.727-.364-2.726-1.272-2.726-3.998 0-3.09 2.544-5.815 6.18-5.815 1.816 0 3.997.727 6.36 1.635 1.998.727 4.724 1.454 5.996 1.454 1.635 0 2.181-1.09 2.181-1.817 0-1.272-1.272-1.817-2.908-1.817v-.545c2.726 0 6.18.908 6.18 4.543zm-15.81 8.722L6.06 14.863c-.364 1.09-.364 2.544-.364 3.816 0 3.089.727 5.27 2 6.905l2.18-1.09zM29.32 8.139c0-2-1.09-2.362-1.817-2.726V5.05l6.36-4.362h.364V15.59l5.088-3.817 4.543 3.817 1.454-1.091.363.364-1.636 1.272v11.993c0 8.905-4.724 10.54-9.812 10.359v-.546c3.09-1.09 4.543-2.18 4.543-9.086V17.77l-3.09-2.544-1.453 1.09v12.358l1.817 1.817 1.453-.91.182.365-5.45 3.634-3.999-3.634-1.09.908-.364-.363 2.362-1.817zm33.255 19.263l-8.177 6.542L48.22 29.4l-1.635 1.272-.364-.364 1.817-1.454V16.862l9.45-5.09 4.361 6.543v.182l-8.54 5.815v2.18l4.542 3.635 4.543-3.452zm-9.268-3.817l4.362-2.725-3.998-6.361-.364.182zM97.102 2.869c0 3.089-2.544 5.27-5.27 5.452v25.44h-1.09L76.204 8.322v18.172c2.363.363 3.453.909 5.452 2.726l1.272-1.454.363.363-5.27 5.816c-.908-1.091-2.18-2-3.634-2-1.454 0-2.544.727-2.544 2.363 0 1.272.91 2.18 2.907 2.362v.364c-3.27.182-6.178-1.454-6.178-4.907 0-3.634 3.09-5.815 6.905-5.815v-7.632h-.908c-1.272 0-1.999.727-1.999 1.635 0 .546.182.909.545 1.272v.364c-2.18-.545-2.908-2.726-2.908-4.18 0-2.726 2.181-4.18 5.452-4.18V7.595c-.545-.91-1.454-1.817-2.362-1.817-1.272 0-1.818 1.272-1.999 2.362h-.545c-.364-3.998 2.18-6.542 5.088-6.542 2.544 0 3.816 1.999 4.725 3.453l10.721 18.354V8.32c-2.544-.182-3.453-.91-4.543-1.817l-1.817 1.635-.364-.363 5.27-5.997c.727.727 1.818 1.635 3.453 1.635 1.817 0 2.544-.727 3.09-2.18h.363c.182.545.363 1.09.363 1.635zm13.266 23.806l.182.727-8.178 6.542-6.178-4.543-1.636 1.272-.363-.364 1.817-1.454V16.862l9.45-5.09 4.361 6.543v.182l-8.54 5.815v2.18l4.542 3.635zm-4.725-5.815l-3.998-6.361-.363.182v8.904zm34.346-7.088l.363.364-2.362 1.817v12.175l-9.632 5.634-5.088-3.09-4.543 3.09-4.179-3.635-1.818 1.454-.363-.363 2-1.454v-10.54c0-1.635-.91-2.362-1.818-3.271-.909-.91-1.818-1.635-1.818-3.453 0-3.452 3.817-4.906 5.27-4.906v.363c-.545.364-1.635.909-1.635 1.999 0 1.272.727 1.817 2 2.726 1.453.909 2.725 1.636 2.725 4.18v10.903l3.816 2.726.545-.364V17.043l-1.636-1.635 3.998-3.635 4.18 3.998-1.454.909v11.267l4.361 2.726v-13.63l-1.635-1.635 3.998-3.635 3.453 2.908zm33.8-9.994l.363.363-2.18 1.817V28.31c0 3.816-2.363 4.725-5.089 4.725-1.817 0-3.816-.545-5.996-1.09-1.999-.546-3.998-.727-5.634-.727-3.089 0-4.36 1.272-4.36 2.726 0 1.817 1.453 2.362 2.725 2.362.727 0 3.271-.364 5.815-.91 2.181-.362 5.27-.907 6.724-.907 2.907 0 5.633 1.635 5.633 4.36 0 2.727-1.817 4.544-4.725 5.089v-.363c.727-.182 1.272-.727 1.272-2 0-.908-.545-1.635-1.999-1.635-1.09 0-3.452.546-5.27.909-2.18.545-4.36.909-6.905.909-3.634 0-5.997-2.181-5.997-5.27 0-2.181 1.09-4.18 3.816-5.09V20.134h-.727c-1.453 0-2.362.363-2.362 1.453 0 .364.182.909.91 1.273v.363c-2.182 0-2.909-2.181-2.909-3.634 0-2.363 2-4.18 5.27-4.362V8.139c0-2.362-.909-3.09-1.999-3.09s-1.635.909-1.817 2h-.545c0-2.544 2.18-5.09 5.451-5.09 3.271 0 4.543 2.546 4.543 4.363l.364 24.532c1.272.364 2.907.727 3.453.727l-.182-29.44h.545V6.14l5.997-4.361 3.998 3.634zm-7.45 11.085V7.957l-2.545-2.362-1.817 1.272v7.996c.363.545 1.272 1.09 2.181 1.09.908 0 1.635-.545 2.18-1.09zm0 .727c-.364.363-1.273.908-2.18.908-.91 0-1.819-.545-2.182-.908v4.724c.363-.363 1.272-.908 2.181-.908.908 0 1.817.545 2.18.908zm0 5.45c-.546-.362-1.273-.907-2.18-.907-.91 0-1.819.545-2.182.908v10.722h1.454c2 0 2.907-1.454 2.907-2.908zm24.895 7.27l-9.086 5.452-5.815-4.361-1.454 1.09-.18-.364 1.816-1.453V16.862l8.904-5.09 5.815 4.18zm-5.27 2.18V17.59l-4.543-3.271v13.084zm22.534-18.353c-.182 2.907-1.636 5.452-4.18 5.27-1.272 0-2.362-.91-3.27-1.817v12.72l2.18 1.817 1.635-.908.182.363-5.633 3.816-4.362-3.634-1.09.909-.363-.364 2.362-1.817v-11.45l-1.817-1.998-1.454.909-.182-.363 5.452-3.635 3.09 3.453 3.088-3.453h.364c.363.545 1.272.909 2 .909.544 0 1.09-.364 1.634-.727zm21.806 17.445l-6.178 4.18-8.359-12.721 5.996-9.268h.364c.727.727 1.817 1.454 3.09 1.454 1.271 0 2.18-.727 2.725-1.454h.363c-.18 3.635-2.725 5.816-4.543 5.816-1.817 0-2.725-.91-3.816-1.454l-.545.908 9.086 13.448 1.817-1.09zm-19.989-.908V8.139c0-2.181-1.09-2.362-1.817-2.726V5.05L215.04.688h.181v27.986l1.818 1.817 1.453-.91.364.365-5.452 3.634-3.998-3.634-1.09.908-.363-.363zm50.155-24.17c0 3.453-2.726 5.27-5.45 5.27v5.452l2.724 2.363v.18l-2.907 2.364v7.45c2-1.09 3.634-3.271 4.725-5.633h.363c0 5.997-4.725 11.812-11.994 11.812-6.723 0-12.72-5.452-12.72-12.721 0-6.178 4.906-11.085 10.358-12.54l.182.365c-1.817 1.272-3.816 2.907-4.725 5.27l9.086-3.998v12.72l-7.45 3.635c1.998 2.18 4.361 2.908 7.087 2.908 1.453 0 3.09-.182 4.543-1.091v-7.814l-2.726-2.362v-.182l2.726-2.362V9.956c-1.454-.181-4.18-.727-6.724-1.454-2.908-.908-5.088-1.635-6.724-1.635-1.817 0-2.544 1.272-2.544 1.999 0 1.09.545 1.454 1.091 1.817l-.182.364c-.727-.364-2.726-1.272-2.726-3.998 0-3.09 2.544-5.815 6.178-5.815 1.818 0 3.998.726 6.361 1.453 2 .727 4.725 1.454 5.997 1.454 1.635 0 2.18-1.09 2.18-1.817 0-1.272-1.272-1.817-2.907-1.817v-.545c2.726 0 6.178.908 6.178 4.543zm-15.628 8.723l-3.816 1.636c-.363 1.09-.545 2.544-.545 3.816 0 3.089.727 5.27 2 6.905l2.18-1.09zm21.988-10.54l3.271 3.453v.182l-3.634 3.089h-.363l-3.09-3.453v-.181l3.635-3.09zm5.452 26.895l.182.545-5.452 3.635-3.998-3.635-1.272.909-.18-.363 2.361-1.818V17.043l-1.636-2-1.272.91-.363-.545 5.27-3.635 3.271 3.817 1.272-1.091.363.364-1.817 1.272v12.539l1.817 1.817zm30.348-.181v.545l-5.634 3.816-4.179-3.816 1.272-1.272V17.77l-2.908-2.544-1.454.909v11.993l1.636 1.636-3.998 3.634-4.18-3.452 1.454-1.454V17.589l-2.726-2.545-1.635 1.09v12.358l1.635 1.635-3.997 3.635-4.18-3.453 1.454-1.454V17.043l-1.818-2-1.272.91-.18-.545 5.27-3.635 3.27 3.817 5.088-3.817 4.18 3.817 5.451-3.817 4.18 3.817 1.453-1.272.364.363-1.817 1.454v12.357l2 1.817zm15.991-2.181l-8.177 6.542-6.36-4.543V16.862l9.45-5.09 4.36 6.543v.182l-8.54 5.815v2.18l4.542 3.635 4.544-3.452zm-4.906-6.36l-3.998-6.361-.364.182v8.904zm21.443 1.09v6.542l-7.814 4.725c-.545-.546-1.636-1.818-3.453-1.818-1.454 0-2.18.909-2.18 1.454 0 .909.363 1.09.726 1.454l-.18.363c-1.455-.545-2.364-1.817-2.364-3.634 0-1.454.545-3.271 3.635-5.997l-3.09-2.362v-6.542l8.178-4.543c.91 1.09 1.817 1.817 3.271 1.817s2.181-.91 2.544-1.817h.363v1.09c0 1.817-.908 4.543-3.27 6.542l3.452 2.726zm-2.18-5.452c-.909.545-1.636.727-2.908.727-1.999 0-3.998-1.454-4.725-3.271v6.36l2 1.636c1.634-1.09 4.36-3.271 5.632-5.452zm-3.272 7.996l-2.18-1.817c-3.09 1.817-5.452 4.36-6.36 5.815 1.453-.91 2.907-.91 3.452-.91 2.181 0 4.361 1.455 5.27 3.454z" />
    </g>
</svg>