<svg xmlns="http://www.w3.org/2000/svg" xmlns:xlink="http://www.w3.org/1999/xlink" version="1.1" id="Layer_1" x="0px" y="0px" width="24px" height="24px" viewBox="0 0 24 24" style="enable-background:new 0 0 24 24;" xml:space="preserve">
<style type="text/css">
	.st0{fill:#c3c8cd;}
	.st1{fill:none;}
</style>
    <g>
	<path class="st0" d="M15.5,14h-0.79l-0.2799997-0.2700005C15.4099998,12.5900002,16,11.1099997,16,9.5   C16,5.9099998,13.0900002,3,9.5,3S3,5.9099998,3,9.5S5.9099998,16,9.5,16c1.6099997,0,3.0900002-0.5900002,4.2299995-1.5699997   L14,14.71v0.79l5,4.9899998L20.4899998,19L15.5,14z M9.5,14C7.0100002,14,5,11.9899998,5,9.5S7.0100002,5,9.5,5   S14,7.0100002,14,9.5S11.9899998,14,9.5,14z"/>
        <path class="st1" d="M0,0h24v24H0V0z"/>
</g>
</svg>