<svg xmlns="http://www.w3.org/2000/svg" xmlns:xlink="http://www.w3.org/1999/xlink" version="1.1" id="Layer_1" x="0px" y="0px" width="24px" height="24px" viewBox="0 0 24 24" style="enable-background:new 0 0 24 24;" xml:space="preserve">
<style type="text/css">
	.st0{fill:none;}
	.st1{fill:#00aaff;}
</style>
    <path class="st0" d="M0-0.000015h24v24H0V-0.000015z"/>
    <path class="st1" d="M11,6.999985h2v2h-2V6.999985z M11,10.999986h2v5.999999h-2V10.999986z M12,1.999985c-5.52,0-10,4.48-10,10  s4.48,9.999999,10,9.999999s10-4.48,10-9.999999S17.52,1.999985,12,1.999985z M12,19.999985c-4.41,0-8-3.59-8-7.999999s3.59-8,8-8  s8,3.59,8,8S16.41,19.999985,12,19.999985z"/>
</svg>