<svg xmlns="http://www.w3.org/2000/svg" width="60px" height="60px" viewBox="0 0 60 60" xml:space="preserve">
<rect x="2.1" y="1.6" fill="#BABCBE" width="55.9" height="55.9" />
  <path fill="#14A0D1" d="M40.6,15.5H19.3v-3H15v36.2h29.8V12.5h-4.3L40.6,15.5z M26,17.6l-5.1,5.9l-2.3-2.3l0.8-0.8l1.5,1.4l4.4-5
    L26,17.6z M17,31.9L17,31.9v-3.1h5.5l-1,1.1h-1.8h-0.9h-0.8v0.8v2.3v1.9h2h1.6H23v-1.6l1.1-1.3v4H17V31.9z M25.2,38l0.8,0.7
    l-5.1,5.9l-2.3-2.3l0.8-0.8l1.5,1.4L25.2,38z M20.9,34.1l-2.3-2.3l0.8-0.8l1.5,1.4l4.4-5l0.8,0.7L20.9,34.1z M17,18.2h5.5l-1,1.1
    h-1.8h-0.9h-0.8v0.8v2.3v1.9h2h1.6H23v-1.6l1.1-1.3v4H17v-4.1v0V18.2z M24.2,46.6H17v-4.1v0v-3.1h5.5l-1,1.1h-1.8h-0.9h-0.8v0.8v2.3
    v1.9h2h1.6H23v-1.6l1.1-1.3V46.6z M41.8,42.8H26v-1.1h15.8V42.8z M41.8,32.2H26v-1.1h15.8V32.2z M41.8,22.4H26v-1.1h15.8V22.4z" />
  <path d="M40.5,11.4c-0.2-1.3-1.4-2.3-2.7-2.3h-4.6c-0.2-1.6-1.6-2.8-3.3-2.8s-3.1,1.2-3.3,2.8h-4.6c-1.3,0-2.5,1-2.7,2.3h-5.4v38.4
    H46V11.4H40.5z M44.9,48.7H15V12.5h4.3v3h21.3l0-3h4.3V48.7z M22.1,10.3h5.7l0-0.6l0-0.1c0-1.2,1-2.2,2.2-2.2c1.2,0,2.2,1,2.2,2.2
    l0,0.6h5.7c0.9,0,1.6,0.7,1.6,1.6l0,2.5H20.4v-2.5C20.4,11,21.1,10.3,22.1,10.3z" />
  <path fill="#14A0D1" d="M20.4,14.4h19.1l0-2.5c0-0.9-0.7-1.6-1.6-1.6h-5.7l0-0.6c0-1.2-1-2.2-2.2-2.2c-1.2,0-2.2,1-2.2,2.2l0,0.1
    l0,0.6h-5.7c-0.9,0-1.6,0.7-1.6,1.6V14.4z" />
  <path d="M1,58.5h58v-58H1V58.5z M3.1,2.6h53.7v53.7H3.1V2.6z" />
  <polygon fill="#FFFFFF" points="40.6,15.5 19.3,15.5 19.3,12.5 15,12.5 15,48.7 44.9,48.7 44.9,12.5 40.6,12.5 " />
  <rect x="26" y="21.3" width="15.8" height="1.1" />
  <rect x="26" y="31.1" width="15.8" height="1.1" />
  <rect x="26" y="41.7" width="15.8" height="1.1" />
  <rect x="17" y="18.2" fill="#80C242" width="7.2" height="7.2" />
  <rect x="17" y="28.8" fill="#80C242" width="7.2" height="7.2" />
  <rect x="17" y="39.3" fill="#80C242" width="7.2" height="7.2" />
  <polygon points="17,25.4 24.2,25.4 24.2,21.4 23,22.7 23,24.3 21.7,24.3 20.1,24.3 18.1,24.3 18.1,22.4 18.1,20.1 18.1,19.3
    18.8,19.3 19.7,19.3 21.5,19.3 22.5,18.2 17,18.2 17,21.3 17,21.3 " />
  <polygon points="19.3,20.5 18.5,21.3 20.9,23.5 26,17.6 25.2,16.9 20.8,21.9 " />
  <polygon points="24.2,32 23,33.3 23,34.9 21.7,34.9 20.1,34.9 18.1,34.9 18.1,32.9 18.1,30.7 18.1,29.9 18.8,29.9 19.7,29.9
    21.5,29.9 22.5,28.8 17,28.8 17,31.8 17,31.9 17,36 24.2,36 " />
  <polygon points="25.2,27.4 20.8,32.5 19.3,31 18.5,31.8 20.9,34.1 26,28.1 " />
  <polygon points="23,45.5 21.7,45.5 20.1,45.5 18.1,45.5 18.1,43.5 18.1,41.3 18.1,40.5 18.8,40.5 19.7,40.5 21.5,40.5 22.5,39.4
    17,39.4 17,42.4 17,42.5 17,46.6 24.2,46.6 24.2,42.6 23,43.9 " />
  <polygon points="19.3,41.6 18.5,42.4 20.9,44.7 26,38.7 25.2,38 20.8,43.1 " />
</svg>
