<svg xmlns="http://www.w3.org/2000/svg" width="60px" height="60px" viewBox="0 0 60 60" xml:space="preserve">
<rect x="2.1" y="1.6" fill="#8AC440" width="56.3" height="56.3" />
  <path d="M1,59h58.5V0.5H1V59z M3.2,2.7h54.2v54.2H3.2V2.7z" />
  <path fill="#F1716C" d="M28.8,19.8l8.2,3.3l3.1-7.6l-8.2-3.3c-1-0.4-2.1-0.4-3.1,0c-1,0.4-1.8,1.2-2.2,2.2
    C25.7,16.5,26.7,18.9,28.8,19.8z" />
  <path d="M50,28c1.3-0.6,2.3-1.6,2.9-2.9c0.5-1.3,0.5-2.8,0-4.1c-0.6-1.3-1.6-2.3-2.9-2.9L32.3,11c-1.3-0.5-2.8-0.5-4.1,0
    s-2.3,1.6-2.9,2.9c-0.3,0.6-0.4,1.3-0.4,2c0,0.7,0.1,1.4,0.4,2.1c0.6,1.3,1.6,2.3,2.9,2.9l17.6,7.2C47.2,28.6,48.7,28.6,50,28z
     M26.5,14.4c0.4-1,1.2-1.8,2.2-2.2c1-0.4,2.1-0.4,3.1,0l8.2,3.3L37,23.1l-8.2-3.3C26.7,18.9,25.7,16.5,26.5,14.4z M46.4,26.9
    l-8.2-3.3l3.1-7.6l8.2,3.3C51,20,52,21.5,52,23.1c0,0.5-0.1,1-0.3,1.5c-0.4,1-1.2,1.8-2.2,2.2C48.5,27.3,47.4,27.3,46.4,26.9z" />
  <path d="M31.1,35.6c2.4-1.7,2.9-5.1,1.2-7.4c-0.8-1.1-2.1-1.9-3.5-2.1c-1.4-0.2-2.8,0.1-4,0.9L9.5,38.1c-1.2,0.8-1.9,2.1-2.1,3.5
    c0,0.3-0.1,0.6-0.1,0.9c0,1.1,0.3,2.2,1,3.1c0.8,1.2,2.1,1.9,3.5,2.1c1.4,0.2,2.8-0.1,4-0.9L31.1,35.6z M28.6,27.2
    c1.1,0.2,2,0.8,2.7,1.6c0.5,0.7,0.8,1.6,0.8,2.4c0,1.3-0.6,2.5-1.7,3.3l-7.2,5.2l-4.8-6.6l7.2-5.2C26.5,27.3,27.6,27.1,28.6,27.2z" />
  <path fill="#FFFFFF" d="M49.4,19.3L41.2,16l-3.1,7.6l8.2,3.3c1,0.4,2.1,0.4,3.1,0c1-0.4,1.8-1.2,2.2-2.2c0.2-0.5,0.3-1,0.3-1.5
    C52,21.5,51,20,49.4,19.3z" />
  <path fill="#FFFFFF" d="M17.4,33.9L10.2,39c-0.9,0.6-1.5,1.6-1.6,2.7c-0.2,1.1,0.1,2.2,0.7,3.1c0.6,0.9,1.6,1.5,2.7,1.6
    c1.1,0.2,2.2-0.1,3.1-0.7l7.2-5.2L17.4,33.9z" />
  <path fill="#FFFFFF" d="M30.4,34.6c1.1-0.8,1.7-2.1,1.7-3.3c0-0.8-0.3-1.7-0.8-2.4c-0.6-0.9-1.6-1.5-2.7-1.6
    c-1.1-0.2-2.2,0.1-3.1,0.7l-7.2,5.2l4.8,6.6L30.4,34.6z" />
  <path fill="#FFFFFF" d="M43.7,33.5v14.1c3.6-0.3,6.5-3.3,6.5-7C50.2,36.9,47.3,33.8,43.7,33.5z" />
  <path fill="#FFFFFF" d="M42.5,47.6V33.5c-3.6,0.3-6.5,3.3-6.5,7C36,44.2,38.9,47.3,42.5,47.6z" />
  <path d="M34.8,40.5c0,4.6,3.7,8.3,8.3,8.3s8.3-3.7,8.3-8.3s-3.7-8.3-8.3-8.3S34.8,36,34.8,40.5z M36,40.5c0-3.7,2.8-6.7,6.5-7v14.1
    C38.9,47.3,36,44.2,36,40.5z" />
  <path fill="#3E95B3" d="M50,40.6c0,3.6-2.8,6.6-6.3,6.9V33.7C47.2,34,50,37,50,40.6z" />
  <path fill="#F9DB00" d="M15,45.7l7.3-5.3l-4.9-6.7L10.1,39c-0.9,0.7-1.5,1.6-1.6,2.7c-0.2,1.1,0.1,2.2,0.8,3.1
    C10.5,46.7,13.1,47.1,15,45.7z" />
</svg>
