<svg xmlns="http://www.w3.org/2000/svg" width="60px" height="60px" viewBox="0 0 60 60" xml:space="preserve">
<path d="M38.4,28.2c-1.7-0.2-3.4,0.5-4.3,2.1c-0.4,0.8,0.8,1.5,1.2,0.7c1.7-3,5.1-0.8,6.1,1.4c0.4,0.8,1.6,0.1,1.2-0.7
    C41.8,29.9,40.3,28.4,38.4,28.2z" />
  <rect x="1.5" y="1.5" fill="#F1716C" width="56.4" height="56.4" />
  <path fill="none" d="M46.6,29.4c-1.1,0-2.1-0.6-2.8-1.5c-1.1-1.4-1.1-3.3-0.9-4.9c0.1-0.9,1.5-0.5,1.3,0.4C44,25.2,44.5,28.4,47,28
    c0.2-1,0.3-2.1,0.2-3.2c-0.3-3-2.3-5.7-5.7-8c-1.8-0.2-3.3,1.4-2.9,3.2c0.2,0.9-1.2,1.2-1.3,0.4c-0.5-2.5,1.2-4.7,3.5-4.9
    c-0.2-0.9-0.8-2.8-2.9-4.7c-1.3-1.2-3.3-2-5.3-2.2l0,3.1c1.6-0.6,3.4-0.2,4.5,1.1c0.6,0.7-0.4,1.7-1,1c-0.9-1-2.3-1.3-3.4-0.6
    c0,0-0.1,0-0.1,0l0.1,25.9c0.1,0,0.1,0.1,0.2,0.1c1.5,1.3,2.9-1.1,3.5-2.2c0.4-0.8,1.6-0.1,1.2,0.7c-0.6,1.1-1.4,2.3-2.6,2.9
    c-0.8,0.3-1.6,0.4-2.3,0l0,10.1c1.6,0.2,3.2-0.5,4.4-1.8c0-0.1,0.1-0.2,0.2-0.4c1.2-1.6-0.3-3.3-1.7-4c-0.8-0.4-0.1-1.6,0.7-1.2
    c1.4,0.7,2.5,2.1,2.7,3.5c0.4-0.1,1.4-0.4,1.9-1.3c0.6-0.9,0.6-2.1,0.2-3.7L41,41.5l0.6-0.2c0,0,1.4-0.5,1.9-1.9
    c0.4-1,0.2-2.2-0.4-3.6l-0.2-0.4l0.3-0.3C43.2,35,45.4,32.6,46.6,29.4z M41.4,32.3c-1.1-2.2-4.5-4.4-6.1-1.4
    c-0.4,0.8-1.6,0.1-1.2-0.7c0.9-1.5,2.6-2.3,4.3-2.1c1.9,0.3,3.4,1.8,4.2,3.5C43,32.4,41.8,33.1,41.4,32.3z" />
  <path d="M48.6,24.7c-0.4-3.3-2.4-6.3-6-8.8c-0.1-0.2-0.2-0.3-0.4-0.4c-0.1-1-0.8-3.4-3.4-5.8c-1.7-1.6-4.3-2.6-7-2.6l-0.7,0L31.3,52
    l0.5,0.1c0.5,0.1,0.9,0.2,1.4,0.2c2.4,0,4.6-1.4,6.1-3.8c0.6-0.1,1.9-0.6,2.8-1.8c0.7-1.1,0.9-2.6,0.5-4.3c0.6-0.4,1.6-1.1,2.1-2.4
    c0.5-1.3,0.4-2.7-0.3-4.3C45.6,34.3,49.2,29.9,48.6,24.7z M43,35.8c0.7,1.4,0.8,2.6,0.4,3.6c-0.5,1.3-1.9,1.9-1.9,1.9L41,41.5
    l0.2,0.6c0.5,1.6,0.4,2.8-0.2,3.7c-0.6,0.9-1.5,1.2-1.9,1.3c-0.2-1.5-1.3-2.8-2.7-3.5c-0.8-0.4-1.5,0.8-0.7,1.2
    c1.4,0.7,2.9,2.4,1.7,4c-0.1,0.1-0.1,0.2-0.2,0.4c-1.3,1.3-2.8,2-4.4,1.8l0-10.1c0.7,0.3,1.5,0.3,2.3,0c1.2-0.5,2-1.7,2.6-2.9
    c0.4-0.8-0.8-1.5-1.2-0.7c-0.6,1-2,3.4-3.5,2.2c-0.1-0.1-0.1-0.1-0.2-0.1l-0.1-25.9c0,0,0.1,0,0.1,0c1.2-0.7,2.6-0.4,3.4,0.6
    c0.6,0.7,1.6-0.3,1-1c-1.1-1.3-3-1.7-4.5-1.1l0-3.1c2,0.2,4.1,1,5.3,2.2c2.1,1.9,2.7,3.8,2.9,4.7c-2.3,0.3-4,2.4-3.5,4.9
    c0.2,0.9,1.5,0.5,1.3-0.4c-0.4-1.8,1.1-3.4,2.9-3.2c3.4,2.3,5.4,5,5.7,8c0.1,1.1,0,2.2-0.2,3.2c-2.5,0.4-3-2.9-2.7-4.7
    c0.1-0.9-1.2-1.2-1.3-0.4c-0.2,1.7-0.2,3.5,0.9,4.9c0.7,0.9,1.7,1.4,2.8,1.5c-1.2,3.2-3.4,5.5-3.5,5.6l-0.3,0.3L43,35.8z" />
  <polygon points="19.3,37.9 19.1,37.5 25.4,33.9 31.1,33.9 31.1,34.3 25.5,34.3 " />
  <rect x="15.4" y="29.6" width="15.7" height="0.5" />
  <rect x="27.2" y="42.2" width="4.6" height="0.5" />
  <path d="M25,41.1c0.7,0,1.3,0.6,1.3,1.3c0,0.7-0.6,1.3-1.3,1.3c-0.7,0-1.3-0.6-1.3-1.3C23.7,41.7,24.3,41.1,25,41.1 M25,39.8
    c-1.5,0-2.7,1.2-2.7,2.7s1.2,2.7,2.7,2.7c1.5,0,2.7-1.2,2.7-2.7S26.5,39.8,25,39.8L25,39.8z" />
  <path d="M13.5,28.5c0.7,0,1.3,0.6,1.3,1.3c0,0.7-0.6,1.3-1.3,1.3c-0.7,0-1.3-0.6-1.3-1.3C12.1,29.1,12.7,28.5,13.5,28.5 M13.5,27.1
    c-1.5,0-2.7,1.2-2.7,2.7c0,1.5,1.2,2.7,2.7,2.7c1.5,0,2.7-1.2,2.7-2.7C16.2,28.3,15,27.1,13.5,27.1L13.5,27.1z" />
  <path d="M17.5,37.6c0.7,0,1.3,0.6,1.3,1.3c0,0.7-0.6,1.3-1.3,1.3c-0.7,0-1.3-0.6-1.3-1.3C16.2,38.2,16.8,37.6,17.5,37.6 M17.5,36.2
    c-1.5,0-2.7,1.2-2.7,2.7s1.2,2.7,2.7,2.7c1.5,0,2.7-1.2,2.7-2.7S19,36.2,17.5,36.2L17.5,36.2z" />
  <polygon points="31.1,25.5 25.4,25.5 19.1,21.8 19.3,21.4 25.5,25 31.1,25 " />
  <rect x="27.2" y="16.6" width="4.6" height="0.5" />
  <path d="M25,15.5c0.7,0,1.3,0.6,1.3,1.3s-0.6,1.3-1.3,1.3c-0.7,0-1.3-0.6-1.3-1.3S24.3,15.5,25,15.5 M25,14.2
    c-1.5,0-2.7,1.2-2.7,2.7c0,1.5,1.2,2.7,2.7,2.7c1.5,0,2.7-1.2,2.7-2.7C27.7,15.4,26.5,14.2,25,14.2L25,14.2z" />
  <path fill="#FDDB00" d="M17.5,18.7c0.7,0,1.3,0.6,1.3,1.3c0,0.7-0.6,1.3-1.3,1.3c-0.7,0-1.3-0.6-1.3-1.3
    C16.2,19.3,16.8,18.7,17.5,18.7" />
  <path fill="#14A0D1"
        d="M25,15.5c0.7,0,1.3,0.6,1.3,1.3c0,0.7-0.6,1.3-1.3,1.3c-0.7,0-1.3-0.6-1.3-1.3C23.7,16.1,24.3,15.5,25,15.5" />
  <path fill="#80C242" d="M13.5,28.5c0.7,0,1.3,0.6,1.3,1.3c0,0.7-0.6,1.3-1.3,1.3c-0.7,0-1.3-0.6-1.3-1.3
    C12.1,29.1,12.7,28.5,13.5,28.5" />
  <path fill="#FDDB00" d="M17.5,37.6c0.7,0,1.3,0.6,1.3,1.3c0,0.7-0.6,1.3-1.3,1.3c-0.7,0-1.3-0.6-1.3-1.3
    C16.2,38.2,16.8,37.6,17.5,37.6" />
  <path fill="#14A0D1"
        d="M25,41.1c0.7,0,1.3,0.6,1.3,1.3c0,0.7-0.6,1.3-1.3,1.3c-0.7,0-1.3-0.6-1.3-1.3C23.7,41.7,24.3,41.1,25,41.1" />
  <path d="M17.5,18.7c0.7,0,1.3,0.6,1.3,1.3c0,0.7-0.6,1.3-1.3,1.3c-0.7,0-1.3-0.6-1.3-1.3C16.2,19.3,16.8,18.7,17.5,18.7 M17.5,17.3
    c-1.5,0-2.7,1.2-2.7,2.7s1.2,2.7,2.7,2.7c1.5,0,2.7-1.2,2.7-2.7S19,17.3,17.5,17.3L17.5,17.3z" />
  <path d="M59,0.4H0.4V59H59V0.4z M56.8,56.8H2.6V2.6h54.3V56.8z" />
  <path fill="#FFFFFF" d="M41.5,16.9c-1.8-0.2-3.3,1.4-2.9,3.2c0.2,0.9-1.2,1.2-1.3,0.4c-0.5-2.5,1.2-4.7,3.5-4.9
    c-0.2-0.9-0.8-2.8-2.9-4.7c-1.3-1.2-3.3-2-5.3-2.2l0,3.1c1.6-0.6,3.4-0.2,4.5,1.1c0.6,0.7-0.4,1.7-1,1c-0.9-1-2.3-1.3-3.4-0.6
    c0,0-0.1,0-0.1,0l0.1,25.9c0.1,0,0.1,0.1,0.2,0.1c1.5,1.3,2.9-1.1,3.5-2.2c0.4-0.8,1.6-0.1,1.2,0.7c-0.6,1.1-1.4,2.3-2.6,2.9
    c-0.8,0.3-1.6,0.4-2.3,0l0,10.1c1.6,0.2,3.2-0.5,4.4-1.8c0-0.1,0.1-0.2,0.2-0.4c1.2-1.6-0.3-3.3-1.7-4c-0.8-0.4-0.1-1.6,0.7-1.2
    c1.4,0.7,2.5,2.1,2.7,3.5c0.4-0.1,1.4-0.4,1.9-1.3c0.6-0.9,0.6-2.1,0.2-3.7L41,41.5l0.6-0.2c0,0,1.4-0.5,1.9-1.9
    c0.4-1,0.2-2.2-0.4-3.6l-0.2-0.4l0.3-0.3c0,0,2.3-2.4,3.5-5.6c-1.1,0-2.1-0.6-2.8-1.5c-1.1-1.4-1.1-3.3-0.9-4.9
    c0.1-0.9,1.5-0.5,1.3,0.4C44,25.2,44.5,28.4,47,28c0.2-1,0.3-2.1,0.2-3.2C46.9,21.8,45,19.2,41.5,16.9z" />
</svg>
