<?xml version="1.0" encoding="utf-8"?><!-- Generator: Adobe Illustrator 21.0.2, SVG Export Plug-In . SVG Version: 6.00 Build 0)  -->
<svg version="1.1"
     id="Layer_1"
     xmlns="http://www.w3.org/2000/svg"
     x="0px"
     y="0px"
     viewBox="0 0 120 120"
     enable-background="new 0 0 120 120"
     xml:space="preserve">
<title>boot</title>
    <g id="Layer_2">
    <g id="Desktop-Step_3">
        <path fill="#FFFFFF" d="M101.8,73.3l-9.4-3.8c-2.2-1-4-2.8-5-5c-6.6-19.9-11.3-34-11.3-34c-0.1-0.3-0.4-0.5-0.7-0.5
            c-0.4,0-9.3-0.4-13.2,4.8c-1.8-1.6-3.3-3.6-4.4-5.8c-0.4-1-0.4-2.1-0.1-3.1v-0.3c0.1-1.5,0.2-3.3-1-4.8c-1.1-1.2-2.8-1.8-5.4-1.8
            h-0.3c-9.8,0-18.1,5.3-24,15.3c-0.1,0.1-0.1,0.2-0.2,0.3L25.8,35c-2.6,1.3-5.6,2.8-6.7,3.5c-1.9,1.7-2.5,4.4-1.4,6.7
            c2.3,4.2,9,14.5,20.5,19.8c2.6,1.2,8.9,5.4,8.9,5.4c2.5,2,4.7,4.3,6.8,6.7l1.3,1.7c0.2,0.3,0.7,0.4,1,0.2c2.2,2.8,3.9,5.4,5.5,7.4
            c-0.2,0.3-0.2,0.8,0.1,1.1l1.7,1.4c3.1,2.5,6.7,4.2,10.6,4.8l2.2,0.4c4.3,0.5,8.5,0.7,12.8,0.6h2.2c16.7,0,20.4-10.6,20.4-13.2
            C111.8,75.8,102.8,73.5,101.8,73.3z M43.2,54.2L43.2,54.2L43.2,54.2z" />
        <polygon fill="#84D1F5" points="47.2,41.5 45.7,47.3 42.8,53.7 42.8,55.6 47.8,60.5 52.5,62.5 57.2,65.4 61.8,68.9 65.7,74.7
            67,77 68.8,75.8 68.2,62.1 64,51.7 52.8,43.3" />
        <path fill="#E0E3E5" d="M108.6,77c-9.9,14.3-35.4,9.1-39.9,1.7c-2.5-4-6.3-11.9-17.4-16.9S26.9,35,26.9,35
            c-2.7,1.4-6.8,3.4-8.1,4.2c-1.6,1.5-2.1,3.8-1.2,5.8c3.3,5.9,10.1,15,20.5,19.8c2.7,1.3,9.3,5.6,9.3,5.6c2.6,2.1,4.9,4.4,7,6.9
            l1.4,1.7c2.6,3.4,4.6,6.5,6.6,8.7l1.7,1.5c3,2.4,6.6,4.1,10.4,4.7l2.2,0.4C81,94.8,85.4,95,89.7,95h2.2
            c16.4,0,20.5-11.8,20.5-14.4L108.6,77z" />
        <path fill="#37414C" d="M91.9,95.4h-2.2c-4.3,0.1-8.7-0.2-13-0.6l-2.3-0.4c-3.9-0.7-7.7-2.4-10.8-4.9L61.9,88
            c-0.3-0.3-0.3-0.8-0.1-1.1c0.3-0.3,0.8-0.3,1.1-0.1l1.7,1.5c2.9,2.3,6.4,3.9,10.1,4.5l2.2,0.4c4.3,0.5,8.5,0.7,12.8,0.6h2.2
            c15.7,0,19.2-9.5,19.2-11.9c0-4.1-6.7-6.4-9-6.9h-0.1l-9.6-3.9c-2.7-1.2-4.8-3.3-6-6C80.4,47.1,76,33.7,75.1,31
            c-2,0-9.4,0.3-12,4.9c-0.1,0.2-0.3,0.3-0.5,0.4c-0.2,0-0.4,0-0.6-0.2c-2.3-1.9-4.2-4.3-5.6-7c-0.5-1.3-0.6-2.7-0.3-4v-0.2
            c0.1-1.4,0.2-2.7-0.7-3.8s-2.1-1.3-4.3-1.3h-0.3c-9.4,0-17.4,5.1-23.1,14.9l-0.1,0.1c0,0.1-0.1,0.2-0.1,0.3
            c-0.1,0.1-0.2,0.3-0.3,0.3l-1.4,0.7c-2.5,1.2-5.6,2.8-6.6,3.5c-1.3,1.2-1.7,3.2-0.9,4.8c2.3,4.1,8.8,14.3,20.2,19.4
            c2.8,1.3,9.1,5.4,9.4,5.6c2.6,2.1,5.1,4.5,7.3,7.1l1.4,1.7c0.3,0.3,0.2,0.8-0.1,1.1c-0.3,0.3-0.8,0.2-1.1-0.1c0,0,0,0,0,0
            l-1.4-1.7c-2.1-2.5-4.4-4.8-6.9-6.8c0,0-6.5-4.3-9.1-5.5c-11.7-5.3-18.5-15.8-20.9-20.1c-1.1-2.3-0.5-5.1,1.4-6.8
            c1.1-0.7,4.1-2.2,6.8-3.6l1.2-0.6c0-0.1,0.1-0.2,0.2-0.3c6-10.2,14.5-15.6,24.4-15.6h0.3c2.6,0,4.3,0.6,5.4,1.8
            c1.3,1.5,1.2,3.3,1.1,4.9v0.3c-0.3,1.1-0.2,2.2,0.1,3.2c1.1,2.3,2.6,4.3,4.5,5.9c3.8-5.3,13-4.9,13.4-4.9c0.3,0,0.6,0.2,0.7,0.5
            c0,0,4.8,14.4,11.5,34.6c1,2.3,2.9,4.1,5.2,5.1l9.5,3.9c0.9,0.2,10.1,2.5,10.1,8.4C112.6,84.7,108.9,95.4,91.9,95.4z M27.6,34.8
            L27.6,34.8z" />
        <path fill="#37414C" d="M75.5,41.7c-9.4,0-13.5-5.5-13.7-5.7c-0.2-0.4,0-0.8,0.3-1c0.3-0.1,0.6-0.1,0.8,0.1l0,0
            c0.2,0.3,4.8,6.4,15.8,4.9c0.4-0.1,0.8,0.2,0.8,0.6c0.1,0.4-0.2,0.8-0.6,0.8C77.8,41.6,76.7,41.7,75.5,41.7z" />
        <path fill="#37414C" d="M88.8,87h-0.9c-8.5-0.2-17.2-3.8-19.9-8.1c-0.2-0.4-0.5-0.8-0.8-1.3c-2.4-4.1-6.5-11-16.3-15.3
            C46,60.1,40.3,54.6,33.7,46c-0.2-0.3-0.1-0.8,0.2-1c0.3-0.2,0.7-0.2,1,0.1c6.3,8.3,12.1,13.7,16.6,15.8c10.3,4.6,14.5,11.7,17,16
            c0.3,0.4,0.5,0.9,0.8,1.3c2.1,3.4,9.6,7.1,18.6,7.4c4.9,0.1,13.9-0.8,19.2-8.4c0.2-0.3,0.7-0.4,1-0.2c0.3,0.2,0.4,0.7,0.2,1
            C103,85.7,94.1,87,88.8,87z" />
        <path fill="#37414C" d="M30.4,40.9c-0.2,0-0.5-0.1-0.6-0.3c-2.2-3.2-3.6-5.4-3.6-5.5c-0.2-0.4-0.1-0.8,0.3-1
            c0.3-0.2,0.8-0.1,1,0.2c0,0,1.4,2.3,3.5,5.4c0.2,0.3,0.2,0.8-0.2,1C30.7,40.8,30.5,40.9,30.4,40.9L30.4,40.9z" />
        <path fill="#37414C" d="M41.9,54.7c-0.4,0-0.8-0.3-0.8-0.7c0-0.2,0.1-0.4,0.2-0.5c8.4-9.1,5.6-33.8,5.6-34c0-0.4,0.3-0.8,0.7-0.8
            c0.4,0,0.8,0.2,0.8,0.6c0.1,1,2.9,25.6-6,35.3C42.3,54.7,42.1,54.7,41.9,54.7z" />
        <path fill="#37414C" d="M68.6,79.2L68.6,79.2c-0.5,0-0.8-0.4-0.8-0.8c0-0.1,1.4-12.3-1.9-21.7c-3.2-9.2-18.7-15.1-18.8-15.2
            c-0.4-0.1-0.6-0.6-0.4-1s0.6-0.6,1-0.4l0,0c0.7,0.3,16.4,6.2,19.7,16.1c3.3,9.7,2,21.8,1.9,22.3C69.3,78.9,69,79.2,68.6,79.2z" />
        <path fill="#37414C" d="M88.3,79.2c-0.4,0-0.8-0.3-0.8-0.8s0.3-0.8,0.8-0.8c4.6-0.1,9-1.3,13-3.5c0.4-0.2,0.8-0.1,1,0.3
            s0.1,0.8-0.3,1C97.9,77.8,93.1,79.1,88.3,79.2z" />
        <path fill="#84D1F5" d="M9.4,70.5C9.7,83.8,20.7,94.4,34,94.1c12.9-0.3,23.3-10.7,23.6-23.6" />
        <path fill="#FFFFFF" d="M30,69.2c0-1.9,7-1.9,7,0c-0.1,1.9-1.8,3.4-3.8,3.2C31.5,72.3,30.1,71,30,69.2z" />
        <path fill="#FFFFFF" d="M30,69.7h7c0,1.9-1.6,3.5-3.5,3.5l0,0" />
        <path fill="#FFFFFF" d="M15.8,70.8c0,9.8,7.9,17.7,17.7,17.7s17.7-7.9,17.7-17.7" />
        <path fill="#37414C" d="M33.5,89.2c-10.2,0-18.4-8.2-18.4-18.4c0-0.4,0.3-0.8,0.8-0.8s0.8,0.3,0.8,0.8c0,9.4,7.6,16.9,16.9,16.9
            s16.9-7.6,16.9-16.9l0,0c0-0.4,0.3-0.8,0.8-0.8s0.8,0.3,0.8,0.8C51.9,80.9,43.7,89.2,33.5,89.2z" />
        <path fill="#37414C" d="M33.5,74.8c-2.3,0-4.2-1.9-4.3-4.3c0-0.4,0.3-0.8,0.8-0.8s0.8,0.3,0.8,0.8c0,1.5,1.2,2.8,2.8,2.8
            s2.8-1.2,2.8-2.8c0-0.4,0.3-0.8,0.8-0.8s0.8,0.3,0.8,0.8C37.8,72.9,35.9,74.8,33.5,74.8z" />
        <line fill="none" x1="57.6" y1="70.5" x2="37" y2="70.5" />
        <path fill="#37414C"
              d="M57.6,71.3H37c-0.4,0-0.8-0.3-0.8-0.8s0.3-0.8,0.8-0.8h20.6c0.4,0,0.8,0.3,0.8,0.8S58,71.3,57.6,71.3z" />
        <line fill="none" x1="9.4" y1="70.5" x2="30" y2="70.5" />
        <path fill="#37414C"
              d="M30,71.3H9.4c-0.4,0-0.8-0.3-0.8-0.8s0.3-0.8,0.8-0.8H30c0.4,0,0.8,0.3,0.8,0.8S30.4,71.3,30,71.3z" />
        <line fill="none" x1="33.5" y1="88.5" x2="33.5" y2="74" />
        <path fill="#37414C" d="M33.5,89.2c-0.4,0-0.8-0.3-0.8-0.8V74c0-0.4,0.3-0.8,0.8-0.8s0.8,0.3,0.8,0.8v14.5
            C34.3,88.9,33.9,89.2,33.5,89.2z" />
        <line fill="none" x1="35.5" y1="73.5" x2="45.7" y2="83.7" />
        <path fill="#37414C" d="M45.7,84.4c-0.2,0-0.4-0.1-0.5-0.2L35,74c-0.2-0.4,0-0.8,0.4-1c0.2-0.1,0.4-0.1,0.6,0l10.2,10.1
            c0.3,0.3,0.3,0.8,0,1.1C46.1,84.3,45.9,84.4,45.7,84.4z" />
        <line fill="none" x1="31.6" y1="73.5" x2="21.7" y2="84" />
        <path fill="#37414C" d="M21.7,84.7c-0.4,0-0.8-0.3-0.8-0.7c0-0.2,0.1-0.4,0.2-0.5L31.1,73c0.2-0.3,0.7-0.4,1-0.2
            c0.3,0.2,0.4,0.7,0.2,1c0,0.1-0.1,0.1-0.2,0.2l-9.9,10.5C22.1,84.7,21.9,84.7,21.7,84.7z" />
        <path fill="#37414C" d="M33.5,95.3c-6.3,0-12.3-2.4-16.9-6.6c-0.3-0.2-0.4-0.7-0.2-1c0.2-0.3,0.7-0.4,1-0.2c0.1,0,0.1,0.1,0.1,0.1
            c9.4,8.8,24.2,8.2,33-1.2c4-4.3,6.2-10,6.2-15.9c0-0.4,0.3-0.8,0.8-0.8s0.8,0.3,0.8,0.8C58.3,84.2,47.2,95.3,33.5,95.3z" />
        <path fill="#37414C" d="M10.4,77.8c-0.3,0-0.6-0.2-0.7-0.6C9,75,8.7,72.8,8.7,70.5c0-0.4,0.3-0.8,0.8-0.8s0.8,0.3,0.8,0.8
            c0,2.1,0.3,4.3,0.9,6.3c0.1,0.4-0.1,0.8-0.5,0.9c0,0,0,0,0,0L10.4,77.8z" />
        <path fill="#FFFFFF"
              stroke="#37414C"
              stroke-width="1.5"
              stroke-linecap="round"
              stroke-linejoin="round"
              d="M15.8,70.8" />
        <path fill="#37414B" d="M119.3,95.4H14.1c-0.4,0-0.8-0.3-0.8-0.8s0.3-0.8,0.8-0.8l0,0h105.2c0.4,0,0.8,0.3,0.8,0.8
            S119.7,95.4,119.3,95.4L119.3,95.4z" />
        <path fill="#37414B"
              d="M7.8,95.4H0.8c-0.4,0-0.8-0.3-0.8-0.8s0.3-0.8,0.8-0.8h7.1c0.4,0,0.8,0.3,0.8,0.8S8.2,95.4,7.8,95.4z" />
        <path fill="#FFFFFF" d="M61.8,63.5h-0.1C61.2,63.4,61,63,61,62.6c1-6.2-10.6-12.4-10.7-12.5c-0.4-0.2-0.5-0.6-0.3-1
            c0.2-0.4,0.6-0.5,1-0.3l0,0c0.5,0.3,12.6,6.7,11.5,14C62.5,63.2,62.1,63.5,61.8,63.5z" />
        <rect fill="none" width="120" height="120" />
    </g>
</g>
</svg>
