<?xml version="1.0" encoding="utf-8"?><!-- Generator: Adobe Illustrator 21.0.2, SVG Export Plug-In . SVG Version: 6.00 Build 0)  -->
<svg version="1.1"
     id="Layer_1"
     xmlns="http://www.w3.org/2000/svg"
     x="0px"
     y="0px"
     viewBox="0 0 120 120"
     enable-background="new 0 0 120 120"
     xml:space="preserve">
<title>info</title>
    <g id="Layer_2">
    <g id="Desktop-Step_2">
        <path fill="#FFFFFF" d="M100.2,81.6l-71.3-0.8c-1.9,0-3.4-1.5-3.4-3.4V19.2c0-1.9,1.5-3.4,3.4-3.4h71.3c1.9,0,3.4,1.5,3.4,3.4v59
            C103.6,80.1,102.1,81.6,100.2,81.6L100.2,81.6z" />
        <path fill="#84D1F5"
              d="M29.2,15.8h70.7c2.1,0,3.8,1.7,3.8,3.8l0,0v3.8l0,0H25.5l0,0v-3.8C25.5,17.4,27.2,15.8,29.2,15.8z" />
        <path fill="#37414B" d="M101.2,82.3H86.5c-0.4,0-0.8-0.3-0.8-0.8s0.3-0.8,0.8-0.8h14.7c1-0.1,1.8-0.9,1.7-1.9V18.5
            c0.1-1-0.7-1.9-1.7-2H27.9c-1,0.1-1.8,0.9-1.7,2v51.1c0,0.4-0.3,0.8-0.8,0.8s-0.8-0.3-0.8-0.8V18.5c-0.1-1.8,1.4-3.4,3.2-3.5h73.3
            c1.8,0.1,3.3,1.6,3.2,3.5v60.4C104.5,80.7,103,82.3,101.2,82.3z" />
        <rect x="25.4" y="22.9" fill="#37414B" width="78.2" height="1.5" />
        <rect x="77.1" y="55.5" fill="#E0E3E5" width="15.7" height="15.8" />
        <path fill="#37414B" d="M84.7,67.6L84.7,67.6c-0.2,0-0.5-0.1-0.6-0.3l-3.7-5c-0.2-0.3-0.2-0.8,0.2-1c0.3-0.2,0.8-0.2,1,0.2l0,0
            l3.1,4.2L93,55.3c0.3-0.3,0.7-0.4,1.1-0.1c0.3,0.3,0.4,0.7,0.1,1.1l-8.9,11C85.2,67.5,85,67.6,84.7,67.6z" />
        <path fill="#37414B" d="M92.8,72.1H77.1c-0.4,0-0.8-0.3-0.8-0.8V55.5c0-0.4,0.3-0.8,0.8-0.8h9.6c0.4,0,0.8,0.3,0.8,0.8
            s-0.3,0.8-0.8,0.8h-8.9v14.3h14.2v-5.8c0-0.4,0.3-0.8,0.8-0.8s0.8,0.3,0.8,0.8v6.6C93.6,71.7,93.3,72.1,92.8,72.1z" />
        <rect x="77.1" y="31.9" fill="#E0E3E5" width="15.7" height="15.8" />
        <path fill="#37414B" d="M84.7,43.9L84.7,43.9c-0.2,0-0.5-0.1-0.6-0.3l-3.7-5c-0.2-0.3-0.2-0.8,0.2-1c0.3-0.2,0.8-0.2,1,0.2
            l3.1,4.2L93,31.7c0.3-0.3,0.7-0.4,1.1-0.1c0.3,0.3,0.4,0.7,0.1,1.1l-8.9,11C85.2,43.8,85,43.9,84.7,43.9z" />
        <path fill="#37414B" d="M92.8,48.4H77.1c-0.4,0-0.8-0.3-0.8-0.8V31.9c0-0.4,0.3-0.8,0.8-0.8h9.6c0.4,0,0.8,0.3,0.8,0.8
            c0,0.4-0.3,0.8-0.8,0.8h-8.9v14.3h14.2v-5.8c0-0.4,0.3-0.8,0.8-0.8s0.8,0.3,0.8,0.8v6.6C93.6,48.1,93.3,48.4,92.8,48.4z" />
        <path fill="#E1E4E6" d="M12.3,78.2C4.3,63.4,9.8,45,24.5,37.1s33.1-2.5,41.1,12.3s2.5,33.1-12.3,41.1c0,0-0.1,0-0.1,0
            C38.5,98.3,20.2,92.8,12.3,78.2z" />
        <path fill="#37414B" d="M22.4,89.9c-0.1,0-0.3,0-0.4-0.1C7.6,80.3,3.7,61.1,13.1,46.7c5.4-8.2,14.5-13.4,24.3-13.9
            c0.4,0,0.8,0.3,0.8,0.7s-0.3,0.8-0.7,0.8c-16.3,0.8-28.9,14.7-28,31c0.5,9.4,5.4,18,13.3,23.2c0.3,0.2,0.4,0.7,0.2,1
            C22.8,89.8,22.6,89.9,22.4,89.9z" />
        <path fill="#37414B" d="M38.9,94.8c-0.9,0-1.7,0-2.6-0.1c-0.4,0-0.7-0.4-0.7-0.8c0,0,0,0,0,0c0-0.4,0.4-0.7,0.8-0.7
            c5.7,0.5,11.4-0.7,16.5-3.4c14.4-7.7,19.8-25.6,12.1-40c-2.7-5.1-6.9-9.3-11.9-12c-0.4-0.2-0.5-0.6-0.3-1c0.2-0.4,0.6-0.5,1-0.3
            c0,0,0,0,0.1,0c15.1,8.2,20.6,27.1,12.4,42.2c-5.3,9.7-15.4,15.9-26.5,16.2L38.9,94.8z" />
        <path fill="#37414B" d="M67.4,89.7c-0.2,0-0.4-0.1-0.5-0.2l-5.6-4.9c-0.3-0.3-0.3-0.8-0.1-1.1c0.3-0.3,0.8-0.3,1.1-0.1l0,0
            l5.6,4.9c0.3,0.3,0.3,0.7,0.1,1.1C67.8,89.6,67.6,89.7,67.4,89.7z" />
        <path fill="#84D1F5" d="M99.3,117.1L99.3,117.1c-2.3,2.6-6.4,2.9-9,0.5c0,0,0,0,0,0L67.9,97.8c-2.6-2.3-2.8-6.2-0.5-8.8l0,0
            c2.3-2.6,6.4-2.9,9-0.5c0,0,0,0,0,0l22.4,19.8C101.4,110.6,101.6,114.5,99.3,117.1z" />
        <path fill="#37414B" d="M94.6,120c-1.7,0-3.4-0.6-4.7-1.8L67.4,98.4c-2.9-2.5-3.2-7-0.6-9.9c0,0,0,0,0,0c2.6-2.9,7.1-3.2,10-0.6
            l22.5,19.9c2.9,2.5,3.2,7,0.6,9.9c0,0,0,0,0,0C98.6,119.1,96.6,120,94.6,120z M72.2,87.6c-1.6,0-3.1,0.7-4.2,1.9
            c-2,2.3-1.8,5.8,0.5,7.8l22.4,19.8c2.3,2,5.9,1.8,7.9-0.5l0,0c2-2.3,1.8-5.8-0.5-7.8L75.9,89C74.8,88.1,73.5,87.6,72.2,87.6z" />
    
        <ellipse transform="matrix(0.9982 -6.070012e-02 6.070012e-02 0.9982 -3.7993 2.4843)"
                 fill="#FFFFFF"
                 cx="39"
                 cy="63.8"
                 rx="22.9"
                 ry="22.9" />
        <path fill="#FFFFFF" d="M84.9,104.6c-0.2,0-0.4-0.1-0.5-0.2l-10.9-10c-0.3-0.3-0.3-0.8,0-1.1c0.3-0.2,0.7-0.3,1-0.1l10.9,10
            c0.3,0.3,0.3,0.8,0,1.1C85.3,104.5,85.1,104.6,84.9,104.6L84.9,104.6z" />
        <path fill="#37414B" d="M39,87.2c-12.4,0-22.6-9.6-23.4-22l0,0c-0.8-12.9,9-24,21.9-24.8s24,9,24.8,21.9c0.8,12.9-9,24-21.9,24.8
            c0,0,0,0,0,0C39.9,87.1,39.5,87.2,39,87.2z M39,41.9c-0.5,0-0.9,0-1.3,0C25.6,42.6,16.4,53,17.1,65.1c0,0,0,0,0,0.1l0,0
            c0.7,12.1,11.1,21.3,23.2,20.5s21.3-11.1,20.5-23.2C60.1,50.9,50.6,41.9,39,41.9L39,41.9z" />
        <path fill="#37414C" d="M39.2,69.2c-0.4,0-0.8-0.3-0.8-0.8s0.3-0.8,0.8-0.8c3.9,0,7-3.1,7-7c0-0.4,0.3-0.8,0.8-0.8
            s0.8,0.3,0.8,0.8l0,0C47.7,65.4,43.9,69.2,39.2,69.2z" />
        <path fill="#37414C" d="M24.5,75.6c-0.4,0-0.7-0.3-0.7-0.8c0-0.3,0.2-0.6,0.5-0.7l9.5-3v-3.9c-2-1.6-3.1-4-3.1-6.6v-3.1
            c0-4.7,3.8-8.5,8.5-8.5s8.5,3.8,8.5,8.5l0,0v3.1c0,2.5-1.1,4.9-3.1,6.5v3.9l8.8,2.9c0.4,0.1,0.6,0.6,0.5,0.9s-0.6,0.6-0.9,0.5l0,0
            l-9.3-3c-0.3-0.1-0.5-0.4-0.5-0.7v-4.9c0-0.2,0.1-0.5,0.3-0.6c1.7-1.3,2.8-3.4,2.8-5.5v-3.1c0-3.9-3.1-7-7-7s-7,3.1-7,7v3.1
            c0,2.2,1.1,4.3,2.8,5.6c0.2,0.1,0.3,0.4,0.3,0.6v4.7c0,0.3-0.2,0.6-0.5,0.7l-10,3.2C24.7,75.6,24.6,75.6,24.5,75.6z" />
        <rect fill="none" width="120" height="120" />
    </g>
</g>
</svg>
