<?xml version="1.0" encoding="utf-8"?><!-- Generator: Adobe Illustrator 21.0.2, SVG Export Plug-In . SVG Version: 6.00 Build 0)  -->
<svg version="1.1"
     id="Layer_1"
     xmlns="http://www.w3.org/2000/svg"
     x="0px"
     y="0px"
     viewBox="0 0 120 120"
     enable-background="new 0 0 120 120"
     xml:space="preserve">
<title>plan</title>
    <g id="Layer_2">
	<g id="Desktop-Step_1">
		<path fill="#FFFFFF"
              d="M85.8,99.2H27c-2.6,0-4.7-2.1-4.7-4.7v-77c0-2.6,2.1-4.7,4.7-4.7h56c2.6,0,4.7,2.1,4.7,4.7v57" />
        <path fill="#37414B" d="M87.8,50.5c-0.4,0-0.8-0.3-0.8-0.8V17.9c0-2.2-1.8-3.9-3.9-3.9c0,0,0,0,0,0H27.3c-2.2,0-3.9,1.8-3.9,3.9
			v28.2c0,0.4-0.3,0.8-0.8,0.8s-0.8-0.3-0.8-0.8V17.9c0-3,2.4-5.4,5.4-5.4h55.8c3,0,5.4,2.4,5.4,5.4v31.9
			C88.5,50.2,88.2,50.5,87.8,50.5z" />
        <path fill="#E1E4E6" d="M30.3,80.9c-0.9,7.4,6.5,18,6.5,18H49c0,0-11.3-11.8-8.9-21.7S30.3,80.9,30.3,80.9z" />
        <path fill="#7FD4FF" d="M41.8,30.9h28l-3.5,7.3H41.8c-2.2,0.1-4-1.5-4.2-3.6C37.8,32.4,39.6,30.8,41.8,30.9z" />
        <path fill="#7FD4FF" d="M41.8,85.6h28l-3.5,7.3H41.8c-2,0.3-3.9-1.1-4.2-3.1c-0.3-2,1.1-3.9,3.1-4.2
			C41.1,85.6,41.4,85.6,41.8,85.6z" />
        <path fill="#7FD4FF" d="M70.1,77.3H39.3l0.1-7.3h30.7c2-0.3,3.9,1.1,4.2,3.1s-1.1,3.9-3.1,4.2C70.8,77.3,70.4,77.3,70.1,77.3
			L70.1,77.3z" />
        <path fill="#E1E4E6" d="M55.3,57.5c-1.5,0-3-0.6-4-1.8c-1.3-1.6-1.1-4,0.6-5.3c0.2-0.2,0.4-0.3,0.7-0.4
			c11.6-6.9,18-15.6,17.9-24.4c0-2.3,2.1-4.2,4.8-4.2s4.8,1.8,4.8,4.1c0.1,11.7-7.7,22.8-22.1,31.3C57.2,57.2,56.2,57.5,55.3,57.5z" />
        <path fill="#37414C" d="M55.3,58.2c-1.8,0-3.4-0.7-4.6-2.1c-0.8-1-1.2-2.3-1-3.6c0.3-1.4,1.1-2.6,2.4-3.3
			c11.4-6.8,17.6-15.2,17.6-23.8c0-1.2,0.5-2.4,1.4-3.2c1.1-1.1,2.6-1.7,4.2-1.7c3.1,0,5.6,2.1,5.6,4.9c0.1,11.9-7.9,23.3-22.5,31.9
			C57.4,57.9,56.4,58.2,55.3,58.2z M75.3,22.1c-1.2,0-2.3,0.4-3.1,1.2c-0.6,0.6-0.9,1.4-0.9,2.2c0.1,9.1-6.4,18-18.3,25
			c-0.9,0.5-1.5,1.3-1.7,2.3c-0.1,0.9,0.1,1.7,0.6,2.4c0.8,1,2.1,1.5,3.4,1.5c0.8,0,1.6-0.2,2.3-0.6c14.1-8.4,21.8-19.3,21.7-30.6
			C79.3,23.6,77.5,22.1,75.3,22.1L75.3,22.1z" />
        <path fill="#FFFFFF" d="M73.3,99c4.5-5.7,6.8-12,6.8-18.5C80,68.9,72.2,58.1,58,49.9l0,0c-11.5-6.8-17.9-15.4-17.9-24.1
			c0-2.3-2.2-4.1-4.8-4.1l0,0c-2.7,0-4.8,1.9-4.8,4.2c0.1,11.5,7.9,22.5,22.1,30.9l0,0l0,0c11.5,6.6,17.8,15,17.9,23.8
			c0,6.4-3.3,12.8-9.6,18.4" />
        <path fill="#37414C" d="M73.3,99.7c-0.4,0-0.8-0.3-0.8-0.7c0-0.2,0.1-0.3,0.2-0.5c4.4-5.6,6.7-11.7,6.6-18
			c-0.1-11.3-7.8-21.9-21.7-29.9l0,0c-11.7-7-18.2-15.8-18.3-24.8c0-1.9-1.8-3.4-4.1-3.4c-1.2,0-2.3,0.4-3.1,1.2
			c-0.6,0.6-0.9,1.4-0.9,2.2c0.1,11.2,7.8,22,21.7,30.3l0.1,0.1c11.6,6.7,18.1,15.3,18.2,24.4c0,6.6-3.4,13.2-9.9,19
			c-0.3,0.3-0.8,0.2-1.1-0.1c-0.3-0.3-0.2-0.8,0.1-1.1l0,0c6.2-5.5,9.4-11.7,9.4-17.8c-0.1-8.5-6.3-16.7-17.5-23.1h-0.1
			c-14.4-8.7-22.4-19.8-22.5-31.6c0-1.2,0.5-2.4,1.3-3.3c1.1-1.1,2.6-1.7,4.2-1.7c3.1,0,5.6,2.2,5.6,4.9c0.1,8.5,6.3,16.8,17.6,23.5
			h0.1c14.4,8.3,22.4,19.4,22.4,31.2c0,6.7-2.3,13-7,18.9C73.7,99.6,73.5,99.7,73.3,99.7z" />
        <path fill="#E1E4E6" d="M40,80.9L40,80.9c-0.1-8.2,5.3-16.1,15.3-22.5l-8-5.1c-11.1,7.8-17,17.4-16.9,27.7l0,0" />
        <path fill="#37414C" d="M49.4,99.6c-0.2,0-0.4-0.1-0.5-0.2c-6.3-5.7-9.7-12.1-9.7-18.5c-0.1-8.1,5.1-16,14.7-22.5l-6.6-4.2
			C36.6,61.8,31,71,31.1,80.9c0,6,2.2,11.8,6.5,17.4c0.3,0.3,0.2,0.8-0.1,1.1c-0.3,0.3-0.8,0.2-1.1-0.1c-4.5-5.8-6.8-11.9-6.8-18.3
			c-0.1-10.6,5.9-20.3,17.2-28.3c0.3-0.2,0.6-0.2,0.8,0l8,5.1c0.3,0.2,0.4,0.7,0.2,1c-0.1,0.1-0.1,0.2-0.2,0.2
			c-9.7,6.2-15,14-15,21.8c0,6,3.2,12,9.2,17.4c0.3,0.3,0.3,0.7,0.1,1.1C49.8,99.5,49.6,99.6,49.4,99.6L49.4,99.6z" />
        <path fill="#7FD4FF" d="M55.4,70h14.7c2-0.3,3.9,1.1,4.2,3.1s-1.1,3.9-3.1,4.2c-0.4,0.1-0.7,0.1-1.1,0h-15
			C52.8,77.3,53.1,70,55.4,70z" />
        <path fill="#37414C" d="M70.1,78.1H40.3c-0.4,0-0.8-0.3-0.8-0.8s0.3-0.8,0.8-0.8h29.7c1.6,0.3,3.1-0.8,3.4-2.4
			c0.3-1.6-0.8-3.1-2.4-3.4c-0.4-0.1-0.7-0.1-1.1,0H43.5c-0.4,0-0.8-0.3-0.8-0.8s0.3-0.8,0.8-0.8h26.5c2.8,0,5,2,5,4.4
			S72.8,78.1,70.1,78.1z" />
        <path fill="#7FD4FF" d="M56.5,92.9H41.8c-2,0.3-3.9-1.1-4.2-3.1c-0.3-2,1.1-3.9,3.1-4.2c0.4-0.1,0.7-0.1,1.1,0h15
			C59.1,85.6,58.8,92.9,56.5,92.9z" />
        <path fill="#37414C" d="M65.9,93.7H41.8c-2.8,0-5-2-5-4.4s2.2-4.4,5-4.4h27.6c0.4,0,0.8,0.3,0.8,0.8s-0.3,0.8-0.8,0.8H41.8
			c-1.6-0.3-3.1,0.8-3.4,2.4c-0.3,1.6,0.8,3.1,2.4,3.4c0.4,0.1,0.7,0.1,1.1,0h24.1c0.4,0,0.8,0.3,0.8,0.8S66.3,93.7,65.9,93.7z" />
        <path fill="#84D1F5"
              d="M56.5,38.2H41.8c-2.2,0.1-4-1.5-4.2-3.6c0.2-2.2,2.1-3.8,4.2-3.6h15C59.1,30.9,58.8,38.2,56.5,38.2z" />
        <path fill="#37414C" d="M65.9,38.9H41.8c-2.8,0-5-2-5-4.4s2.2-4.4,5-4.4h27.6c0.4,0,0.8,0.3,0.8,0.8s-0.3,0.8-0.8,0.8H41.8
			c-1.8-0.1-3.3,1.1-3.5,2.9c0.2,1.8,1.7,3,3.5,2.9h24.1c0.4,0,0.8,0.3,0.8,0.8S66.3,38.9,65.9,38.9z" />
        <path fill="#E1E4E6" d="M30.3,80.9" />
        <path fill="#37414B" d="M76.7,99.8H27.3c-3,0-5.4-2.4-5.4-5.4V61.3c0-0.4,0.3-0.8,0.8-0.8s0.8,0.3,0.8,0.8v33.1
			c0,2.2,1.8,3.9,3.9,3.9h49.4c0.4,0,0.8,0.3,0.8,0.8S77.1,99.8,76.7,99.8L76.7,99.8z" />
        <path fill="#E1E4E6" d="M64.6,49.8h29.6c1.7,0,3.1,1.4,3.1,3.1v50.8c0,1.7-1.4,3.1-3.1,3.1H64.6c-1.7,0-3.1-1.4-3.1-3.1V52.9
			C61.5,51.1,62.9,49.8,64.6,49.8z" />
        <path fill="#37414B" d="M94.3,107.5H64.6c-2.1,0-3.9-1.7-3.9-3.8c0,0,0,0,0,0V52.9c0-2.1,1.7-3.9,3.9-3.9l0,0h29.6
			c2.1,0,3.9,1.7,3.9,3.8v50.8C98.1,105.8,96.4,107.5,94.3,107.5C94.3,107.5,94.3,107.5,94.3,107.5z M64.6,50.5
			c-1.3,0-2.4,1.1-2.4,2.3v50.8c0,1.3,1.1,2.4,2.3,2.4c0,0,0,0,0,0h29.6c1.3,0,2.4-1,2.4-2.3c0,0,0,0,0,0V52.9
			c0-1.3-1.1-2.4-2.4-2.3L64.6,50.5z" />
        <path fill="#37414B"
              d="M82.9,98.2h-7c-0.4,0-0.8-0.3-0.8-0.8s0.3-0.8,0.8-0.8h7c0.4,0,0.8,0.3,0.8,0.8S83.4,98.2,82.9,98.2z" />
        <path fill="#FFFFFF" d="M72.2,71l7.3-7.3l7.3,7.3c4.3,4,4.6,10.7,0.6,15.1c-4,4.3-10.7,4.6-15.1,0.6c-4.3-4-4.6-10.7-0.6-15.1
			C71.8,71.4,72,71.2,72.2,71z" />
        <path fill="#37414B" d="M79.4,90.3c-6.3,0-11.4-5.1-11.4-11.4c0-3.2,1.3-6.2,3.7-8.4l7.2-7.3c0.3-0.3,0.8-0.3,1.1,0l7.3,7.3
			c4.6,4.3,4.9,11.5,0.6,16.1C85.6,89,82.6,90.3,79.4,90.3z M79.4,64.8l-6.7,6.7l0,0c-2,1.9-3.2,4.5-3.2,7.3c0,5.5,4.4,9.9,9.9,9.9
			s9.9-4.4,9.9-9.9c0-2.8-1.1-5.4-3.2-7.3L79.4,64.8z M72.2,71L72.2,71z" />
        <rect fill="none" width="120" height="120" />
	</g>
</g>
</svg>
