<?xml version="1.0" encoding="utf-8"?><!-- Generator: Adobe Illustrator 21.0.2, SVG Export Plug-In . SVG Version: 6.00 Build 0)  -->
<svg version="1.1"
     id="Layer_1"
     xmlns="http://www.w3.org/2000/svg"
     x="0px"
     y="0px"
     viewBox="0 0 120 120"
     enable-background="new 0 0 120 120"
     xml:space="preserve">
<title>time</title>
    <g id="Layer_2">
    <g id="Desktop-Step_4">
        <path fill="#E0E3E5"
              d="M90.5,99.6H31.7c-2.6,0-4.7-2.1-4.7-4.7v-77c0-2.6,2.1-4.7,4.7-4.7h56c2.6,0,4.7,2.1,4.7,4.7v57" />
        <path fill="#37414B" d="M27.3,58.2c-0.4,0-0.8-0.3-0.8-0.8l0,0V18.3c0-3,2.4-5.4,5.4-5.4c0,0,0,0,0,0h55.8c3,0,5.4,2.4,5.4,5.4v29
            c0,0.4-0.3,0.8-0.8,0.8s-0.8-0.3-0.8-0.8v-29c0-2.2-1.8-3.9-3.9-3.9H32c-2.2,0-3.9,1.8-3.9,3.9v39.2
            C28.1,57.9,27.7,58.2,27.3,58.2C27.3,58.2,27.3,58.2,27.3,58.2z" />
        <path fill="#37414B" d="M81.3,100.2H32c-3,0-5.4-2.4-5.4-5.4v-24c0-0.4,0.3-0.8,0.8-0.8s0.8,0.3,0.8,0.8v24c0,2.2,1.8,3.9,3.9,3.9
            h49.3c0.4,0,0.8,0.3,0.8,0.8S81.8,100.2,81.3,100.2z" />
        <path fill="#FFFFFF" d="M97.7,98.5l-1.1,1.6c-0.7,1.1-1.1,2.4-1.1,3.7v2.3c0,0.6-0.5,1.1-1.1,1.1H81.3c-0.6,0-1.1-0.5-1.1-1.1
            v-2.3c0-1.3-0.4-2.6-1.1-3.7L78,98.5" />
        <path fill="#37414C" d="M94.5,107.9H81.3c-1,0-1.8-0.8-1.8-1.8v-2.3c0-1.2-0.4-2.3-1-3.2l-1.1-1.6c-0.2-0.3-0.1-0.8,0.2-1
            s0.8-0.1,1,0.2l1.1,1.6c0.8,1.2,1.3,2.6,1.3,4.1v2.3c0,0.2,0.2,0.3,0.3,0.3h13.1c0.2,0,0.3-0.2,0.3-0.3v-2.3
            c0-1.4,0.4-2.9,1.2-4.1l1.1-1.6c0.2-0.3,0.7-0.4,1-0.2s0.4,0.7,0.2,1l-1.1,1.6c-0.6,1-1,2.1-1,3.2v2.3
            C96.3,107,95.5,107.9,94.5,107.9z" />
        <path fill="#FFFFFF" d="M97.7,67.8l-1.1-1.6c-0.7-1.1-1.1-2.4-1.1-3.7v-2.3c0-0.6-0.5-1.1-1.1-1.1H81.3c-0.6,0-1.1,0.5-1.1,1.1
            v2.3c0,1.3-0.4,2.6-1.1,3.6L78,67.8" />
        <path fill="#37414C" d="M97.7,68.6c-0.2,0-0.5-0.1-0.6-0.3L96,66.6c-0.8-1.2-1.2-2.6-1.2-4.1v-2.3c0-0.2-0.2-0.3-0.3-0.3H81.3
            c-0.2,0-0.3,0.2-0.3,0.3v2.3c0,1.4-0.4,2.9-1.2,4.1l-1.1,1.6c-0.2,0.3-0.7,0.4-1,0.2s-0.4-0.7-0.2-1l1.1-1.6c0.6-1,1-2.1,1-3.2
            v-2.3c0-1,0.8-1.8,1.8-1.8h13.1c1,0,1.8,0.8,1.8,1.8v2.3c0,1.2,0.4,2.3,1,3.2l1.1,1.6c0.2,0.3,0.1,0.8-0.2,1
            C98.1,68.5,97.9,68.6,97.7,68.6L97.7,68.6z" />
        <path fill="#84D1F5" d="M79.1,67.8h17.5c2.4,0,4.4,2,4.4,4.4v21.9c0,2.4-2,4.4-4.4,4.4H79.1c-2.4,0-4.4-2-4.4-4.4V72.2
            C74.7,69.8,76.7,67.8,79.1,67.8z" />
        <path fill="#37414C" d="M96.7,99.2H79.1c-2.8,0-5.1-2.3-5.1-5.1V72.2c0-2.8,2.3-5.1,5.1-5.1h17.5c2.8,0,5.1,2.3,5.1,5.1v21.9
            C101.8,96.9,99.5,99.2,96.7,99.2z M79.1,68.6c-2,0-3.6,1.6-3.6,3.6v21.9c0,2,1.6,3.6,3.6,3.6h17.5c2,0,3.6-1.6,3.6-3.6V72.2
            c0-2-1.6-3.6-3.6-3.6H79.1z" />
        <path fill="#FFFFFF" d="M87.9,87.8l7-6.9c1.7-1.6,1.7-4.3,0-6c0,0,0,0,0,0l0,0c-1.6-1.7-4.3-1.7-6,0c0,0,0,0,0,0l-1,1l-1-1
            c-1.6-1.7-4.3-1.7-6,0c0,0,0,0,0,0l0,0c-1.7,1.6-1.7,4.3,0,6c0,0,0,0,0,0l4.6,4.6" />
        <path fill="#37414C" d="M87.9,88.5c-0.4,0-0.7-0.3-0.7-0.8c0-0.2,0.1-0.4,0.2-0.5l7-7c1.4-1.4,1.4-3.5,0-4.9s-3.5-1.4-4.9,0l-1,1
            c-0.3,0.3-0.8,0.3-1.1,0l-1-1c-1.4-1.4-3.5-1.4-4.9,0s-1.4,3.5,0,4.9l4.6,4.6c0.3,0.3,0.3,0.8,0,1.1c-0.3,0.3-0.8,0.3-1.1,0l0,0
            l-4.6-4.6c-1.7-2.2-1.2-5.3,1-7c1.8-1.3,4.2-1.3,6,0l0.5,0.5l0.5-0.5c2.2-1.7,5.3-1.2,7,1c1.3,1.8,1.3,4.2,0,6l-7,7
            C88.2,88.4,88,88.5,87.9,88.5z" />
        <path fill="#37414C"
              d="M91.2,93.6h-6.6c-0.4,0-0.8-0.3-0.8-0.8s0.3-0.8,0.8-0.8h6.6c0.4,0,0.8,0.3,0.8,0.8S91.6,93.6,91.2,93.6z" />
        <path fill="#FFFFFF" d="M76.2,32.7c0.1-2.5,2.3-4.5,4.8-4.3s4.5,2.3,4.3,4.8s-2.3,4.5-4.8,4.3c0,0,0,0,0,0
            C78,37.4,76.1,35.3,76.2,32.7C76.2,32.7,76.2,32.7,76.2,32.7z" />
        <path fill="#37414B" d="M80.8,38.3h-0.3c-2.9-0.1-5.2-2.5-5.2-5.4c0.1-2.9,2.5-5.2,5.4-5.2c2.9,0.1,5.2,2.5,5.2,5.4
            C85.9,35.9,83.6,38.2,80.8,38.3z M80.8,29.1c-2,0-3.7,1.6-3.8,3.6l0,0c-0.1,2.1,1.5,3.9,3.6,4c2.1,0.1,3.9-1.5,4-3.6
            c0.1-2.1-1.5-3.9-3.6-4c0,0,0,0,0,0L80.8,29.1z M76.2,32.7L76.2,32.7z" />
        <path fill="#FFFFFF" d="M44.5,49.9c0.1-2.5,2.3-4.5,4.8-4.4c2.5,0.1,4.5,2.3,4.4,4.8c-0.1,2.5-2.3,4.5-4.8,4.4c0,0,0,0,0,0
            C46.4,54.6,44.4,52.5,44.5,49.9z" />
        <path fill="#37414B" d="M49.1,55.5h-0.3c-2.9-0.1-5.2-2.5-5.2-5.4c0.1-2.9,2.5-5.2,5.4-5.2s5.2,2.5,5.2,5.4
            C54.2,53.1,51.9,55.4,49.1,55.5z M49.1,46.3c-2,0-3.7,1.6-3.8,3.7c-0.1,2.1,1.5,3.9,3.6,4c0,0,0,0,0,0c2.1,0,3.8-1.7,3.8-3.8
            c0-2-1.5-3.6-3.4-3.8L49.1,46.3z" />
        <path fill="#FFFFFF" d="M60.6,63.3c0.1-2.5,2.3-4.5,4.8-4.4c2.5,0.1,4.5,2.3,4.4,4.8c-0.1,2.5-2.2,4.5-4.8,4.4
            C62.5,68,60.5,65.8,60.6,63.3L60.6,63.3z" />
        <path fill="#37414B" d="M65.2,68.8h-0.3c-2.9-0.1-5.2-2.6-5.1-5.6l0,0c0.1-2.9,2.6-5.2,5.6-5.1c2.9,0.1,5.2,2.6,5.1,5.6
            C70.4,66.6,68,68.9,65.2,68.8L65.2,68.8z M65.2,59.7c-2,0-3.7,1.6-3.8,3.6l0,0c-0.1,2.1,1.5,3.9,3.6,4s3.9-1.5,4-3.6
            c0.1-2.1-1.5-3.9-3.6-4c0,0,0,0,0,0H65.2z M60.6,63.3L60.6,63.3z" />
        <path fill="#FFFFFF" d="M35.9,82.4c0.1-2.5,2.3-4.5,4.8-4.4c2.5,0.1,4.5,2.3,4.4,4.8c-0.1,2.5-2.3,4.5-4.8,4.4c0,0,0,0,0,0
            C37.7,87.1,35.8,84.9,35.9,82.4z" />
        <path fill="#37414B" d="M40.5,88h-0.3c-2.9-0.1-5.2-2.5-5.2-5.4s2.5-5.2,5.4-5.2c2.9,0.1,5.2,2.5,5.2,5.4
            C45.6,85.7,43.3,87.9,40.5,88z M40.5,78.8c-2,0-3.7,1.6-3.8,3.6l0,0c0,1,0.3,2,1,2.8c1.5,1.5,3.9,1.5,5.4-0.1
            c1.4-1.4,1.5-3.6,0.3-5.1c-0.7-0.8-1.6-1.2-2.6-1.3H40.5z M35.9,82.5L35.9,82.5z" />
        <path fill="#37414B" d="M41.4,78.9h-0.2c-0.4-0.1-0.6-0.5-0.5-0.9l6-23.7c0.1-0.4,0.5-0.7,0.9-0.6c0.4,0.1,0.7,0.5,0.6,0.9
            c0,0,0,0.1,0,0.1l-6,23.7C42.1,78.7,41.8,78.9,41.4,78.9z" />
        <path fill="#37414B" d="M62,61c-0.2,0-0.3-0.1-0.5-0.2l-9.1-7.5c-0.3-0.3-0.4-0.8-0.1-1.1c0.3-0.3,0.8-0.4,1.1-0.1l0,0l9.1,7.5
            c0.3,0.3,0.4,0.7,0.1,1.1C62.5,60.9,62.2,61,62,61z" />
        <path fill="#37414B" d="M67.8,60.5c-0.4,0-0.7-0.3-0.7-0.8c0-0.1,0-0.2,0.1-0.3l11-22.7c0.2-0.4,0.6-0.5,1-0.3
            c0.4,0.2,0.5,0.6,0.3,1l-11,22.7C68.4,60.4,68.1,60.5,67.8,60.5z" />
        <path fill="#37414B" d="M59.3,24.6H37.5c-0.4,0-0.8-0.3-0.8-0.8s0.3-0.8,0.8-0.8h21.9c0.4,0,0.8,0.3,0.8,0.8S59.7,24.6,59.3,24.6z
            " />
        <path fill="#37414B" d="M59.3,35.2H37.5c-0.4,0-0.8-0.3-0.8-0.8s0.3-0.8,0.8-0.8h21.9c0.4,0,0.8,0.3,0.8,0.8S59.7,35.2,59.3,35.2z
            " />
        <rect fill="none" width="120" height="120" />
    </g>
</g>
</svg>
