<svg xmlns="http://www.w3.org/2000/svg" width="241" height="100" viewBox="0 0 241 100">
  <g>
    <path fill="#e7f0f2"
          d="M237.209 79.893a6.562 6.562 0 0 0 1.887-9.085 6.559 6.559 0 0 0-9.083-1.887c-1.837 1.206-2.856 3.176-2.942 5.216l-22.188 1.957c-.515-3.038-3.116-5.384-6.309-5.458a6.522 6.522 0 0 0-2.762.558l-9.456-14.112c1.536-1.167 2.565-2.976 2.612-5.055a6.56 6.56 0 1 0-13.116-.301c0 .029.007.054.007.082l-17.406 1.166a6.534 6.534 0 0 0-.387-1.177c-1.181-2.665-3.92-4.12-6.67-3.837l-10.712-15.849a6.517 6.517 0 0 0 .551-2.47 6.56 6.56 0 0 0-6.408-6.71c-3.217-.074-5.934 2.186-6.562 5.23l-20.942-1.578a6.53 6.53 0 0 0-.529-2.246 6.559 6.559 0 0 0-7.336-3.758L87.906 3.487c.332-.76.53-1.592.55-2.471.05-2.169-.971-4.1-2.565-5.332l7.487-15.24a6.532 6.532 0 0 0 1.634.27 6.56 6.56 0 0 0 6.709-6.41 6.56 6.56 0 0 0-6.407-6.71 6.522 6.522 0 0 0-2.762.558L83.097-45.96c1.536-1.167 2.564-2.975 2.612-5.055a6.56 6.56 0 1 0-13.116-.301c-.001.028.006.055.006.083l-17.055 1.142c-.679-2.822-3.163-4.959-6.202-5.028a6.561 6.561 0 0 0-6.709 6.409c-.051 2.199.996 4.158 2.629 5.387l-7.568 15.405c-.568-.177-1.157-.305-1.781-.32-1.149-.027-2.221.271-3.172.769l-9.708-14.364a6.496 6.496 0 0 0 1.431-1.808 6.56 6.56 0 1 0-8.858 2.758c1.944 1.021 4.161.956 5.986.042L31.3-26.477a6.542 6.542 0 0 0-2.097 4.648c-.009.414.03.817.095 1.211l-15.933 4.519c-1.003-2.236-3.205-3.826-5.817-3.887-2.663-.061-4.981 1.481-6.061 3.738l-20.292-12.375c1.008-2.594.311-5.642-1.973-7.48-.839-.676-1.798-1.082-2.786-1.285l1.766-23.432a6.496 6.496 0 0 0 2.244-.529 6.564 6.564 0 0 0 3.337-8.658 6.56 6.56 0 1 0-11.993 5.321c.89 2.008 2.669 3.333 4.666 3.75l-1.764 23.419c-1.772.113-3.492.921-4.693 2.414-1.483 1.843-1.787 4.237-1.048 6.314l-20.936 8.868c-.737-2.39-2.804-4.255-5.448-4.585-2.347-.292-4.543.708-5.92 2.43l-19.5-13.827c1.083-2.649.36-5.792-2.006-7.641a6.558 6.558 0 0 0-9.208 1.13c-1.457 1.865-1.727 4.262-.958 6.329l-21.192 9.332a6.505 6.505 0 0 0-2.111-2.938c-2.602-2.035-6.243-1.77-8.559.453l-16.353-12.715a6.52 6.52 0 0 0 .919-2.848c.244-3.316-2.032-6.21-5.199-6.874l1.435-20.241c3.255-.167 5.959-2.705 6.204-6.04a6.56 6.56 0 1 0-13.084-.964c-.243 3.295 2.001 6.175 5.136 6.863l-1.436 20.255c-3.226.196-5.897 2.725-6.14 6.038-.056.747.044 1.465.226 2.151l-20.413 7.245c-1.001-2-2.976-3.449-5.366-3.624a6.562 6.562 0 0 0-.964 13.087 6.56 6.56 0 0 0 7.024-6.062c.045-.601-.021-1.181-.131-1.744l20.498-7.275a6.552 6.552 0 0 0 5.186 3.248c1.938.142 3.724-.591 5.021-1.843l16.351 12.713c-1.672 2.798-1.069 6.458 1.566 8.517a6.558 6.558 0 0 0 9.208-1.13c1.046-1.338 1.468-2.954 1.351-4.524l21.659-9.538c.353.488.753.95 1.25 1.339a6.56 6.56 0 0 0 9.209-1.129c.008-.011.013-.023.02-.033l19.463 13.799c-.238.554-.428 1.134-.507 1.761a6.56 6.56 0 0 0 13.019 1.622c.041-.321.029-.636.023-.951l21.478-9.099c.346.493.739.959 1.231 1.356a6.559 6.559 0 0 0 9.223-.999c.053-.066.086-.14.135-.207L.956-14.522c-.053.311-.11.62-.118.946-.075 3.291 2.293 6.046 5.441 6.589L5.659 9.41c-3.26.314-5.853 2.992-5.93 6.349a6.561 6.561 0 0 0 6.408 6.71c2.567.059 4.801-1.381 5.927-3.506l15.554 5.715c-.029.228-.08.45-.085.684a6.56 6.56 0 1 0 13.116.302 6.526 6.526 0 0 0-1.73-4.576l9.767-12.429c.928.542 1.985.889 3.136.915 3.503.08 6.402-2.609 6.665-6.063l17.05-1.141c.67 2.836 3.161 4.985 6.21 5.056.411.009.809-.031 1.2-.094l11.721 17.34a6.558 6.558 0 0 0 8.789 8.324c2.008-.891 3.332-2.67 3.749-4.667l20.956 1.579c.215 3.359 2.936 6.063 6.364 6.143.41.008.809-.031 1.2-.094l10.515 15.557c-.854 1.696-.997 3.734-.167 5.604a6.503 6.503 0 0 0 2.358 2.782l-7.478 15.224c-.568-.177-1.157-.305-1.782-.32-2.894-.066-5.366 1.766-6.296 4.347l-20.846.742a6.526 6.526 0 0 0-1.802-1.775 6.557 6.557 0 0 0-9.085 1.875 6.562 6.562 0 0 0 1.874 9.088 6.56 6.56 0 0 0 9.086-1.875c.225-.343.403-.702.557-1.068l21.214-.754c1.169 1.495 2.951 2.493 4.996 2.54 1.107.026 2.142-.251 3.068-.715l9.212 13.749c-1.46 1.171-2.43 2.93-2.476 4.947a6.56 6.56 0 0 0 6.407 6.711c3.503.08 6.402-2.609 6.665-6.063l17.05-1.142c.67 2.837 3.162 4.986 6.211 5.057a6.561 6.561 0 0 0 6.709-6.41c.049-2.169-.972-4.1-2.566-5.332l7.487-15.24a6.533 6.533 0 0 0 1.635.271c3.45.079 6.31-2.534 6.647-5.911l22.321-1.968a6.5 6.5 0 0 0 .885 2.128 6.56 6.56 0 0 0 9.084 1.887zM46.793-42.475c.7.277 1.45.457 2.247.475a6.557 6.557 0 0 0 6.702-6.351l17.095-1.145c.727 2.753 3.174 4.822 6.163 4.89a6.513 6.513 0 0 0 2.586-.467l9.476 14.143c-1.448 1.171-2.411 2.925-2.457 4.934-.056 2.43 1.233 4.558 3.171 5.737L84.374-5.193a6.535 6.535 0 0 0-2.325-.502c-3.592-.082-6.568 2.743-6.698 6.323L58.406 1.763c-.574-2.965-3.142-5.237-6.283-5.309a6.485 6.485 0 0 0-2.74.547l-9.251-13.807a6.53 6.53 0 0 0 2.188-4.722c.054-2.376-1.173-4.466-3.037-5.66zm-9.224 62.451a6.495 6.495 0 0 0-3.324-1.022c-2.771-.065-5.168 1.608-6.184 4.019l-15.364-5.645c.09-.41.147-.833.158-1.268.075-3.291-2.292-6.046-5.438-6.59l.62-16.397c3.258-.315 5.848-2.993 5.925-6.348a6.587 6.587 0 0 0-.088-1.147l15.952-4.526c1.015 2.205 3.199 3.77 5.788 3.83a6.48 6.48 0 0 0 2.91-.635l9.229 13.777C46.37-.805 45.46.91 45.415 2.863a6.535 6.535 0 0 0 1.878 4.738zm60.203 1.233a6.468 6.468 0 0 0-2.13 1.78L84.683 6.777a6.5 6.5 0 0 0 2.195-1.687zm51.812 27.193c-.057.024-.117.032-.174.057a6.567 6.567 0 0 0-2.112 1.496l-9.836-14.552a6.536 6.536 0 0 0 2.195-1.688zm-17.121 32.811c-.02.863.138 1.686.425 2.447l-19.787.702a6.515 6.515 0 0 0-.266-2.749l19.665-.698c-.007.1-.034.195-.037.298zm55.17 16.636a6.535 6.535 0 0 0-2.325-.502c-3.591-.082-6.567 2.742-6.698 6.323l-16.945 1.135c-.573-2.964-3.141-5.237-6.282-5.309a6.475 6.475 0 0 0-2.741.548l-9.251-13.808a6.53 6.53 0 0 0 2.188-4.722c.055-2.376-1.172-4.465-3.036-5.66l7.463-15.191c1.496.498 3.169.482 4.724-.208 2.359-1.047 3.771-3.319 3.87-5.736l17.496-1.174c.728 2.753 3.175 4.823 6.163 4.891a6.518 6.518 0 0 0 2.587-.467l9.476 14.144c-1.449 1.17-2.411 2.924-2.457 4.933-.057 2.43 1.233 4.558 3.17 5.737z" />
  </g>
</svg>