<svg xmlns="http://www.w3.org/2000/svg" width="201" height="100" viewBox="0 0 201 100">
  <g>
    <path fill="#e7f0f2"
          d="M-101.038 97.893a6.562 6.562 0 0 1-1.887-9.085 6.559 6.559 0 0 1 9.083-1.887c1.837 1.206 2.856 3.176 2.942 5.216l22.188 1.957c.515-3.038 3.116-5.384 6.31-5.458a6.522 6.522 0 0 1 2.761.558l9.456-14.112c-1.536-1.167-2.565-2.976-2.612-5.055a6.56 6.56 0 1 1 13.116-.301c0 .029-.007.054-.007.082l17.406 1.166c.093-.396.215-.792.387-1.177 1.181-2.665 3.92-4.12 6.67-3.837l10.712-15.849a6.517 6.517 0 0 1-.55-2.47 6.56 6.56 0 0 1 6.407-6.71c3.217-.074 5.934 2.186 6.562 5.23l20.942-1.578a6.53 6.53 0 0 1 .53-2.246 6.559 6.559 0 0 1 7.335-3.758l11.552-17.092a6.526 6.526 0 0 1-.55-2.471c-.05-2.169.971-4.1 2.565-5.332l-7.487-15.24a6.532 6.532 0 0 1-1.634.27 6.56 6.56 0 0 1-6.709-6.41 6.56 6.56 0 0 1 6.407-6.71 6.522 6.522 0 0 1 2.762.558l9.455-14.112c-1.536-1.167-2.564-2.975-2.612-5.055a6.56 6.56 0 1 1 13.116-.301c.001.028-.006.055-.006.083l17.055 1.142c.68-2.822 3.163-4.959 6.202-5.028a6.561 6.561 0 0 1 6.71 6.409c.05 2.199-.997 4.158-2.63 5.387l7.568 15.405c.568-.177 1.157-.305 1.781-.32 1.15-.027 2.221.271 3.172.769l9.708-14.364a6.496 6.496 0 0 1-1.43-1.808 6.56 6.56 0 1 1 8.857 2.758c-1.944 1.021-4.16.956-5.986.042l-9.708 14.364a6.542 6.542 0 0 1 2.097 4.648c.01.414-.03.817-.095 1.211l15.933 4.519c1.003-2.236 3.205-3.826 5.817-3.887 2.663-.061 4.981 1.481 6.061 3.738l20.292-12.375c-1.008-2.594-.31-5.642 1.973-7.48.84-.676 1.798-1.082 2.786-1.285L157.97-42.82a6.496 6.496 0 0 1-2.244-.529 6.564 6.564 0 0 1-3.337-8.658 6.56 6.56 0 1 1 11.993 5.321c-.89 2.008-2.669 3.333-4.666 3.75l1.764 23.419c1.772.113 3.492.921 4.693 2.414 1.483 1.843 1.787 4.237 1.048 6.314l20.936 8.868c.737-2.39 2.804-4.255 5.448-4.585 2.347-.292 4.543.708 5.92 2.43l19.5-13.827c-1.083-2.649-.36-5.792 2.006-7.641a6.558 6.558 0 0 1 9.208 1.13c1.457 1.865 1.727 4.262.958 6.329l21.192 9.332a6.505 6.505 0 0 1 2.111-2.938c2.602-2.035 6.243-1.77 8.56.453l16.352-12.715a6.52 6.52 0 0 1-.919-2.848c-.244-3.316 2.032-6.21 5.2-6.874l-1.436-20.241c-3.255-.167-5.959-2.705-6.204-6.04a6.56 6.56 0 1 1 13.084-.964c.243 3.295-2 6.175-5.136 6.863l1.436 20.255c3.226.196 5.897 2.725 6.14 6.038.056.747-.044 1.465-.226 2.151l20.413 7.245c1.001-2 2.976-3.449 5.366-3.624a6.562 6.562 0 0 1 .964 13.087 6.56 6.56 0 0 1-7.024-6.062c-.045-.601.021-1.181.131-1.744l-20.498-7.275a6.552 6.552 0 0 1-5.186 3.248c-1.938.142-3.724-.591-5.02-1.843L264.143-9.868c1.672 2.798 1.07 6.458-1.566 8.517a6.558 6.558 0 0 1-9.208-1.13c-1.046-1.338-1.468-2.954-1.35-4.524l-21.66-9.538c-.353.488-.753.95-1.25 1.339a6.56 6.56 0 0 1-9.209-1.129c-.008-.011-.013-.023-.02-.033L200.418-2.567c.238.554.428 1.134.507 1.761A6.56 6.56 0 0 1 187.906.816c-.04-.321-.029-.636-.023-.951l-21.478-9.099c-.346.493-.739.959-1.23 1.356a6.559 6.559 0 0 1-9.224-.999c-.053-.066-.086-.14-.135-.207l-20.6 12.562c.052.311.11.62.117.946.075 3.291-2.293 6.046-5.44 6.589l.62 16.397c3.26.314 5.852 2.992 5.93 6.349a6.561 6.561 0 0 1-6.409 6.71c-2.567.059-4.8-1.381-5.927-3.506l-15.554 5.715c.03.228.08.45.085.684a6.56 6.56 0 1 1-13.116.302 6.526 6.526 0 0 1 1.73-4.576l-9.767-12.429c-.928.542-1.985.889-3.136.915-3.503.08-6.402-2.609-6.665-6.063l-17.05-1.141c-.67 2.836-3.16 4.985-6.21 5.056a6.598 6.598 0 0 1-1.2-.094l-11.72 17.34a6.558 6.558 0 0 1-8.789 8.324c-2.009-.891-3.333-2.67-3.75-4.667L8.01 47.908c-.215 3.359-2.936 6.063-6.364 6.143a6.696 6.696 0 0 1-1.2-.094L-10.07 69.514c.854 1.696.997 3.734.167 5.604A6.503 6.503 0 0 1-12.26 77.9l7.478 15.224c.568-.177 1.157-.305 1.782-.32 2.894-.066 5.366 1.766 6.296 4.347l20.846.742a6.526 6.526 0 0 1 1.802-1.775 6.557 6.557 0 0 1 9.085 1.875 6.562 6.562 0 0 1-1.874 9.088 6.56 6.56 0 0 1-9.086-1.875 6.585 6.585 0 0 1-.557-1.068l-21.214-.754c-1.169 1.495-2.95 2.493-4.996 2.54-1.107.026-2.142-.251-3.068-.715l-9.212 13.749c1.46 1.171 2.43 2.93 2.476 4.947a6.56 6.56 0 0 1-6.407 6.711c-3.503.08-6.402-2.609-6.665-6.063l-17.05-1.142c-.67 2.837-3.162 4.986-6.21 5.057a6.561 6.561 0 0 1-6.71-6.41c-.049-2.169.972-4.1 2.566-5.332l-7.487-15.24a6.533 6.533 0 0 1-1.635.271c-3.45.079-6.31-2.534-6.647-5.911l-22.32-1.968a6.5 6.5 0 0 1-.886 2.128 6.56 6.56 0 0 1-9.084 1.887zM89.378-24.475a6.48 6.48 0 0 1-2.247.475 6.557 6.557 0 0 1-6.702-6.351l-17.095-1.145c-.727 2.753-3.174 4.822-6.163 4.89a6.513 6.513 0 0 1-2.586-.467L45.11-12.93c1.448 1.171 2.411 2.925 2.457 4.934.056 2.43-1.233 4.558-3.17 5.737l7.401 15.066a6.535 6.535 0 0 1 2.325-.502c3.592-.082 6.568 2.743 6.698 6.323l16.945 1.135c.574-2.965 3.142-5.237 6.283-5.309a6.485 6.485 0 0 1 2.74.547L96.04 1.194a6.53 6.53 0 0 1-2.188-4.722c-.054-2.376 1.173-4.466 3.037-5.66zm9.225 62.451a6.495 6.495 0 0 1 3.323-1.022c2.771-.065 5.169 1.608 6.185 4.019l15.364-5.645a6.615 6.615 0 0 1-.158-1.268c-.075-3.291 2.291-6.046 5.437-6.59l-.62-16.397c-3.258-.315-5.848-2.993-5.925-6.348a6.587 6.587 0 0 1 .088-1.147L106.345-.948c-1.015 2.205-3.198 3.77-5.788 3.83a6.48 6.48 0 0 1-2.91-.635l-9.229 13.777c1.383 1.171 2.294 2.886 2.339 4.839a6.535 6.535 0 0 1-1.879 4.738zm-60.204 1.233a6.468 6.468 0 0 1 2.13 1.78l10.96-16.212a6.5 6.5 0 0 1-2.196-1.687zm-51.812 27.193c.057.024.117.032.174.057a6.567 6.567 0 0 1 2.112 1.496l9.836-14.552a6.536 6.536 0 0 1-2.195-1.688zM3.71 99.213a6.483 6.483 0 0 1-.426 2.447l19.787.702a6.515 6.515 0 0 1 .266-2.749l-19.664-.698c.007.1.034.195.037.298zm-55.17 16.636a6.535 6.535 0 0 1 2.324-.502c3.591-.082 6.567 2.742 6.698 6.323l16.945 1.135c.573-2.964 3.141-5.237 6.282-5.309.976-.023 1.9.183 2.741.548l9.251-13.808a6.53 6.53 0 0 1-2.188-4.722c-.055-2.376 1.172-4.465 3.036-5.66l-7.463-15.191c-1.496.498-3.169.482-4.724-.208-2.359-1.047-3.77-3.319-3.87-5.736l-17.496-1.174c-.728 2.753-3.175 4.823-6.163 4.891a6.518 6.518 0 0 1-2.587-.467l-9.476 14.144c1.45 1.17 2.411 2.924 2.457 4.933.057 2.43-1.233 4.558-3.17 5.737z" />
  </g>
</svg>