<svg xmlns="http://www.w3.org/2000/svg" width="428" height="198" viewBox="0 0 428 198">
  <g>
    <g>
      <path fill="#e7f0f2"
            d="M425.039 165.212c3.028-1.99 3.872-6.067 1.886-9.103a6.547 6.547 0 0 0-9.08-1.89c-1.836 1.208-2.854 3.182-2.94 5.226l-22.18 1.96c-.514-3.043-3.114-5.394-6.306-5.468a6.506 6.506 0 0 0-2.76.56l-9.453-14.14c1.536-1.17 2.564-2.982 2.611-5.065.084-3.63-2.784-6.64-6.404-6.723-3.62-.083-6.624 2.79-6.707 6.421 0 .03.007.055.007.083l-17.399 1.168a6.558 6.558 0 0 0-.387-1.18c-1.18-2.67-3.918-4.127-6.667-3.844l-10.708-15.88c.332-.76.531-1.594.551-2.474.083-3.63-2.785-6.64-6.405-6.723-3.216-.074-5.932 2.19-6.56 5.24l-20.933-1.581a6.555 6.555 0 0 0-.529-2.25 6.553 6.553 0 0 0-7.333-3.766l-11.547-17.125c.331-.761.53-1.595.55-2.476.05-2.173-.971-4.108-2.565-5.342l7.484-15.27c.524.15 1.065.257 1.634.271 3.62.084 6.623-2.791 6.706-6.422.084-3.63-2.784-6.64-6.404-6.723a6.506 6.506 0 0 0-2.761.559l-9.452-14.14c1.536-1.169 2.563-2.98 2.611-5.064.083-3.63-2.783-6.64-6.404-6.723-3.62-.083-6.623 2.79-6.706 6.421-.001.028.006.055.006.083l-17.049 1.145c-.678-2.828-3.161-4.97-6.199-5.038-3.62-.083-6.622 2.791-6.706 6.421-.051 2.203.995 4.166 2.628 5.398l-7.565 15.434c-.568-.177-1.157-.305-1.78-.32-1.15-.027-2.22.271-3.171.77l-9.704-14.391a6.506 6.506 0 0 0 1.43-1.812c1.683-3.215.45-7.189-2.757-8.876a6.55 6.55 0 0 0-8.854 2.763c-1.684 3.215-.45 7.188 2.756 8.876 1.944 1.023 4.16.958 5.984.042l9.704 14.392a6.56 6.56 0 0 0-2.096 4.657c-.009.415.03.819.095 1.214l-15.927 4.527c-1.002-2.24-3.203-3.833-5.814-3.894-2.662-.061-4.98 1.484-6.059 3.745l-20.284-12.399c1.008-2.599.311-5.653-1.972-7.494-.839-.678-1.797-1.085-2.785-1.288l1.765-23.477a6.481 6.481 0 0 0 2.244-.53c3.31-1.472 4.803-5.358 3.335-8.675a6.551 6.551 0 0 0-8.653-3.344c-3.311 1.472-4.803 5.356-3.335 8.675a6.539 6.539 0 0 0 4.664 3.758l-1.763 23.464c-1.771.113-3.49.923-4.691 2.419-1.483 1.846-1.787 4.245-1.048 6.326l-20.927 8.885c-.737-2.395-2.803-4.263-5.446-4.594-2.346-.293-4.541.71-5.918 2.435l-19.492-13.854c1.082-2.654.36-5.803-2.005-7.656a6.545 6.545 0 0 0-9.205 1.132c-1.456 1.869-1.726 4.27-.957 6.342l-21.184 9.35a6.517 6.517 0 0 0-2.11-2.944c-2.6-2.039-6.24-1.773-8.555.454L44.742 43.13c.5-.847.84-1.805.919-2.853.244-3.323-2.031-6.222-5.197-6.888l1.434-20.28c3.254-.167 5.957-2.71 6.202-6.051.267-3.622-2.446-6.773-6.058-7.04-3.611-.266-6.755 2.453-7.021 6.074-.243 3.301 2 6.187 5.134 6.876l-1.436 20.294c-3.224.197-5.894 2.73-6.137 6.05-.056.748.044 1.468.226 2.155l-20.405 7.26c-1-2.005-2.975-3.457-5.364-3.632C3.428 44.83.285 47.55.018 51.17c-.266 3.62 2.447 6.773 6.058 7.038 3.612.267 6.755-2.452 7.02-6.073.046-.603-.02-1.184-.13-1.748l20.49-7.289a6.548 6.548 0 0 0 5.184 3.254c1.937.143 3.722-.592 5.019-1.846l16.344 12.738c-1.671 2.803-1.069 6.47 1.565 8.533a6.545 6.545 0 0 0 9.205-1.132c1.045-1.34 1.467-2.96 1.35-4.533l21.65-9.556c.353.489.753.951 1.25 1.341a6.548 6.548 0 0 0 9.205-1.131c.008-.011.013-.023.02-.033l19.455 13.826c-.237.555-.427 1.136-.506 1.764-.447 3.604 2.102 6.888 5.696 7.337 3.593.45 6.87-2.108 7.317-5.712.041-.321.03-.637.023-.953l21.47-9.116c.346.494.739.96 1.23 1.358a6.546 6.546 0 0 0 9.22-1c.053-.067.086-.14.135-.208l20.592 12.586c-.053.312-.11.622-.118.948-.075 3.298 2.292 6.058 5.44 6.602l-.62 16.429c-3.26.314-5.851 2.997-5.928 6.36-.083 3.63 2.784 6.64 6.405 6.724 2.566.059 4.8-1.384 5.925-3.513l15.548 5.726c-.03.229-.08.451-.085.685-.083 3.631 2.784 6.641 6.404 6.724 3.62.084 6.623-2.79 6.706-6.42a6.547 6.547 0 0 0-1.729-4.586l9.763-12.453c.928.543 1.984.89 3.135.917 3.502.08 6.4-2.614 6.662-6.075l17.043-1.143c.67 2.841 3.16 4.995 6.208 5.066a6.58 6.58 0 0 0 1.2-.094l11.716 17.373a6.567 6.567 0 0 0 .133 4.996c1.468 3.32 5.342 4.817 8.652 3.344 2.008-.892 3.331-2.675 3.748-4.676l20.947 1.582c.215 3.366 2.935 6.075 6.362 6.155.41.008.809-.03 1.2-.094l10.51 15.587c-.853 1.7-.996 3.741-.167 5.615a6.512 6.512 0 0 0 2.357 2.787l-7.475 15.254c-.567-.178-1.156-.306-1.781-.32-2.893-.067-5.364 1.769-6.293 4.355l-20.838.743a6.53 6.53 0 0 0-1.801-1.778 6.545 6.545 0 0 0-9.082 1.878 6.584 6.584 0 0 0 1.873 9.106 6.547 6.547 0 0 0 9.083-1.879c.225-.344.403-.703.557-1.07l21.205-.755c1.169 1.497 2.95 2.497 4.994 2.544 1.107.027 2.141-.251 3.067-.716l9.208 13.776c-1.46 1.173-2.429 2.935-2.475 4.956-.084 3.63 2.784 6.641 6.405 6.724 3.501.08 6.4-2.614 6.662-6.074l17.043-1.145c.67 2.843 3.16 4.996 6.209 5.067 3.62.083 6.623-2.792 6.706-6.422.049-2.173-.972-4.108-2.565-5.343l7.484-15.27c.524.15 1.065.258 1.634.272 3.449.08 6.308-2.538 6.645-5.922l22.312-1.972c.169.738.447 1.463.884 2.132a6.548 6.548 0 0 0 9.08 1.891zM234.699 42.607c.7.278 1.45.458 2.246.476 3.6.083 6.584-2.761 6.7-6.363l17.088-1.147c.726 2.758 3.172 4.831 6.16 4.9a6.498 6.498 0 0 0 2.585-.469l9.472 14.17c-1.447 1.174-2.41 2.931-2.456 4.944-.056 2.435 1.233 4.567 3.17 5.748l-7.399 15.095a6.52 6.52 0 0 0-2.324-.503c-3.59-.082-6.565 2.749-6.695 6.336l-16.939 1.137c-.573-2.97-3.14-5.247-6.28-5.32a6.47 6.47 0 0 0-2.739.549l-9.247-13.834a6.549 6.549 0 0 0 2.187-4.731c.054-2.38-1.173-4.475-3.036-5.671zm-9.223 62.572a6.484 6.484 0 0 0-3.323-1.024c-2.77-.065-5.168 1.611-6.183 4.027l-15.362-5.656c.09-.41.147-.835.158-1.27.075-3.298-2.291-6.058-5.437-6.603l.62-16.429c3.257-.316 5.847-2.999 5.924-6.36a6.614 6.614 0 0 0-.088-1.15l15.95-4.534c1.014 2.209 3.198 3.777 5.786 3.837a6.467 6.467 0 0 0 2.91-.636l9.228 13.804c-1.383 1.173-2.293 2.891-2.338 4.848a6.555 6.555 0 0 0 1.878 4.747zm60.182 1.244a6.474 6.474 0 0 0-2.131 1.785l-10.963-16.253a6.505 6.505 0 0 0 2.196-1.69zm51.79 27.246c-.056.024-.116.032-.173.057a6.564 6.564 0 0 0-2.111 1.5l-9.832-14.589a6.536 6.536 0 0 0 2.194-1.692zm-17.113 32.867c-.02.866.138 1.694.425 2.458l-19.78.706a6.579 6.579 0 0 0-.265-2.763l19.657-.701c-.007.101-.035.196-.038.3zm55.148 16.667a6.52 6.52 0 0 0-2.324-.503c-3.59-.082-6.565 2.747-6.696 6.335l-16.938 1.137c-.573-2.97-3.14-5.247-6.28-5.32a6.46 6.46 0 0 0-2.74.55l-9.247-13.835a6.549 6.549 0 0 0 2.187-4.73c.055-2.382-1.171-4.475-3.034-5.672l7.46-15.22c1.495.499 3.167.483 4.722-.209 2.358-1.049 3.77-3.325 3.868-5.747l17.49-1.176c.727 2.758 3.173 4.832 6.16 4.9a6.502 6.502 0 0 0 2.586-.467l9.472 14.17c-1.448 1.173-2.41 2.93-2.456 4.943-.057 2.435 1.232 4.567 3.169 5.749z" />
    </g>
  </g>
</svg>