<svg xmlns="http://www.w3.org/2000/svg" width="86" height="86" viewBox="0 0 86 86"><g><g><g><path fill="#fff" d="M0 86h86V0H0z"/></g><g><g><path fill="#0af" d="M12.805 35.47a3.225 3.225 0 0 1-3.225-3.225v-12.9a3.225 3.225 0 0 1 3.225-3.225h12.9a3.225 3.225 0 0 1 3.225 3.225v12.9a3.225 3.225 0 0 1-3.225 3.225z"/></g><g><path fill="#fff" d="M40.74 20.887h35.678"/></g><g><path fill="#37414b" d="M76.418 21.74H40.74a.86.86 0 1 1 0-1.72h35.678a.86.86 0 0 1 0 1.72"/></g><g><path fill="#fff" d="M40.74 31.017h24.928"/></g><g><path fill="#37414b" d="M65.668 31.87H40.74a.86.86 0 1 1 0-1.72h24.928a.86.86 0 0 1 0 1.72"/></g><g><path fill="#fff" d="M40.74 55.947h35.678"/></g><g><path fill="#37414b" d="M76.418 56.8H40.74a.86.86 0 1 1 0-1.72h35.678a.86.86 0 0 1 0 1.72"/></g><g><path fill="#fff" d="M40.74 66.077h24.928"/></g><g><path fill="#37414b" d="M65.668 66.93H40.74a.86.86 0 1 1 0-1.72h24.928a.86.86 0 0 1 0 1.72"/></g><g><path fill="#fff" d="M24.068 20.54l-6.539 6.538-3.091-3.082-1.988 1.986 5.08 5.079 8.522-8.523z"/></g><g><path fill="#0af" d="M25.705 69.879h-12.9a3.225 3.225 0 0 1-3.225-3.225V53.755a3.225 3.225 0 0 1 3.225-3.225h12.9a3.225 3.225 0 0 1 3.225 3.225v12.899a3.225 3.225 0 0 1-3.225 3.225"/></g><g><path fill="#fff" d="M24.068 54.94l-6.539 6.538-3.091-3.08-1.988 1.984 5.08 5.08 8.522-8.524z"/></g></g></g></g></svg>