<svg xmlns="http://www.w3.org/2000/svg" width="86" height="86" viewBox="0 0 86 86"><g><g><g><g><g><path fill="#fff" d="M0 85.999h86V0H0z"/></g><g><path fill="#e1e4e6" d="M6.658 69.916L3.63 71.568v14.426h6.055V67.01z"/></g><g><path fill="#e1e4e6" d="M15.75 61.202v24.797h6.056V55.39z"/></g><g><path fill="#e1e4e6" d="M30.888 46.673L27.86 49.58V86h6.056V45.14z"/></g><g><path fill="#e1e4e6" d="M39.97 42.074V86h6.056V39.01z"/></g><g><path fill="#e1e4e6" d="M55.108 34.408l-3.028 1.531v50.055h6.056V30.25z"/></g><g><path fill="#e1e4e6" d="M64.2 24.343V86h6.057V17.63z"/></g><g><path fill="#e1e4e6" d="M79.34 7.56l-3.03 4.158V86h6.057V7.56z"/></g><g><g><path fill="#37414b" d="M6.66 70.782a.86.86 0 0 1-.595-1.481L30.29 46.05a.87.87 0 0 1 .207-.146l24.082-12.188L78.697 6.984a.86.86 0 0 1 1.277 1.152L55.75 34.988a.843.843 0 0 1-.25.191l-24.11 12.202-24.134 23.16a.859.859 0 0 1-.595.24"/></g><g><path fill="#0af" d="M0 69.922a6.662 6.662 0 1 1 13.324 0 6.662 6.662 0 0 1-13.324 0"/></g><g><path fill="#0af" d="M24.278 47.545a6.661 6.661 0 0 1 5.732-7.477 6.66 6.66 0 0 1 7.477 5.732 6.661 6.661 0 1 1-13.209 1.745"/></g><g><path fill="#0af" d="M48.508 35.285a6.663 6.663 0 1 1 13.21-1.744 6.663 6.663 0 0 1-13.21 1.744"/></g><g><path fill="#0af" d="M72.728 8.435a6.663 6.663 0 1 1 13.21-1.744 6.663 6.663 0 0 1-13.21 1.744"/></g></g></g></g></g></g></svg>