<svg xmlns="http://www.w3.org/2000/svg" width="86" height="86" viewBox="0 0 86 86"><defs><clipPath id="japra"><path d="M39.312 25.309l-3.197-3.185-2.055 2.052 5.252 5.252 8.81-8.812-2.051-2.066z"/></clipPath><clipPath id="japrb"><path d="M70.05 31.842l-2.313-2.305-1.487 1.484 3.8 3.802 6.377-6.377-1.484-1.496z"/></clipPath></defs><g><g><g><path fill="#fff" d="M.71 85.165h85.055V.11H.71z"/></g><g><g><path fill="#fff" d="M81.147 69.731H49.13a3.78 3.78 0 0 1-3.78-3.78V19.33a3.78 3.78 0 0 1 3.78-3.781h32.017a3.78 3.78 0 0 1 3.78 3.78v46.62a3.78 3.78 0 0 1-3.78 3.781"/></g><g><path fill="#37414b" d="M81.961 70.56H48.322a3.807 3.807 0 0 1-3.802-3.802v-15.76a.834.834 0 0 1 1.667 0v15.76c0 1.177.958 2.133 2.135 2.133h33.64a2.136 2.136 0 0 0 2.134-2.133V18.513a2.137 2.137 0 0 0-2.135-2.135H48.322a2.138 2.138 0 0 0-2.135 2.135v19.362a.834.834 0 0 1-1.667 0V18.513a3.807 3.807 0 0 1 3.802-3.803h33.64a3.808 3.808 0 0 1 3.802 3.803v48.245a3.807 3.807 0 0 1-3.803 3.802"/></g><g><path fill="#e1e4e6" d="M76.89 49.215H53.674a2.552 2.552 0 1 1 0-5.105H76.89a2.552 2.552 0 1 1 0 5.105"/></g><g><path fill="#e1e4e6" d="M67.242 57.745h-13.57a2.552 2.552 0 1 1 0-5.105h13.57a2.553 2.553 0 0 1 0 5.105"/></g><g><path fill="#37414b" d="M78.541 64.059h-5.117a.834.834 0 0 1 0-1.669h5.117a.834.834 0 0 1 0 1.669"/></g><g><path fill="#fff" d="M55.58 82.219H5.32a3.78 3.78 0 0 1-3.78-3.78V6.84a3.78 3.78 0 0 1 3.78-3.78h50.26a3.78 3.78 0 0 1 3.78 3.78V78.44a3.78 3.78 0 0 1-3.78 3.78"/></g><g><path fill="#37414b" d="M55.027 83.057H5.881A5.178 5.178 0 0 1 .71 77.884V54.86a.835.835 0 0 1 1.668 0v23.024a3.507 3.507 0 0 0 3.503 3.504h49.146a3.507 3.507 0 0 0 3.503-3.504V7.401a3.507 3.507 0 0 0-3.503-3.503H5.881a3.507 3.507 0 0 0-3.503 3.503V35.69a.834.834 0 1 1-1.668 0V7.4A5.178 5.178 0 0 1 5.881 2.23h49.146a5.178 5.178 0 0 1 5.171 5.171v70.483a5.178 5.178 0 0 1-5.171 5.173"/></g><g><path fill="#e1e4e6" d="M47.62 52.238H13.7a3.73 3.73 0 0 1 0-7.458h33.92a3.729 3.729 0 1 1 0 7.458"/></g><g><path fill="#e1e4e6" d="M33.524 64.708H13.699a3.73 3.73 0 0 1 0-7.458h19.825a3.729 3.729 0 1 1 0 7.458"/></g><g><path fill="#37414b" d="M50.03 73.549h-7.476a.834.834 0 0 1 0-1.669h7.476a.834.834 0 0 1 0 1.669"/></g><g><path fill="#0af" d="M41.356 12.68c-6.03.008-10.913 4.894-10.906 10.915.008 6.02 4.903 10.895 10.932 10.887 6.032-.007 10.914-4.893 10.906-10.914-.007-6.021-4.902-10.896-10.932-10.888"/></g></g><g><g/><g clip-path="url(#japra)"><path fill="#fff" d="M29.12 34.366h23.941V13.61H29.12z"/></g></g><g><path fill="#0af" d="M71.533 22.71c-4.364.006-7.898 3.542-7.893 7.9.006 4.357 3.548 7.885 7.913 7.88 4.364-.006 7.899-3.542 7.893-7.9-.006-4.357-3.548-7.886-7.913-7.88"/></g><g><g/><g clip-path="url(#japrb)"><path fill="#fff" d="M62.67 38.403h17.328V23.38H62.67z"/></g></g></g></g></svg>