<svg xmlns="http://www.w3.org/2000/svg" width="86" height="86" viewBox="0 0 86 86"><g><g><g><path fill="#fff" d="M0 86h86V0H0z"/></g><g><g><path fill="#fff" d="M.84 70.904h84.314V33.45H.84z"/></g><g><path fill="#0af" d="M13.33 70.9h9.368V47.49H13.33z"/></g><g><path fill="#e0e3e5" d="M13.33 47.978h9.368V33.45H13.33z"/></g><g><path fill="#e0e3e5" d="M38.32 59.98h9.368V33.45H38.32z"/></g><g><path fill="#e0e3e5" d="M63.3 40.714h9.368V33.45H63.3z"/></g><g><path fill="#0af" d="M38.32 70.905h9.368V59.98H38.32z"/></g><g><path fill="#0af" d="M63.3 70.9h9.368V40.71H63.3z"/></g><g><path fill="#fff" d="M13.333 6.58H10.21v8.146h15.614V6.58z"/></g><g><g><path fill="#37414b" d="M10.213 15.563a.843.843 0 0 1-.843-.844V6.574c0-.466.377-.844.843-.844h15.614c.465 0 .843.378.843.844v8.145a.844.844 0 0 1-.843.844zm.844-1.689h13.917V7.42H11.057z"/></g><g><path fill="#37414b" d="M13.333 26.404a.844.844 0 0 1-.843-.844V14.723a.843.843 0 0 1 1.686 0V25.56a.844.844 0 0 1-.843.844"/></g><g><path fill="#37414b" d="M18.017 85.88a5.533 5.533 0 0 1-5.527-5.525v-1.561a.844.844 0 1 1 1.686 0v1.561a3.844 3.844 0 0 0 3.84 3.838 3.844 3.844 0 0 0 3.842-3.838v-1.561a.844.844 0 1 1 1.686 0v1.561a5.533 5.533 0 0 1-5.527 5.525"/></g><g><path fill="#37414b" d="M22.703 26.404a.844.844 0 0 1-.843-.844V14.723a.843.843 0 0 1 1.686 0V25.56a.844.844 0 0 1-.843.844"/></g><g><path fill="#fff" d="M35.19 14.725h15.614V6.58H35.19z"/></g><g><path fill="#37414b" d="M35.193 15.563a.843.843 0 0 1-.843-.844V6.574c0-.466.377-.844.843-.844h15.614c.465 0 .842.378.842.844v8.145a.843.843 0 0 1-.842.844zm.843-1.689h13.917V7.42H36.036z"/></g><g><path fill="#37414b" d="M38.313 26.404a.844.844 0 0 1-.843-.844V14.723a.843.843 0 0 1 1.686 0V25.56a.844.844 0 0 1-.843.844"/></g><g><path fill="#37414b" d="M42.997 85.88a5.533 5.533 0 0 1-5.527-5.525v-1.561a.844.844 0 1 1 1.686 0v1.561a3.844 3.844 0 0 0 3.84 3.838 3.844 3.844 0 0 0 3.842-3.838v-1.561a.844.844 0 1 1 1.686 0v1.561a5.533 5.533 0 0 1-5.527 5.525"/></g><g><path fill="#37414b" d="M47.683 26.404a.844.844 0 0 1-.843-.844V14.723a.843.843 0 0 1 1.686 0V25.56a.844.844 0 0 1-.843.844"/></g><g><path fill="#fff" d="M60.18 14.725h15.614V6.58H60.18z"/></g><g><path fill="#37414b" d="M60.174 15.563a.844.844 0 0 1-.844-.844V6.574c0-.466.378-.844.844-.844h15.614c.465 0 .842.378.842.844v8.145a.843.843 0 0 1-.842.844zm.843-1.689h13.917V7.42H61.017z"/></g><g><path fill="#37414b" d="M63.293 26.404a.844.844 0 0 1-.843-.844V14.723a.843.843 0 0 1 1.686 0V25.56a.844.844 0 0 1-.843.844"/></g><g><path fill="#37414b" d="M67.977 85.88a5.533 5.533 0 0 1-5.527-5.525v-1.561a.844.844 0 1 1 1.686 0v1.561a3.844 3.844 0 0 0 3.84 3.838 3.844 3.844 0 0 0 3.842-3.838v-1.561a.844.844 0 1 1 1.686 0v1.561a5.533 5.533 0 0 1-5.527 5.525"/></g><g><path fill="#37414b" d="M72.663 26.404a.844.844 0 0 1-.843-.844V14.723a.843.843 0 0 1 1.686 0V25.56a.844.844 0 0 1-.843.844"/></g><g><path fill="#37414b" d="M.843 71.751A.843.843 0 0 1 0 70.908V33.454c0-.466.377-.844.843-.844h84.314c.466 0 .843.378.843.844v37.454a.843.843 0 0 1-.843.843zm.844-1.697h82.616V34.297H1.687z"/></g></g></g></g></g></svg>