<svg xmlns="http://www.w3.org/2000/svg" width="94" height="94" viewBox="0 0 94 94"><defs><clipPath id="hqywa"><path d="M0 12.04h92.099v70.6H0z"/></clipPath></defs><g><g><g><path fill="#fff" d="M0 94h94V0H0z"/></g><g><g><g/><g clip-path="url(#hqywa)"><path fill="#fff" d="M1.482 34.371c-1.474 1.258-2.109 4.503-.677 6.66C3.471 44.87 10.936 54.221 22.65 58.17c2.639.907 9.18 4.328 9.186 4.328 2.4 1.566 4.713 3.423 7.258 5.826l1.467 1.47a.77.77 0 0 0 .944.108c2.354 2.489 4.284 4.851 6.102 6.628a.773.773 0 0 0 .214 1.021l1.752 1.244c2.847 1.979 6.259 3.133 10.757 3.637l2.192.188c4.232.11 8.687-.27 12.487-.656l1.08-.774c16.207-1.649 16.214-12.477 15.956-15.016-.575-5.644-6.09-6.184-7-6.302l-9.432-2.761c-3.126-.929-4.814-3.392-5.36-4.338-8.305-18.592-14.277-31.85-14.277-31.85a.782.782 0 0 0-.75-.46c-.389.027-9.076.509-12.26 5.904-2.121-1.567-3.7-3.254-4.821-5.15-.394-.62-.534-1.57-.427-2.994l-.01-.304c-.046-1.513-.098-3.226-1.495-4.573-1.202-1.091-2.908-1.484-5.367-1.233l-.3.03c-9.483.964-17.008 6.916-21.769 17.215-.073.111-.115.219-.143.308l-1.014.641z"/></g></g><g><path fill="#e0e3e5" d="M91.555 61.912c-8.216 14.843-33.036 13.176-38.113 6.515-2.79-3.66-7.251-10.954-18.514-14.67C23.666 50.042 8.68 30.14 8.68 30.14c-2.515 1.594-6.292 3.935-7.432 4.874-1.232 1.052-1.768 3.887-.551 5.72 3.74 5.384 11.267 13.574 21.824 17.134 2.774.952 9.52 4.488 9.52 4.488 2.866 1.87 5.347 3.984 7.512 6.03l1.49 1.495c2.881 3.002 5.129 5.862 7.282 7.805l1.777 1.26c3.102 2.156 6.703 3.128 10.557 3.56l2.182.188c4.026.106 8.318-.227 12.6-.663l2.14-.218c.47-.048.93-.109 1.38-.177.747-.3 1.687-.449 2.718-.856 19.697-7.77 9.876-18.868 9.876-18.868"/></g><g><path fill="#0af" d="M28.91 34.94l-.832 5.49-2.038 6.176.184 1.814 5.076 3.995 4.502 1.463 4.646 2.24 4.575 2.747 4.102 5.011 1.472 2.059 1.574-1.358-2.805-16.394-3.943-5.355-11.134-6.744z"/></g><g><path fill="#37414b" d="M54.22 32.204c-7.706 0-11.548-4.181-11.741-4.398a.94.94 0 0 1 1.4-1.254c.212.234 5.215 5.587 15.563 3.128a.94.94 0 0 1 .434 1.83c-2.074.492-3.96.694-5.655.694"/></g><g><path fill="#37414b" d="M12.62 35.717a.938.938 0 0 1-.717-.333c-2.433-2.868-3.988-4.927-4.004-4.95a.94.94 0 0 1 1.502-1.131c.015.022 1.54 2.042 3.936 4.866a.94.94 0 0 1-.717 1.548"/></g><g><path fill="#0af" d="M52.174 67.434h-.019a.94.94 0 0 1-.92-.957c.001-.108.165-10.783-3.671-19.134-3.74-8.146-18.53-12.065-18.68-12.104a.94.94 0 0 1 .471-1.819c.643.166 15.804 4.18 19.918 13.138 4.019 8.751 3.85 19.503 3.84 19.956a.938.938 0 0 1-.939.92"/></g><g><path fill="#37414b" d="M73.059 65.875a.94.94 0 0 1-.094-1.876c6.716-.682 12.087-4.633 12.14-4.674a.94.94 0 1 1 1.125 1.507c-.235.176-5.826 4.3-13.075 5.038a1.003 1.003 0 0 1-.096.005"/></g><g><path fill="#37414b" d="M69.585 74.338c-7.538 0-14.326-2.209-16.922-5.614-.27-.356-.558-.746-.866-1.163-2.907-3.95-7.3-9.918-17.193-13.183-4.107-1.356-9.091-4.88-14.813-10.476a.94.94 0 0 1 1.314-1.344c5.516 5.393 10.254 8.77 14.088 10.035 10.463 3.45 15.255 9.963 18.119 13.852.3.41.581.791.847 1.139 2.387 3.133 9.826 5.213 17.3 4.826 8.54-.435 15.328-3.773 18.626-9.158.147-.216.122-.271.099-.32-.69-1.52-8.019-3.243-14.412-3.967a.875.875 0 0 1-.162-.033c-3.778-1.124-5.803-4.07-6.5-5.285A13626.864 13626.864 0 0 0 54.824 21.78c-2.095.225-8.802 1.29-10.779 5.776a.94.94 0 0 1-1.393.394c-2.747-1.891-4.754-3.947-6.138-6.288-.783-1.232-.772-2.83-.689-3.943l-.008-.264c-.04-1.324-.078-2.576-.974-3.439-.824-.747-2.094-.998-4.097-.793l-.304.032c-9.023.917-16.205 6.649-20.775 16.576a.987.987 0 0 1-.049.093 2.98 2.98 0 0 1-.087.276.94.94 0 1 1-1.758-.666c.016-.046.026-.084.034-.115.03-.107.073-.272.188-.45C12.86 18.45 20.553 12.37 30.25 11.385l.304-.032c2.544-.255 4.315.153 5.572 1.291 1.468 1.413 1.525 3.267 1.57 4.754l.01.31a.9.9 0 0 1-.003.107c-.103 1.325.032 2.264.414 2.866 1.11 1.876 2.662 3.546 4.74 5.104 3.344-5.426 12.111-5.919 12.504-5.937.384-.022.744.2.903.551 0 0 6.076 13.488 14.522 32.398.536.927 2.206 3.363 5.284 4.31 13.24 1.507 15.46 4.243 15.826 5.047.316.693.232 1.447-.235 2.122-3.599 5.88-10.937 9.545-20.104 10.012-.661.034-1.32.05-1.97.05"/></g><g><path fill="#37414b" d="M25.1 48.013a.942.942 0 0 1-.75-1.506c7.203-9.57 2.085-33.136 2.032-33.373a.94.94 0 0 1 1.836-.407c.221 1.003 5.353 24.654-2.367 34.91a.94.94 0 0 1-.752.376"/></g></g></g></g></svg>