<svg xmlns="http://www.w3.org/2000/svg" width="580" height="90">
    <path id="svg_1" fill="#FFFFFF"
          d="m37.2,41.7c-6.2,0 -11.2,5 -11.2,11.2c0,6.2 5,11.2 11.2,11.2c6.2,0 11.2,-5 11.2,-11.2c0,-6.2 -5,-11.2 -11.2,-11.2"/>
    <polygon id="svg_2" fill="#64C800"
             points="344.29998779296875,38.79998779296875 295,38.79998779296875 295,45.600006103515625 315.6000061035156,45.600006103515625 315.6000061035156,83.89999389648438 323.6000061035156,83.89999389648438 323.6000061035156,45.600006103515625 344.29998779296875,45.600006103515625 "/>
    <path id="svg_3" fill="#64C800"
          d="m369.8,49c-4.1,-1 -8.8,-1.2 -13.4,0.5c-1.4,0.5 -2.6,1.2 -3.7,2.1l0,-2.6l-8,0l0,34.9l8,0l0,-19.7c0,-1.4 0.3,-2.7 0.8,-3.8c0.6,-1.1 1.3,-2.1 2.3,-2.8c1,-0.8 2.1,-1.4 3.4,-1.8c1.3,-0.4 2.7,-0.6 4.2,-0.6c0.9,0 1.6,0.1 2.3,0.2c0.7,0.1 1.4,0.3 2.1,0.6l1.3,0.5l1.9,-7.2l-1.2,-0.3z"/>
    <path id="svg_4" fill="#64C800"
          d="m410.2,54.8c-1.2,-1.7 -2.8,-3 -4.7,-4c-1.8,-0.9 -4,-1.6 -6.3,-1.9c-4.1,-0.6 -8,-0.7 -12.2,-0.1c-1.9,0.3 -3.8,0.8 -5.5,1.5c-1.8,0.8 -3.4,1.8 -4.8,3c-1.5,1.3 -2.5,2.9 -3.2,4.8l-0.1,0.2l7.5,1.8c0.4,-0.9 1,-1.6 1.8,-2.2c0.9,-0.7 1.8,-1.2 2.9,-1.6c1.1,-0.4 2.3,-0.7 3.5,-0.9c2.8,-0.4 5.2,-0.3 7.8,0c1.4,0.2 2.7,0.5 3.8,1.1c1.1,0.5 1.9,1.1 2.5,2c0.6,0.8 0.9,1.8 0.9,3.1l0,0.2l-14.9,0c-2,0 -4,0.1 -5.9,0.4c-2,0.3 -3.9,0.8 -5.5,1.6c-1.7,0.8 -3,1.9 -4.1,3.4c-1.1,1.5 -1.6,3.3 -1.6,5.5c0,2.7 0.7,4.9 2,6.5c1.3,1.6 2.9,2.8 4.9,3.5c1.9,0.7 4,1.2 6.2,1.5c2.1,0.2 4.2,0.3 6.2,0.3c2.7,0 5.3,-0.4 7.9,-1.2c1.8,-0.5 3.4,-1.3 4.8,-2.3l0,2.8l8,0l0,-22.6c0.1,-2.4 -0.6,-4.6 -1.9,-6.4zm-6.1,16.6c0,1 -0.4,1.8 -1.1,2.5c-0.8,0.8 -1.9,1.5 -3.1,2.1c-1.3,0.6 -2.7,1 -4.2,1.3c-1.5,0.3 -3,0.4 -4.2,0.4c-1.1,0 -2.4,0 -3.8,-0.1c-1.4,-0.1 -2.7,-0.3 -3.9,-0.7c-1.1,-0.3 -2.1,-0.9 -2.8,-1.6c-0.6,-0.6 -1,-1.4 -1,-2.5c0,-1.7 0.7,-2.8 2.2,-3.4c1.8,-0.8 4.3,-1.2 7.4,-1.2l14.4,0l0,3.2l0.1,0z"/>
    <path id="svg_5" fill="#64C800"
          d="m452.3,71.7c-0.4,1.1 -0.9,2 -1.8,2.8c-0.9,0.8 -1.9,1.4 -3.1,1.9c-1.2,0.5 -2.5,0.8 -3.9,1c-3.6,0.6 -6.8,0.4 -9.6,-0.4c-1.7,-0.5 -3.1,-1.1 -4.4,-2c-1.2,-0.9 -2.1,-2 -2.8,-3.4c-0.7,-1.4 -1,-3.1 -1,-5c0,-1.9 0.3,-3.6 1,-5c0.7,-1.4 1.6,-2.6 2.7,-3.5c1.2,-0.9 2.6,-1.7 4.2,-2.2c2.7,-0.8 5.9,-1 9.5,-0.4c1.3,0.2 2.6,0.6 3.9,1c1.2,0.5 2.2,1.1 3.2,1.9c0.9,0.8 1.5,1.7 1.8,2.8l0.4,1.1l7.5,-1.8l-0.5,-1.3c-0.8,-2.1 -1.9,-3.9 -3.4,-5.4c-1.4,-1.4 -3.1,-2.5 -5,-3.3c-1.8,-0.8 -3.8,-1.4 -5.8,-1.7c-4.9,-0.8 -9.8,-0.6 -14.1,0.6c-2.6,0.8 -4.9,1.9 -6.9,3.4c-2,1.5 -3.6,3.5 -4.8,5.7c-1.2,2.3 -1.8,4.9 -1.8,7.9c0,3.1 0.6,5.8 1.8,8c1.2,2.2 2.8,4.2 4.8,5.6c2,1.5 4.3,2.6 7,3.2c2.6,0.7 5.4,1 8.2,1c2,0 4.1,-0.2 6.1,-0.5c2.1,-0.3 4,-0.9 5.8,-1.7c1.8,-0.8 3.5,-1.9 4.9,-3.3c1.5,-1.4 2.6,-3.2 3.3,-5.4l0.5,-1.3l-7.6,-1.7l-0.1,1.4z"/>
    <polygon id="svg_6" fill="#64C800"
             points="504.29998779296875,49 491.5,49 472.0999755859375,61.70001220703125 472.0999755859375,37 464.0999755859375,37 464.0999755859375,83.89999389648438 472.0999755859375,83.89999389648438 472.0999755859375,70 474.4000244140625,68.39999389648438 495.20001220703125,83.89999389648438 507.5999755859375,83.89999389648438 481,64.10000610351562 "/>
    <path id="svg_7" fill="#64C800"
          d="m577.3,49c-4.1,-1 -8.8,-1.2 -13.4,0.5c-1.4,0.5 -2.6,1.2 -3.7,2.1l0,-2.6l-8,0l0,34.9l8,0l0,-19.7c0,-1.4 0.3,-2.7 0.8,-3.8c0.6,-1.1 1.3,-2.1 2.3,-2.8c1,-0.8 2.1,-1.4 3.4,-1.8c1.3,-0.4 2.7,-0.6 4.2,-0.6c0.9,0 1.6,0.1 2.3,0.2c0.7,0.1 1.4,0.3 2.1,0.6l1.3,0.5l1.9,-7.2l-1.2,-0.3z"/>
    <rect id="svg_8" x="86.900004" y="38.799998" fill="#FFFFFF" width="8" height="45.1"/>
    <path id="svg_9" fill="#FFFFFF"
          d="m136.9,51.9c-1.6,-1.2 -3.5,-2.1 -5.7,-2.7c-2.1,-0.6 -4.5,-0.8 -7,-0.8c-3,0 -5.8,0.5 -8.5,1.5c-1.7,0.7 -3.3,1.6 -4.7,2.8l0,-3.7l-8,0l0,34.9l8,0l0,-19.4c0,-1.5 0.4,-2.8 1.1,-3.9c0.8,-1.2 1.8,-2.2 2.9,-2.9c1.2,-0.8 2.6,-1.4 4.2,-1.8c1.6,-0.4 3.1,-0.6 4.6,-0.6c3.2,0 5.7,0.7 7.6,2.1c1.8,1.3 2.6,3.3 2.6,6l0,20.6l8,0l0,-20.6c0,-2.5 -0.4,-4.8 -1.3,-6.7c-0.8,-2 -2.1,-3.6 -3.8,-4.8"/>
    <path id="svg_10" fill="#FFFFFF"
          d="m181.1,65.7c-1.5,-0.7 -3.3,-1.3 -5.2,-1.7c-1.8,-0.4 -3.8,-0.7 -5.7,-0.9c-1.9,-0.2 -3.8,-0.4 -5.6,-0.6c-1.8,-0.2 -3.3,-0.4 -4.7,-0.8c-1.3,-0.3 -2.3,-0.7 -3,-1.2c-0.5,-0.4 -0.8,-0.8 -0.8,-1.4c0,-0.8 0.2,-1.3 0.7,-1.8c0.6,-0.6 1.3,-1 2.3,-1.4c1,-0.4 2.2,-0.6 3.5,-0.8c2.7,-0.3 5.6,-0.3 7.9,0c1.1,0.1 2.1,0.4 3,0.7c0.8,0.3 1.6,0.8 2.3,1.3c0.7,0.6 1.3,1.3 1.9,2.2l0.5,0.8l7.5,-2l-0.6,-1.4c-0.8,-1.8 -1.8,-3.2 -3.2,-4.4c-1.3,-1.1 -2.8,-2 -4.5,-2.7c-1.6,-0.6 -3.4,-1.1 -5.3,-1.3c-3.9,-0.5 -7.9,-0.4 -11.8,0.1c-2.2,0.3 -4.2,0.9 -6,1.7c-1.9,0.8 -3.4,2 -4.6,3.4c-1.3,1.5 -1.9,3.4 -1.9,5.7c0,2 0.5,3.6 1.6,4.9c1,1.2 2.3,2.1 3.9,2.8c1.5,0.7 3.3,1.2 5.1,1.5c1.8,0.3 3.7,0.6 5.7,0.8c1.9,0.2 3.8,0.4 5.5,0.6c1.7,0.2 3.3,0.5 4.7,0.9c1.3,0.4 2.3,0.8 3,1.4c0.6,0.5 0.8,1.1 0.8,1.9c0,0.8 -0.2,1.4 -0.8,1.8c-0.7,0.6 -1.6,1 -2.7,1.3c-1.2,0.3 -2.5,0.5 -3.9,0.6c-3.1,0.2 -5.8,0.2 -8.2,-0.1c-1.2,-0.1 -2.3,-0.4 -3.4,-0.8c-1,-0.4 -2,-0.9 -2.8,-1.6c-0.8,-0.7 -1.6,-1.6 -2.3,-2.7l-0.5,-0.9l-7.5,2.4l0.6,1.3c0.9,2 2.1,3.6 3.6,4.9c1.5,1.2 3.1,2.2 4.9,2.9c1.8,0.7 3.6,1.1 5.6,1.3c1.9,0.2 3.9,0.3 5.9,0.3c2,0 4.1,-0.1 6.4,-0.3c2.3,-0.2 4.4,-0.7 6.3,-1.5c2,-0.7 3.7,-1.8 5,-3.3c1.4,-1.5 2.1,-3.5 2.1,-6c0,-2 -0.5,-3.7 -1.6,-5.1c-0.8,-1 -2.1,-2.1 -3.7,-2.8"/>
    <path id="svg_11" fill="#FFFFFF"
          d="m195.3,37c-1.3,0 -2.5,0.4 -3.4,1.3c-0.9,0.9 -1.4,2 -1.4,3.3c0,1.3 0.5,2.4 1.4,3.3c0.9,0.9 2.1,1.3 3.4,1.3c1.3,0 2.5,-0.4 3.4,-1.3c0.9,-0.9 1.4,-2 1.4,-3.3c0,-1.3 -0.5,-2.4 -1.4,-3.3c-0.9,-0.9 -2,-1.3 -3.4,-1.3"/>
    <rect id="svg_12" x="191.300004" y="48.999998" fill="#FFFFFF" width="8" height="34.9"/>
    <path id="svg_13" fill="#FFFFFF"
          d="m226.3,55.2c1.1,0 2.5,0.2 4.1,0.5c1.6,0.3 3.1,0.8 4.6,1.4c1.4,0.6 2.6,1.4 3.5,2.4c0.8,0.8 1.2,1.8 1.2,2.9l0,8.4c0,1.1 -0.4,2.1 -1.2,2.9c-0.9,0.9 -2.1,1.7 -3.4,2.3c-1.4,0.6 -2.9,1.1 -4.5,1.3c-1.6,0.3 -2.9,0.4 -4.1,0.4c-1.9,0 -3.8,-0.2 -5.5,-0.7c-1.6,-0.4 -3.1,-1.1 -4.3,-2c-1.2,-0.9 -2.1,-2 -2.7,-3.4c-0.7,-1.4 -1,-3 -1,-5c0,-1.9 0.3,-3.5 1,-4.9c0.6,-1.4 1.6,-2.6 2.7,-3.5c1.2,-1 2.5,-1.7 4.1,-2.2c1.7,-0.5 3.6,-0.8 5.5,-0.8m13.5,-3.1c-1.6,-1.1 -3.3,-1.9 -5.2,-2.5c-5.6,-1.7 -11.4,-1.6 -16.4,-0.1c-2.6,0.8 -4.8,1.9 -6.8,3.4c-1.9,1.5 -3.5,3.5 -4.6,5.7c-1.1,2.3 -1.7,4.9 -1.7,7.9c0,3.1 0.6,5.8 1.7,8.1c1.1,2.3 2.7,4.2 4.7,5.6c1.9,1.5 4.2,2.5 6.9,3.2c2.6,0.7 5.3,1 8.3,1c1.3,0 2.7,-0.1 4,-0.2c1.4,-0.2 2.7,-0.4 4.1,-0.8c1.3,-0.4 2.6,-0.9 3.8,-1.5c0.4,-0.2 0.9,-0.5 1.3,-0.7l0,2.7l8,0l0,-46.9l-8,0l0,15.1l-0.1,0z"/>
    <path id="svg_14" fill="#FFFFFF"
          d="m284.9,74.7c-0.9,0.8 -2,1.4 -3.1,1.8c-1.2,0.4 -2.5,0.8 -3.8,0.9c-2.9,0.3 -6.3,0.4 -9.3,-0.4c-1.6,-0.4 -3,-1 -4.2,-1.8c-1.2,-0.8 -2.2,-1.8 -2.9,-3c-0.5,-0.8 -0.9,-1.8 -1.1,-2.9l34.2,0l0,-3.5c0,-2.9 -0.7,-5.4 -1.9,-7.6c-1.2,-2.2 -2.8,-4 -4.8,-5.5c-2,-1.5 -4.2,-2.6 -6.7,-3.3c-5.1,-1.5 -11,-1.4 -16,0.1c-2.6,0.8 -4.8,1.9 -6.8,3.4c-2,1.5 -3.6,3.5 -4.7,5.7c-1.2,2.3 -1.8,4.9 -1.8,7.9c0,3.1 0.6,5.8 1.8,8c1.2,2.3 2.8,4.1 4.8,5.6c2,1.4 4.3,2.5 6.9,3.3c2.6,0.7 5.3,1 8.2,1c2.2,0 4.3,-0.1 6.3,-0.4c2,-0.3 4,-0.8 5.7,-1.5c1.8,-0.8 3.4,-1.8 4.9,-3.1c1.5,-1.3 2.7,-3 3.8,-5.1l0.1,-0.2l-7.2,-2.3c-0.7,1.2 -1.5,2.2 -2.4,2.9zm-22.9,-14.5c0.8,-1.1 1.8,-2 2.9,-2.8c1.2,-0.7 2.5,-1.3 3.9,-1.7c2.9,-0.7 6.2,-0.7 9.1,0c1.4,0.4 2.7,0.9 3.9,1.7c1.1,0.8 2.1,1.7 2.9,2.8c0.5,0.7 0.9,1.5 1.2,2.3l-25.2,0c0.4,-0.8 0.8,-1.6 1.3,-2.3z"/>
    <path id="svg_15" fill="#64C800"
          d="m536.9,74.7c-0.9,0.8 -2,1.4 -3.1,1.8c-1.2,0.4 -2.5,0.8 -3.8,0.9c-2.9,0.3 -6.3,0.4 -9.3,-0.4c-1.6,-0.4 -3,-1 -4.2,-1.8c-1.2,-0.8 -2.2,-1.8 -2.9,-3c-0.5,-0.8 -0.9,-1.8 -1.1,-2.9l34.2,0l0,-3.5c0,-2.9 -0.7,-5.4 -1.9,-7.6c-1.2,-2.2 -2.8,-4 -4.8,-5.5c-2,-1.5 -4.2,-2.6 -6.7,-3.3c-5.1,-1.5 -11,-1.4 -16,0.1c-2.6,0.8 -4.8,1.9 -6.8,3.4c-2,1.5 -3.6,3.5 -4.7,5.7c-1.2,2.3 -1.8,4.9 -1.8,7.9c0,3.1 0.6,5.8 1.8,8c1.2,2.3 2.8,4.1 4.8,5.6c2,1.4 4.3,2.5 6.9,3.3c2.6,0.7 5.3,1 8.2,1c2.2,0 4.3,-0.1 6.3,-0.4c2,-0.3 4,-0.8 5.7,-1.5c1.8,-0.8 3.4,-1.8 4.9,-3.1c1.5,-1.3 2.7,-3 3.8,-5.1l0.1,-0.2l-7.2,-2.3c-0.8,1.2 -1.5,2.2 -2.4,2.9zm-22.9,-14.5c0.8,-1.1 1.8,-2 2.9,-2.8c1.2,-0.7 2.5,-1.3 3.9,-1.7c2.9,-0.7 6.2,-0.7 9.1,0c1.4,0.4 2.7,0.9 3.9,1.7c1.1,0.8 2.1,1.7 2.9,2.8c0.5,0.7 0.9,1.5 1.2,2.3l-25.2,0c0.4,-0.8 0.8,-1.6 1.3,-2.3z"/>
    <path id="svg_16" fill="#64C800"
          d="m39.6,3.3l0,7.5c4.5,5.8 23.7,24.5 23.8,36.5c0.1,14.5 -11.7,26.2 -26.2,26.2c-14.5,0 -26.2,-11.7 -26.2,-26.2c0,-11.6 19.2,-29.9 23.8,-36.1l0,-7.9c-8,6.6 -33.5,29 -33.5,45.7c0,19.8 16.1,35.9 35.9,35.9c19.8,0 35.9,-16.1 35.9,-35.9c0,-16.8 -25.4,-39.1 -33.5,-45.7z"/>
</svg>
