<svg xmlns:xlink="http://www.w3.org/1999/xlink" xmlns="http://www.w3.org/2000/svg">
    <defs>
        <path id="r9y5a"
              d="M424.99 137.526a4.868 4.868 0 0 0 4.868-4.867v-.19h-4.95v-1.43h4.95v-1.858h-4.95v-1.431h4.95v-1.858h-4.95v-1.43h4.95v-.19a4.868 4.868 0 0 0-9.735 0v8.387a4.867 4.867 0 0 0 4.867 4.867z" />
        <path id="r9y5b"
              d="M431.718 132.755a6.736 6.736 0 0 1-6.729 6.728 6.737 6.737 0 0 1-6.728-6.728v-.28h-2.363v.28c0 4.457 3.328 8.317 7.742 8.98l.168.025v2.645h2.363v-2.645l.17-.026c4.412-.662 7.74-4.522 7.74-8.979v-.28h-2.363z" />
        <path id="gxk6a"
              d="M488.441 637.619h-46.273c-2.035 0-3.7-1.653-3.7-3.688V573.35a3.713 3.713 0 0 1 3.7-3.701H486.28c2.022 0 3.688 1.666 3.688 3.701v44.858z" />
        <path id="gxk6b"
              d="M490.019 599.491a.75.75 0 0 1-.75-.75v-25.075a2.928 2.928 0 0 0-2.923-2.925h-43.934a2.934 2.934 0 0 0-2.936 2.925v22.203a.75.75 0 0 1-1.5 0v-22.203c0-2.44 1.99-4.425 4.436-4.425h43.934a4.429 4.429 0 0 1 4.423 4.425v25.075a.75.75 0 0 1-.75.75z" />
        <path id="gxk6c"
              d="M444.778 623.262c-.68 5.812 5.096 14.192 5.096 14.192h9.578s-8.86-9.312-6.964-17.102c1.896-7.79-7.71 2.91-7.71 2.91z" />
        <path id="gxk6d"
              d="M453.815 583.885h22.032l-2.766 5.731h-19.266c-1.84 0-3.33-1.283-3.33-2.865 0-1.583 1.49-2.866 3.33-2.866z" />
        <path id="gxk6e"
              d="M453.815 626.967h22.032l-2.766 5.73h-19.266c-1.84 0-3.33-1.282-3.33-2.864 0-1.583 1.49-2.866 3.33-2.866z" />
        <path id="gxk6f"
              d="M476.08 620.406h-24.26l.102-5.73h24.158c1.839 0 3.329 1.282 3.329 2.864 0 1.583-1.49 2.866-3.33 2.866z" />
        <path id="gxk6g"
              d="M464.413 604.805c-1.205 0-2.39-.493-3.126-1.412-1.19-1.484-.756-3.519.969-4.543 9.156-5.438 14.172-12.259 14.123-19.205-.012-1.804 1.676-3.275 3.77-3.286 2.116.009 3.807 1.442 3.819 3.246.064 9.174-6.116 17.918-17.402 24.621a4.207 4.207 0 0 1-2.152.579z" />
        <path id="gxk6h"
              d="M464.414 605.555c-1.475 0-2.863-.633-3.712-1.693-.692-.863-.97-1.916-.78-2.962.2-1.096.91-2.078 1.95-2.695 8.918-5.297 13.803-11.887 13.756-18.555-.006-.983.392-1.93 1.12-2.667.856-.867 2.095-1.367 3.398-1.374 2.55.01 4.556 1.763 4.57 3.991.068 9.451-6.243 18.426-17.768 25.271a4.96 4.96 0 0 1-2.534.684zm15.733-28.446c-.901.005-1.754.343-2.332.928-.447.452-.69 1.021-.687 1.603.05 7.223-5.095 14.275-14.49 19.855-.676.401-1.116.995-1.24 1.673-.11.613.058 1.236.475 1.756.918 1.148 2.949 1.466 4.309.658 11.048-6.562 17.098-15.075 17.035-23.972-.01-1.396-1.358-2.494-3.07-2.5z" />
        <path id="gxk6i"
              d="M478.622 637.452c3.571-4.515 5.381-9.423 5.345-14.528-.064-9.106-6.242-17.653-17.398-24.072l-.003-.002c-9.055-5.378-14.07-12.124-14.123-18.994-.014-1.796-1.71-3.244-3.794-3.244h-.026c-2.095.012-3.783 1.484-3.769 3.288.07 9.063 6.25 17.702 17.402 24.326.009.005.018.008.027.014.008.004.014.011.023.015 9.026 5.181 14.024 11.825 14.072 18.71.036 5.052-2.609 10.04-7.58 14.477z" />
        <path id="gxk6j"
              d="M478.622 638.202a.75.75 0 0 1-.588-1.215c3.475-4.393 5.219-9.122 5.184-14.057-.062-8.827-6.108-17.147-17.023-23.428-9.301-5.525-14.447-12.497-14.502-19.64-.01-1.378-1.376-2.5-3.043-2.5-.93.005-1.783.344-2.361.93-.446.452-.69 1.021-.685 1.602.068 8.791 6.118 17.203 17.036 23.687l.035.022c9.279 5.33 14.404 12.2 14.454 19.355.037 5.236-2.671 10.438-7.831 15.044a.75.75 0 1 1-1-1.118c4.83-4.311 7.365-9.122 7.33-13.914-.045-6.605-4.91-13.02-13.695-18.063l-.036-.022-.047-.028c-11.363-6.748-17.674-15.614-17.746-24.95-.007-.983.39-1.93 1.118-2.669.855-.867 2.094-1.369 3.397-1.376 2.519 0 4.558 1.79 4.574 3.988.05 6.598 4.936 13.116 13.756 18.355 11.39 6.555 17.703 15.332 17.769 24.714.037 5.285-1.816 10.331-5.507 14.998a.75.75 0 0 1-.59.285z" />
        <path id="gxk6k"
              d="M452.367 623.219c-.05-6.426 4.204-12.645 12.038-17.685l-6.314-4.04c-8.772 6.139-13.375 13.688-13.313 21.768z" />
        <path id="gxk6l"
              d="M459.818 638.107a.748.748 0 0 1-.502-.193c-4.998-4.509-7.66-9.589-7.7-14.69-.05-6.372 3.994-12.618 11.414-17.68l-4.918-3.147c-8.295 5.937-12.644 13.141-12.584 20.858.037 4.697 1.75 9.262 5.093 13.57a.751.751 0 0 1-1.186.92c-3.55-4.575-5.368-9.446-5.407-14.477-.064-8.36 4.649-16.102 13.633-22.389a.75.75 0 0 1 .834-.018l6.314 4.041a.749.749 0 0 1 0 1.263c-7.587 4.881-11.74 10.935-11.692 17.047.035 4.67 2.526 9.37 7.203 13.588a.75.75 0 0 1-.502 1.307z" />
        <path id="gxk6m"
              d="M464.543 614.675h11.536c1.84 0 3.33 1.283 3.33 2.866 0 1.582-1.49 2.865-3.33 2.865h-11.783c-1.838 0-1.59-5.731.247-5.731z" />
        <path id="gxk6n"
              d="M476.08 621.156h-23.411a.75.75 0 0 1 0-1.5h23.41c1.423 0 2.58-.949 2.58-2.116 0-1.166-1.157-2.115-2.58-2.115h-20.895a.75.75 0 0 1 0-1.5h20.896c2.249 0 4.079 1.622 4.079 3.615 0 1.994-1.83 3.616-4.08 3.616z" />
        <path id="gxk6o"
              d="M465.351 632.698h-11.536c-1.839 0-3.329-1.283-3.329-2.866 0-1.582 1.49-2.865 3.329-2.865h11.783c1.838 0 1.591 5.731-.247 5.731z" />
        <path id="gxk6p"
              d="M472.793 633.448h-18.979c-2.249 0-4.079-1.622-4.079-3.616 0-1.993 1.83-3.615 4.08-3.615h21.748a.75.75 0 1 1 0 1.5h-21.749c-1.42 0-2.579.95-2.579 2.115 0 1.167 1.158 2.116 2.58 2.116h18.978a.75.75 0 0 1 0 1.5z" />
        <path id="gxk6q"
              d="M465.351 589.617h-11.536c-1.839 0-3.329-1.283-3.329-2.866 0-1.582 1.49-2.865 3.329-2.865h11.783c1.838 0 1.591 5.73-.247 5.73z" />
        <path id="gxk6r"
              d="M472.793 590.367h-18.979c-2.249 0-4.079-1.622-4.079-3.616 0-1.993 1.83-3.615 4.08-3.615h21.748a.75.75 0 1 1 0 1.5h-21.749c-1.42 0-2.579.949-2.579 2.115 0 1.167 1.158 2.116 2.58 2.116h18.978a.75.75 0 0 1 0 1.5z" />
        <path id="gxk6s"
              d="M481.254 638.246h-38.843c-2.446 0-4.435-1.979-4.435-4.413v-26.065a.75.75 0 0 1 1.5 0v26.065c0 1.606 1.317 2.913 2.935 2.913h38.843a.75.75 0 0 1 0 1.5z" />
        <path id="gxk6t"
              d="M471.776 598.723h23.326a2.453 2.453 0 0 1 2.45 2.444v39.987c0 1.338-1.108 2.43-2.45 2.43h-23.326c-1.342 0-2.451-1.092-2.451-2.43v-39.987a2.453 2.453 0 0 1 2.45-2.444z" />
        <path id="gxk6u"
              d="M495.102 644.333h-23.326c-1.765 0-3.201-1.426-3.201-3.179v-39.987a3.201 3.201 0 0 1 3.2-3.194h23.327a3.201 3.201 0 0 1 3.2 3.195v39.987c0 1.753-1.435 3.179-3.2 3.179zm-23.326-44.86a1.7 1.7 0 0 0-1.701 1.694v39.987c0 .925.763 1.68 1.7 1.68h23.327c.938 0 1.7-.755 1.7-1.68v-39.987a1.7 1.7 0 0 0-1.7-1.694z" />
        <path id="gxk6v" d="M486.204 637.048h-5.53a.75.75 0 0 1 0-1.5h5.53a.75.75 0 0 1 0 1.5z" />
        <path id="gxk6w"
              d="M477.734 615.467l5.705-5.722 5.705 5.722a8.38 8.38 0 0 1 2.689 6.153c0 4.642-3.758 8.406-8.394 8.406s-8.393-3.764-8.393-8.406a8.379 8.379 0 0 1 2.688-6.153z" />
        <path id="gxk6x"
              d="M474.296 621.62a9.19 9.19 0 0 1 2.917-6.693l5.695-5.71a.768.768 0 0 1 1.062 0l5.705 5.721a9.167 9.167 0 0 1 2.908 6.682c0 5.05-4.102 9.156-9.144 9.156s-9.143-4.107-9.143-9.156zm9.143-10.813l-5.174 5.19-.02.02a7.579 7.579 0 0 0-2.45 5.603c0 4.222 3.429 7.656 7.644 7.656s7.644-3.434 7.644-7.656a7.58 7.58 0 0 0-2.45-5.604z" />
        <path id="ndj7a"
              d="M443.349 385.943H384.56c-2.585 0-4.702-2.1-4.702-4.686v-76.966a4.717 4.717 0 0 1 4.702-4.702H440.602c2.569 0 4.686 2.117 4.686 4.702v56.991z" />
        <path id="ndj7b"
              d="M445.353 337.3a.75.75 0 0 1-.75-.75v-31.857a3.922 3.922 0 0 0-3.917-3.92H384.87c-2.17 0-3.933 1.759-3.933 3.92V332.9a.75.75 0 0 1-1.5 0v-28.208c0-2.988 2.438-5.42 5.433-5.42h55.817a5.424 5.424 0 0 1 5.417 5.42v31.857a.75.75 0 0 1-.75.75z" />
        <path id="ndj7c"
              d="M387.875 367.702c-.864 7.384 6.474 18.03 6.474 18.03h12.17s-11.256-11.83-8.848-21.727c2.41-9.896-9.796 3.697-9.796 3.697z" />
        <path id="ndj7d"
              d="M399.357 317.676h27.99l-3.513 7.281h-24.477c-2.336 0-4.23-1.63-4.23-3.64 0-2.01 1.894-3.64 4.23-3.64z" />
        <path id="ndj7e"
              d="M399.357 372.41h27.99l-3.513 7.281h-24.477c-2.336 0-4.23-1.63-4.23-3.64 0-2.011 1.894-3.641 4.23-3.641z" />
        <path id="ndj7f"
              d="M427.644 364.075h-30.822l.13-7.281h30.692c2.336 0 4.229 1.63 4.229 3.64 0 2.01-1.893 3.64-4.23 3.64z" />
        <path id="ndj7g"
              d="M412.822 344.254c-1.53 0-3.037-.626-3.973-1.793-1.51-1.887-.96-4.471 1.231-5.772 11.632-6.91 18.005-15.575 17.943-24.4-.016-2.292 2.13-4.16 4.791-4.175 2.687.01 4.835 1.832 4.85 4.125.082 11.655-7.769 22.764-22.109 31.28a5.353 5.353 0 0 1-2.733.735z" />
        <path id="ndj7h"
              d="M412.822 345.004c-1.813 0-3.517-.776-4.558-2.075-.842-1.05-1.179-2.329-.948-3.6.244-1.333 1.11-2.53 2.382-3.285 11.394-6.768 17.635-15.203 17.575-23.75-.009-1.194.476-2.346 1.363-3.244 1.05-1.063 2.571-1.678 4.174-1.686 3.127.012 5.585 2.151 5.604 4.87.084 11.932-7.898 23.272-22.476 31.93a6.101 6.101 0 0 1-3.116.84zm19.99-36.14c-1.201.006-2.336.458-3.108 1.24-.605.613-.936 1.387-.931 2.18.064 9.101-6.438 17.998-18.31 25.05-.91.54-1.503 1.344-1.67 2.263-.152.837.076 1.687.643 2.394.758.947 2.025 1.513 3.387 1.513.844 0 1.656-.218 2.35-.63 14.1-8.375 21.822-19.253 21.742-30.63-.013-1.887-1.815-3.37-4.103-3.38z" />
        <path id="ndj7i"
              d="M430.873 385.731c4.537-5.736 6.837-11.972 6.791-18.457-.082-11.569-7.932-22.427-22.104-30.583l-.004-.002c-11.503-6.833-17.876-15.403-17.943-24.13-.017-2.284-2.173-4.123-4.82-4.123h-.033c-2.66.015-4.806 1.885-4.788 4.177.088 11.514 7.94 22.491 22.11 30.906l.033.017c.01.006.018.014.03.02 11.467 6.582 17.817 15.023 17.877 23.768.046 6.421-3.315 12.758-9.63 18.395z" />
        <path id="ndj7j"
              d="M430.873 386.481a.75.75 0 0 1-.588-1.215c4.444-5.619 6.675-11.67 6.63-17.987-.08-11.288-7.796-21.92-21.729-29.938a.075.075 0 0 0-.012-.007c-11.738-6.973-18.241-15.77-18.31-24.77-.014-1.863-1.84-3.378-4.07-3.378-1.236.006-2.372.46-3.143 1.242-.605.613-.935 1.387-.929 2.18.087 11.241 7.808 21.99 21.742 30.266.039.021.098.058.133.085 11.63 6.668 18.113 15.337 18.176 24.36.047 6.591-3.37 13.147-9.881 18.96a.75.75 0 1 1-.999-1.12c6.18-5.517 9.424-11.682 9.38-17.829-.059-8.468-6.275-16.679-17.503-23.123a.998.998 0 0 1-.072-.048c-14.425-8.58-22.385-19.769-22.476-31.54-.009-1.194.474-2.346 1.361-3.245 1.049-1.063 2.57-1.679 4.173-1.688 3.088 0 5.587 2.183 5.608 4.866.065 8.454 6.305 16.797 17.573 23.49a.667.667 0 0 1 .068.045c14.343 8.248 22.326 19.338 22.41 31.182.047 6.666-2.292 13.034-6.953 18.927a.75.75 0 0 1-.589.285z" />
        <path id="ndj7k"
              d="M397.517 367.648c-.064-8.164 5.34-16.065 15.293-22.468l-8.02-5.134c-11.146 7.8-16.994 17.392-16.915 27.657h.001z" />
        <path id="ndj7l"
              d="M406.983 386.36a.748.748 0 0 1-.502-.192c-6.306-5.69-9.665-12.091-9.714-18.514-.064-8.1 5.134-16.044 14.665-22.465l-6.623-4.24c-10.667 7.599-16.26 16.839-16.184 26.748.047 6.012 2.238 11.853 6.513 17.362a.75.75 0 0 1-1.186.92c-4.48-5.775-6.778-11.922-6.826-18.27-.083-10.551 5.877-20.33 17.232-28.277a.75.75 0 0 1 .835-.017l8.021 5.133a.75.75 0 0 1 .001 1.263c-9.7 6.24-15.01 13.994-14.948 21.83.046 5.992 3.233 12.013 9.218 17.413a.75.75 0 0 1-.502 1.307z" />
        <path id="ndj7m"
              d="M412.987 356.793h14.656c2.336 0 4.23 1.63 4.23 3.641 0 2.01-1.894 3.64-4.23 3.64h-14.969c-2.336 0-2.023-7.28.313-7.28z" />
        <path id="ndj7n"
              d="M427.644 364.825H397.9a.75.75 0 0 1 0-1.5h29.743c1.918 0 3.479-1.297 3.479-2.891 0-1.593-1.561-2.89-3.48-2.89h-26.546a.75.75 0 0 1 0-1.5h26.547c2.746 0 4.979 1.969 4.979 4.39 0 2.42-2.233 4.39-4.98 4.39z" />
        <path id="ndj7o"
              d="M414.013 379.691h-14.656c-2.336 0-4.23-1.63-4.23-3.64 0-2.01 1.894-3.64 4.23-3.64h14.97c2.335 0 2.022 7.28-.314 7.28z" />
        <path id="ndj7p"
              d="M423.468 380.441h-24.11c-2.747 0-4.98-1.97-4.98-4.39 0-2.422 2.233-4.39 4.98-4.39h27.63a.75.75 0 0 1 0 1.5h-27.63c-1.92 0-3.48 1.296-3.48 2.89 0 1.593 1.56 2.89 3.48 2.89h24.11a.75.75 0 0 1 0 1.5z" />
        <path id="ndj7q"
              d="M414.013 324.957h-14.656c-2.336 0-4.23-1.63-4.23-3.64 0-2.01 1.894-3.64 4.23-3.64h14.97c2.335 0 2.022 7.28-.314 7.28z" />
        <path id="ndj7r"
              d="M423.468 325.707h-24.11c-2.747 0-4.98-1.97-4.98-4.39 0-2.422 2.233-4.39 4.98-4.39h27.63a.75.75 0 0 1 0 1.5h-27.63c-1.92 0-3.48 1.296-3.48 2.89 0 1.593 1.56 2.89 3.48 2.89h24.11a.75.75 0 0 1 0 1.5z" />
        <path id="ndj7s"
              d="M434.218 386.538H384.87c-2.996 0-5.433-2.424-5.433-5.403v-33.116a.75.75 0 0 1 1.5 0v33.116c0 2.152 1.764 3.903 3.933 3.903h49.348a.75.75 0 0 1 0 1.5z" />
        <path id="ndj7t"
              d="M422.176 336.527h29.635a3.116 3.116 0 0 1 3.114 3.105v50.802c0 1.7-1.41 3.087-3.114 3.087h-29.635c-1.705 0-3.114-1.387-3.114-3.087v-50.802a3.116 3.116 0 0 1 3.114-3.105z" />
        <path id="ndj7u"
              d="M451.81 394.271h-29.634c-2.13 0-3.864-1.722-3.864-3.837v-50.802a3.864 3.864 0 0 1 3.864-3.855h29.635a3.863 3.863 0 0 1 3.864 3.855v50.802c0 2.115-1.733 3.837-3.864 3.837zm-29.634-56.994a2.363 2.363 0 0 0-2.364 2.355v50.802c0 1.288 1.06 2.337 2.364 2.337h29.635c1.303 0 2.364-1.049 2.364-2.337v-50.802a2.363 2.363 0 0 0-2.364-2.355z" />
        <path id="ndj7v" d="M440.505 385.015h-7.024a.75.75 0 0 1 0-1.5h7.024a.75.75 0 0 1 0 1.5z" />
        <path id="ndj7w"
              d="M429.746 357.8l7.248-7.27 7.248 7.27a10.648 10.648 0 0 1 3.416 7.817c0 5.898-4.774 10.68-10.664 10.68s-10.664-4.782-10.664-10.68c0-3.09 1.32-5.867 3.416-7.817z" />
        <path id="ndj7x"
              d="M425.58 365.617a11.47 11.47 0 0 1 3.645-8.357l7.238-7.26a.77.77 0 0 1 1.062 0l7.248 7.27a11.45 11.45 0 0 1 3.635 8.347c0 6.303-5.12 11.43-11.414 11.43s-11.414-5.127-11.414-11.43zm11.414-14.025l-6.717 6.738-.02.019c-2.05 1.906-3.177 4.487-3.177 7.268 0 5.475 4.447 9.93 9.914 9.93 5.466 0 9.914-4.455 9.914-9.93 0-2.781-1.13-5.362-3.177-7.268z" />
        <path id="zcb4a"
              d="M623.61 623.86l-56.142-.65a2.696 2.696 0 0 1-2.685-2.69v-45.794c0-1.48 1.208-2.69 2.685-2.69h56.143a2.695 2.695 0 0 1 2.685 2.69v46.445a2.695 2.695 0 0 1-2.685 2.689z" />
        <path id="zcb4b"
              d="M626.296 577.943h-61.513v-2.159a3.759 3.759 0 0 1 3.748-3.748h54.017a3.759 3.759 0 0 1 3.748 3.748z" />
        <path id="zcb4c"
              d="M624.36 624.61h-11.536a.75.75 0 0 1 0-1.5h11.537c.653 0 1.185-.616 1.185-1.374v-47.577c0-.757-.532-1.373-1.185-1.373h-57.676c-.643 0-1.186.629-1.186 1.373v40.222a.75.75 0 0 1-1.5 0v-40.222c0-1.584 1.205-2.873 2.686-2.873h57.676c1.48 0 2.685 1.289 2.685 2.873v47.577c0 1.585-1.205 2.874-2.685 2.874z" />
        <path id="zcb4d" d="M564.75 579.01v-1.5h61.55v1.5z" />
        <path id="zcb4e" d="M605.42 615.78v-12.42h12.38v12.42z" />
        <path id="zcb4f"
              d="M611.42 612.992h-.017a.75.75 0 0 1-.588-.307l-2.874-3.926a.75.75 0 1 1 1.21-.886l2.297 3.137 6.358-7.915a.75.75 0 0 1 1.169.94l-6.971 8.677a.749.749 0 0 1-.584.28z" />
        <path id="zcb4g"
              d="M617.802 616.525h-12.383a.75.75 0 0 1-.75-.75v-12.417a.75.75 0 0 1 .75-.75h7.587a.75.75 0 1 1 0 1.5h-6.837v10.917h10.883v-4.412a.75.75 0 0 1 1.5 0v5.162a.75.75 0 0 1-.75.75z" />
        <path id="zcb4h" d="M605.42 597.15v-12.42h12.38v12.42z" />
        <path id="zcb4i"
              d="M611.42 594.362h-.017a.75.75 0 0 1-.588-.307l-2.874-3.926a.75.75 0 1 1 1.21-.886l2.297 3.137 6.358-7.915a.75.75 0 0 1 1.169.939l-6.971 8.678a.749.749 0 0 1-.584.28z" />
        <path id="zcb4j"
              d="M617.802 597.894h-12.383a.75.75 0 0 1-.75-.75v-12.417a.75.75 0 0 1 .75-.75h7.587a.75.75 0 1 1 0 1.5h-6.837v10.917h10.883v-4.412a.75.75 0 0 1 1.5 0v5.162a.75.75 0 0 1-.75.75z" />
        <path id="zcb4k"
              d="M554.376 621.151c-6.225-11.594-1.86-26.057 9.747-32.303 11.607-6.247 26.063-1.912 32.287 9.682 6.225 11.595 1.861 26.057-9.747 32.304-11.607 6.246-26.063 1.911-32.287-9.683z" />
        <path id="zcb4l"
              d="M562.318 630.564a.74.74 0 0 1-.41-.122 24.55 24.55 0 0 1-8.192-8.937c-6.41-11.939-1.901-26.885 10.052-33.318a24.433 24.433 0 0 1 10.419-2.916c.41-.006.766.298.787.711a.75.75 0 0 1-.712.787 22.93 22.93 0 0 0-9.783 2.74c-11.225 6.04-15.461 20.076-9.442 31.287a23.06 23.06 0 0 0 7.69 8.39.75.75 0 0 1-.41 1.378z" />
        <path id="zcb4m"
              d="M575.376 634.441c-.688 0-1.38-.029-2.066-.086a.75.75 0 0 1-.685-.81.763.763 0 0 1 .81-.685c.836.07 1.683.096 2.52.074a22.896 22.896 0 0 0 10.353-2.76c11.225-6.042 15.461-20.078 9.442-31.289a22.938 22.938 0 0 0-9.306-9.35.75.75 0 1 1 .715-1.32 24.428 24.428 0 0 1 9.913 9.96c6.41 11.94 1.9 26.887-10.052 33.32a24.364 24.364 0 0 1-11.644 2.946z" />
        <path id="zcb4n"
              d="M597.791 630.387a.75.75 0 0 1-.497-.188l-4.391-3.884a.751.751 0 0 1 .994-1.124l4.392 3.884a.75.75 0 0 1-.498 1.312z" />
        <path id="zcb4o"
              d="M622.917 651.827c-1.82 2.053-4.991 2.245-7.047.426l-17.667-15.625c-2.037-1.802-2.23-4.94-.427-6.974 1.82-2.053 4.992-2.245 7.048-.426l17.667 15.625c2.037 1.802 2.229 4.94.426 6.974z" />
        <path id="zcb4p"
              d="M619.178 654.255a5.726 5.726 0 0 1-3.806-1.44l-17.666-15.625a5.653 5.653 0 0 1-1.905-3.916 5.644 5.644 0 0 1 1.414-4.117 5.752 5.752 0 0 1 8.106-.49l17.667 15.624a5.654 5.654 0 0 1 1.904 3.916 5.645 5.645 0 0 1-1.414 4.118 5.732 5.732 0 0 1-4.3 1.93zm-17.663-25.53a4.235 4.235 0 0 0-3.178 1.427 4.155 4.155 0 0 0-1.038 3.03 4.156 4.156 0 0 0 1.4 2.884l17.668 15.625a4.247 4.247 0 0 0 5.988-.361 4.147 4.147 0 0 0 1.04-3.031 4.16 4.16 0 0 0-1.401-2.884l-17.667-15.625a4.235 4.235 0 0 0-2.812-1.064z" />
        <path id="zcb4q"
              d="M557.4 610.935c-.606-9.937 6.967-18.48 16.914-19.086 9.946-.604 18.5 6.961 19.105 16.898.605 9.936-6.969 18.48-16.915 19.085-9.946.604-18.5-6.96-19.105-16.897z" />
        <path id="zcb4r"
              d="M611.536 642.097a.748.748 0 0 1-.507-.197l-8.578-7.868a.75.75 0 0 1 1.014-1.105l8.578 7.867a.75.75 0 0 1-.507 1.303z" />
        <path id="zcb4s"
              d="M575.397 628.393c-9.73 0-17.924-7.597-18.523-17.426a18.42 18.42 0 0 1 4.632-13.424 18.456 18.456 0 0 1 12.776-6.22c10.227-.629 19.04 7.181 19.663 17.391a18.419 18.419 0 0 1-4.632 13.424 18.452 18.452 0 0 1-12.776 6.22c-.382.023-.763.035-1.14.035zm-17.026-17.517c.572 9.385 8.673 16.563 18.075 15.985a16.966 16.966 0 0 0 11.744-5.717 16.932 16.932 0 0 0 4.258-12.339c-.571-9.385-8.663-16.554-18.075-15.985a16.963 16.963 0 0 0-11.744 5.718 16.93 16.93 0 0 0-4.258 12.338z" />
        <path id="zcb4t"
              d="M575.566 614.242a.75.75 0 0 1 0-1.5 5.345 5.345 0 0 0 5.342-5.336.75.75 0 0 1 1.5 0c0 3.77-3.069 6.836-6.842 6.836z" />
        <path id="zcb4u"
              d="M564.034 619.31a.75.75 0 0 1-.229-1.465l7.356-2.355v-2.816c-1.528-1.285-2.432-3.225-2.437-5.266v-2.436c0-3.769 3.07-6.836 6.842-6.836 3.773 0 6.843 3.067 6.843 6.836v2.434a6.848 6.848 0 0 1-2.437 5.204v2.882l6.792 2.207a.75.75 0 1 1-.464 1.427l-7.31-2.376a.748.748 0 0 1-.518-.713v-3.79a.75.75 0 0 1 .301-.6 5.334 5.334 0 0 0 2.136-4.243v-2.432a5.346 5.346 0 0 0-5.343-5.336 5.346 5.346 0 0 0-5.342 5.336v2.434c.004 1.7.802 3.31 2.135 4.304.19.142.302.365.302.601v3.726a.75.75 0 0 1-.522.714l-7.876 2.522a.73.73 0 0 1-.229.036z" />
        <path id="9np3a"
              d="M615.078 368.462l-71.328-.827a3.423 3.423 0 0 1-3.41-3.416v-58.18a3.424 3.424 0 0 1 3.41-3.418h71.328a3.424 3.424 0 0 1 3.411 3.417v59.007a3.424 3.424 0 0 1-3.41 3.417z" />
        <path id="9np3b"
              d="M618.49 310.127h-78.15v-3.757a3.759 3.759 0 0 1 3.747-3.748h70.654a3.76 3.76 0 0 1 3.748 3.748z" />
        <path id="9np3c"
              d="M616.03 369.212h-14.656a.75.75 0 0 1 0-1.5h14.657c.942 0 1.708-.874 1.708-1.948V305.32c0-1.074-.766-1.948-1.708-1.948h-73.276c-.943 0-1.71.874-1.71 1.948v51.1a.75.75 0 0 1-1.5 0v-51.1c0-1.9 1.44-3.448 3.21-3.448h73.276c1.769 0 3.208 1.547 3.208 3.448v60.445c0 1.901-1.44 3.448-3.208 3.448z" />
        <path id="9np3d" d="M540.29 311.27v-1.5h78.19v1.5z" />
        <path id="9np3e" d="M591.97 358.2v-15.78h15.73v15.78z" />
        <path id="9np3f"
              d="M599.59 354.452h-.017a.75.75 0 0 1-.588-.307l-3.652-4.987a.75.75 0 0 1 1.21-.886l3.074 4.198 8.244-10.263a.75.75 0 1 1 1.169.94l-8.855 11.025a.752.752 0 0 1-.585.28z" />
        <path id="9np3g"
              d="M607.698 358.94h-15.732a.75.75 0 0 1-.75-.75v-15.775a.75.75 0 0 1 .75-.75h9.639a.75.75 0 0 1 0 1.5h-8.89v14.276h14.233v-5.81a.75.75 0 0 1 1.5 0v6.56a.75.75 0 0 1-.75.75z" />
        <path id="9np3h" d="M591.97 334.53v-15.78h15.73v15.78z" />
        <path id="9np3i"
              d="M599.59 330.783h-.017a.75.75 0 0 1-.588-.307l-3.652-4.987a.75.75 0 0 1 1.21-.886l3.074 4.198 8.244-10.263a.75.75 0 0 1 1.169.94l-8.855 11.025a.752.752 0 0 1-.585.28z" />
        <path id="9np3j"
              d="M607.698 335.271h-15.732a.75.75 0 0 1-.75-.75v-15.776a.75.75 0 0 1 .75-.75h9.639a.75.75 0 0 1 0 1.5h-8.89v14.276h14.233v-5.809a.75.75 0 0 1 1.5 0v6.56a.75.75 0 0 1-.75.75z" />
        <path id="9np3k"
              d="M527.117 365.021c-7.908-14.73-2.364-33.104 12.383-41.04 14.747-7.937 33.113-2.429 41.021 12.301 7.908 14.73 2.364 33.104-12.383 41.04-14.748 7.936-33.113 2.43-41.02-12.3z" />
        <path id="9np3l"
              d="M537.207 376.778a.748.748 0 0 1-.409-.122 30.994 30.994 0 0 1-10.341-11.28c-8.091-15.07-2.399-33.936 12.688-42.056a30.828 30.828 0 0 1 13.151-3.68.755.755 0 0 1 .787.71.75.75 0 0 1-.711.788 29.33 29.33 0 0 0-12.516 3.504c-14.359 7.727-19.778 25.682-12.078 40.025a29.498 29.498 0 0 0 9.839 10.733.75.75 0 0 1-.41 1.378z" />
        <path id="9np3m"
              d="M553.79 381.703c-.867 0-1.738-.036-2.6-.108a.751.751 0 0 1-.686-.81c.035-.414.406-.707.81-.686 1.07.09 2.154.124 3.223.095 4.655-.119 9.112-1.307 13.245-3.532 14.36-7.727 19.778-25.682 12.078-40.024a29.324 29.324 0 0 0-11.905-11.963.751.751 0 0 1 .714-1.32 30.837 30.837 0 0 1 12.513 12.573c8.09 15.07 2.398 33.936-12.689 42.055-4.343 2.337-9.025 3.585-13.918 3.71-.262.007-.524.01-.786.01z" />
        <path id="9np3n"
              d="M582.274 376.552a.75.75 0 0 1-.497-.188l-5.578-4.934a.75.75 0 1 1 .994-1.124l5.58 4.934a.75.75 0 0 1-.499 1.312z" />
        <path id="9np3o"
              d="M614.196 403.995c-2.312 2.608-6.341 2.852-8.954.542l-22.444-19.852c-2.59-2.29-2.832-6.276-.542-8.86 2.31-2.61 6.34-2.852 8.953-.541l22.445 19.85c2.588 2.29 2.832 6.276.542 8.86z" />
        <path id="9np3p"
              d="M609.445 406.876a7.076 7.076 0 0 1-4.7-1.778L582.3 385.246a6.983 6.983 0 0 1-2.352-4.838 6.97 6.97 0 0 1 1.746-5.08c2.592-2.926 7.082-3.198 10.012-.607l22.445 19.851a6.979 6.979 0 0 1 2.352 4.838 6.973 6.973 0 0 1-1.746 5.082 7.077 7.077 0 0 1-5.312 2.384zm-22.44-32.434a5.578 5.578 0 0 0-4.188 1.88 5.483 5.483 0 0 0-1.372 3.995 5.488 5.488 0 0 0 1.85 3.805l22.444 19.852a5.604 5.604 0 0 0 7.895-.477 5.476 5.476 0 0 0 1.372-3.996 5.489 5.489 0 0 0-1.85-3.805l-22.444-19.85a5.575 5.575 0 0 0-3.707-1.404z" />
        <path id="9np3q"
              d="M530.958 352.042c-.769-12.624 8.853-23.48 21.489-24.248 12.637-.768 23.504 8.844 24.273 21.468.768 12.624-8.853 23.48-21.49 24.248-12.636.767-23.503-8.844-24.272-21.468z" />
        <path id="9np3r"
              d="M599.737 391.43a.748.748 0 0 1-.507-.197l-10.898-9.996a.75.75 0 0 1 1.014-1.106l10.898 9.996a.75.75 0 0 1-.507 1.303z" />
        <path id="9np3s"
              d="M553.824 374.019c-12.255 0-22.578-9.568-23.331-21.949-.38-6.23 1.692-12.234 5.834-16.908a23.248 23.248 0 0 1 16.092-7.834c12.878-.783 23.983 9.044 24.766 21.905a23.198 23.198 0 0 1-5.834 16.908 23.24 23.24 0 0 1-16.092 7.834c-.481.03-.96.044-1.435.044zm.029-45.234c-.446 0-.893.013-1.343.041a21.753 21.753 0 0 0-15.061 7.331 21.71 21.71 0 0 0-5.459 15.822c.732 12.035 11.129 21.231 23.178 20.499a21.75 21.75 0 0 0 15.06-7.331 21.711 21.711 0 0 0 5.46-15.823c-.705-11.584-10.367-20.539-21.835-20.539z" />
        <path id="9np3t"
              d="M554.04 356.04a.75.75 0 0 1 0-1.5c3.853 0 6.99-3.131 6.99-6.981a.75.75 0 0 1 1.5 0c0 4.677-3.81 8.482-8.49 8.482z" />
        <path id="9np3u"
              d="M539.388 362.478a.75.75 0 0 1-.23-1.464l9.487-3.037v-3.82c-1.94-1.594-3.09-4.03-3.095-6.597v-3.094c0-4.677 3.808-8.482 8.489-8.482 4.682 0 8.49 3.805 8.49 8.482v3.093a8.488 8.488 0 0 1-3.096 6.516v3.904l8.769 2.85a.75.75 0 1 1-.463 1.426l-9.288-3.018a.749.749 0 0 1-.518-.713v-4.815a.75.75 0 0 1 .302-.6 6.976 6.976 0 0 0 2.794-5.552v-3.09c0-3.85-3.136-6.983-6.99-6.983s-6.99 3.132-6.99 6.982v3.093c.005 2.224 1.049 4.33 2.795 5.63a.75.75 0 0 1 .3.601v4.734a.75.75 0 0 1-.52.714l-10.007 3.204a.73.73 0 0 1-.23.036z" />
        <path id="pofva"
              d="M750.002 616.935l-7.364-2.992c-2.44-1.002-3.596-3.12-3.96-3.926-5.16-15.629-8.88-26.779-8.88-26.779a.633.633 0 0 0-.565-.43c-.315-.012-7.346-.334-10.348 3.744-1.58-1.435-2.712-2.92-3.46-4.536-.265-.53-.3-1.307-.097-2.443l.017-.245c.087-1.22.185-2.603-.83-3.8-.877-.975-2.218-1.43-4.217-1.43h-.244c-7.71 0-14.253 4.17-18.927 12.061a1 1 0 0 0-.14.236l-.87.433c-2.065 1.026-4.407 2.19-5.271 2.765-1.29.891-2.065 3.448-1.09 5.3 1.83 3.304 7.072 11.436 16.175 15.568 2.05.946 7.033 4.232 7.038 4.232 1.804 1.456 3.513 3.138 5.365 5.28l1.059 1.301a.623.623 0 0 0 .75.164c1.692 2.194 3.05 4.251 4.368 5.83a.626.626 0 0 0 .088.838l1.309 1.144c2.129 1.823 4.78 3.03 8.358 3.804l1.749.331c3.396.435 7.013.494 10.102.494h1.71c13.178 0 16.03-8.335 16.03-10.399 0-4.585-7.132-6.375-7.855-6.545zm-46.177-14.997l-.014-.014.014-.016z" />
        <path id="pofvb"
              d="M706.96 591.91l-1.171 4.554-2.25 5.029v1.542l3.938 3.802 3.67 1.617 3.725 2.286 3.62 2.707 3.03 4.573 1.064 1.861 1.443-1.01-.544-10.716-3.28-8.184-8.808-6.636z" />
        <path id="pofvc"
              d="M755.3 619.88c-7.828 11.263-27.893 7.127-31.434 1.356-1.945-3.171-4.938-9.401-13.697-13.31-8.758-3.91-19.187-21.138-19.187-21.138-2.155 1.076-5.387 2.649-6.38 3.31-1.078.746-1.74 2.98-.913 4.554 2.57 4.636 7.956 11.838 16.16 15.563 2.154.994 7.292 4.388 7.292 4.388 2.155 1.738 3.978 3.643 5.553 5.464l1.077 1.324c2.071 2.65 3.646 5.133 5.22 6.87l1.326 1.16c2.32 1.987 5.138 3.064 8.204 3.726l1.74.33c3.232.415 6.713.498 10.193.498h1.741c12.885 0 16.117-9.326 16.117-11.313z" />
        <path id="pofvd"
              d="M742.195 634.5h-1.74c-3.146 0-6.827-.06-10.289-.503l-1.785-.338c-3.66-.791-6.372-2.027-8.552-3.893l-1.33-1.163a.75.75 0 0 1 .986-1.13l1.326 1.159c1.977 1.692 4.48 2.824 7.868 3.557l1.723.327c3.333.426 6.955.484 10.052.484h1.741c12.258 0 14.912-7.362 14.912-9.184 0-3.12-5.146-4.924-6.949-5.31a.82.82 0 0 1-.125-.04l-7.54-3.062c-2.95-1.213-4.336-3.745-4.795-4.777a10995.873 10995.873 0 0 0-8.89-26.8c-1.698.01-7.2.314-9.165 3.769a.75.75 0 0 1-1.137.2c-2.055-1.744-3.5-3.561-4.422-5.555-.535-1.07-.384-2.375-.222-3.263l.007-.171c.076-1.071.148-2.082-.505-2.852-.603-.67-1.607-.977-3.24-.977h-.248c-7.338 0-13.59 4.023-18.082 11.635a1.105 1.105 0 0 1-.048.07 2.096 2.096 0 0 1-.094.216.754.754 0 0 1-.335.335l-1.107.55c-1.959.974-4.398 2.185-5.194 2.715-.73.506-1.328 2.317-.663 3.579 1.787 3.225 6.922 11.196 15.806 15.23 2.185 1.007 7.184 4.305 7.396 4.444 1.963 1.58 3.758 3.346 5.706 5.599l1.092 1.343a.75.75 0 0 1-1.164.946l-1.077-1.325c-1.874-2.166-3.607-3.873-5.442-5.353-.005 0-5.06-3.333-7.135-4.29-9.288-4.218-14.634-12.511-16.502-15.881-1.035-1.965-.233-4.583 1.141-5.533.886-.59 3.268-1.773 5.37-2.817l.857-.427a1.17 1.17 0 0 1 .135-.221c4.774-8.056 11.46-12.315 19.34-12.315h.248c2.066 0 3.454.474 4.37 1.49 1.062 1.254.956 2.746.871 3.945l-.017.249c-.203 1.145-.17 1.912.088 2.43.74 1.6 1.856 3.075 3.407 4.502 3.128-4.094 10.23-3.771 10.546-3.757a.749.749 0 0 1 .672.512s3.785 11.34 9.034 27.238c.36.798 1.52 2.923 3.965 3.928l7.482 3.04c.795.187 8.065 2.032 8.065 6.76 0 2.12-2.92 10.685-16.412 10.685zm-50.516-47.74v.001z" />
        <path id="pofve"
              d="M729.305 592.25c-7.497 0-10.77-4.377-10.92-4.585a.75.75 0 0 1 1.212-.883c.149.201 3.747 4.93 12.277 3.793a.75.75 0 0 1 .198 1.487c-.98.13-1.902.188-2.767.188z" />
        <path id="pofvf"
              d="M739.775 627.862c-.26 0-.523-.004-.787-.01-6.85-.197-13.626-2.969-15.76-6.449-.19-.308-.389-.645-.602-1.004-2.016-3.416-5.064-8.577-12.763-12.014-3.865-1.725-8.446-6.048-13.615-12.848a.75.75 0 1 1 1.194-.908c4.944 6.504 9.451 10.788 13.033 12.386 8.136 3.632 11.458 9.26 13.443 12.621.208.352.402.682.587.983 1.598 2.603 7.605 5.535 14.525 5.732 3.831.108 10.854-.593 14.968-6.513a.75.75 0 0 1 1.232.857c-3.224 4.638-8.692 7.167-15.455 7.167z" />
        <path id="pofvg"
              d="M693.775 591.583a.747.747 0 0 1-.618-.325c-1.724-2.505-2.806-4.29-2.817-4.307a.75.75 0 0 1 1.283-.777c.011.017 1.073 1.767 2.77 4.234a.75.75 0 0 1-.618 1.175z" />
        <path id="pofvh"
              d="M702.809 602.494a.75.75 0 0 1-.55-1.26c6.58-7.106 4.394-26.48 4.37-26.675a.75.75 0 0 1 1.49-.175c.098.823 2.289 20.257-4.76 27.87a.749.749 0 0 1-.55.24z" />
        <path id="pofvi"
              d="M723.867 621.761a.75.75 0 0 1-.746-.836c.011-.095 1.067-9.606-1.455-16.984-2.463-7.204-14.616-11.78-14.738-11.826a.75.75 0 0 1 .52-1.407c.527.195 12.944 4.868 15.637 12.747 2.634 7.705 1.573 17.24 1.526 17.642a.75.75 0 0 1-.744.664z" />
        <path id="pofvj"
              d="M739.366 621.725a.75.75 0 0 1 0-1.5c5.463 0 10.112-2.738 10.158-2.766a.75.75 0 1 1 .771 1.287c-.203.122-5.038 2.979-10.93 2.979z" />
        <path id="pofvk"
              d="M677.286 614.745c0 1.78.246 3.503.706 5.137a18.938 18.938 0 0 0 5.343 8.732 18.888 18.888 0 0 0 12.9 5.067c10.466 0 18.952-8.479 18.952-18.937z" />
        <path id="pofvl" d="M693.473 613.734c0-1.525 5.527-1.525 5.527 0a2.763 2.763 0 0 1-5.527 0z" />
        <path id="pofvm" d="M693.473 614.07H699a2.763 2.763 0 0 1-2.763 2.762z" />
        <path id="pofvn" d="M682.318 614.948c0 7.68 6.23 13.909 13.917 13.909 7.688 0 13.92-6.228 13.92-13.908z" />
        <path id="pofvo"
              d="M696.235 629.607c-8.088 0-14.667-6.576-14.667-14.66a.75.75 0 1 1 1.5 0c0 7.257 5.906 13.16 13.167 13.16 7.262 0 13.17-5.903 13.17-13.158a.75.75 0 0 1 1.5 0c0 8.082-6.58 14.658-14.67 14.658z" />
        <path id="pofvp"
              d="M696.235 618.248a3.509 3.509 0 0 1-3.506-3.504.75.75 0 0 1 1.5 0 2.007 2.007 0 0 0 4.013.001.75.75 0 0 1 1.5 0 3.51 3.51 0 0 1-3.507 3.503z" />
        <path id="pofvq" d="M715.187 614.744h-16.194z" />
        <path id="pofvr" d="M715.187 615.494h-16.194a.75.75 0 0 1 0-1.5h16.194a.75.75 0 0 1 0 1.5z" />
        <path id="pofvs" d="M677.29 614.744h16.19z" />
        <path id="pofvt" d="M693.479 615.494h-16.19a.75.75 0 0 1 0-1.5h16.19a.75.75 0 0 1 0 1.5z" />
        <path id="pofvu" d="M696.235 628.873v-11.375z" />
        <path id="pofvv"
              d="M696.235 629.623a.75.75 0 0 1-.75-.75v-11.375a.75.75 0 0 1 1.5 0v11.375a.75.75 0 0 1-.75.75z" />
        <path id="pofvw" d="M697.788 617.088l8.013 8.007z" />
        <path id="pofvx"
              d="M705.801 625.845a.747.747 0 0 1-.53-.219l-8.013-8.007a.751.751 0 0 1 1.06-1.062l8.013 8.007a.751.751 0 0 1-.53 1.281z" />
        <path id="pofvy" d="M694.732 617.09l-7.802 8.263z" />
        <path id="pofvz"
              d="M686.93 626.103a.75.75 0 0 1-.545-1.265l7.801-8.263a.75.75 0 0 1 1.091 1.029l-7.802 8.264a.747.747 0 0 1-.545.235z" />
        <path id="pofvA"
              d="M696.235 634.43a19.64 19.64 0 0 1-13.41-5.266.75.75 0 0 1 1.02-1.1 18.141 18.141 0 0 0 12.39 4.867c10.037 0 18.202-8.158 18.202-18.187a.75.75 0 0 1 1.5 0c0 10.855-8.838 19.687-19.702 19.687z" />
        <path id="pofvB"
              d="M677.991 620.632a.75.75 0 0 1-.72-.547 19.697 19.697 0 0 1-.736-5.34.75.75 0 0 1 1.5 0c0 1.677.228 3.336.678 4.934a.75.75 0 0 1-.722.953z" />
        <path id="pofvC" d="M763.71 634.5h-82.798a.75.75 0 0 1 0-1.5h82.798a.75.75 0 0 1 0 1.5z" />
        <path id="pofvD" d="M676.009 634.5h-5.571a.75.75 0 0 1 0-1.5h5.57a.75.75 0 0 1 0 1.5z" />
        <path id="pofvE"
              d="M718.46 609.344a.75.75 0 0 1-.743-.862c.6-3.97-5.844-8.297-8.378-9.63a.75.75 0 0 1 .697-1.327c.411.215 10.045 5.355 9.164 11.18a.75.75 0 0 1-.74.639z" />
        <path id="zersa"
              d="M775.654 359.665l-9.355-3.8c-3.1-1.274-4.57-3.966-5.03-4.989-6.556-19.857-11.282-34.022-11.282-34.022a.806.806 0 0 0-.72-.548c-.4-.013-9.332-.423-13.147 4.758-2.007-1.823-3.445-3.71-4.394-5.763-.338-.673-.383-1.659-.125-3.104l.022-.31c.11-1.55.235-3.308-1.053-4.828-1.117-1.239-2.819-1.818-5.359-1.818h-.31c-9.795 0-18.108 5.3-24.046 15.324-.087.107-.14.212-.179.3l-1.103.55c-2.625 1.302-5.6 2.78-6.698 3.513-1.638 1.131-2.624 4.38-1.385 6.733 2.326 4.2 8.985 14.53 20.55 19.78 2.604 1.201 8.935 5.376 8.941 5.376 2.293 1.85 4.463 3.986 6.816 6.707l1.346 1.653a.79.79 0 0 0 .954.21c2.148 2.786 3.875 5.4 5.548 7.405a.794.794 0 0 0 .113 1.066l1.662 1.452c2.705 2.317 6.073 3.85 10.62 4.833l2.221.421c4.315.553 8.91.628 12.833.628h2.174c16.742 0 20.366-10.59 20.366-13.21 0-5.827-9.062-8.1-9.98-8.317zm-58.667-19.053l-.017-.018.017-.02z" />
        <path id="zersb"
              d="M720.972 327.872l-1.49 5.786-2.856 6.388v1.96l5.002 4.83 4.663 2.054 4.73 2.903 4.602 3.44 3.848 5.81 1.352 2.364 1.834-1.283-.691-13.615-4.166-10.398-11.192-8.43z" />
        <path id="zersc"
              d="M782.384 363.407c-9.943 14.31-35.436 9.054-39.935 1.722-2.47-4.029-6.273-11.944-17.4-16.91-11.128-4.967-24.378-26.856-24.378-26.856-2.738 1.367-6.844 3.365-8.107 4.207-1.368.946-2.21 3.786-1.158 5.785 3.264 5.89 10.107 15.04 20.53 19.772 2.738 1.262 9.265 5.574 9.265 5.574 2.737 2.21 5.054 4.628 7.054 6.942l1.37 1.683c2.631 3.366 4.631 6.521 6.632 8.73l1.684 1.472c2.948 2.524 6.527 3.891 10.423 4.733l2.21.42c4.107.526 8.53.631 12.951.631h2.211c16.37 0 20.477-11.847 20.477-14.37z" />
        <path id="zersd"
              d="M765.736 381.776h-2.211c-3.991 0-8.662-.075-13.045-.636l-2.255-.429c-4.612-.995-8.03-2.55-10.771-4.899l-1.691-1.478a.75.75 0 1 1 .987-1.129l1.685 1.472c2.54 2.175 5.748 3.627 10.088 4.565l2.193.417c4.254.543 8.865.617 12.809.617h2.21c15.742 0 19.15-9.515 19.15-11.87 0-4.097-6.657-6.446-8.99-6.945a.722.722 0 0 1-.124-.039l-9.58-3.89c-3.677-1.513-5.41-4.676-5.983-5.965a13484.288 13484.288 0 0 0-11.335-34.168c-1.978-.038-9.356.303-11.964 4.89a.753.753 0 0 1-1.138.201c-2.587-2.197-4.407-4.483-5.564-6.989-.498-.993-.586-2.278-.268-4.024l.013-.243c.099-1.4.192-2.725-.69-3.766-.813-.902-2.135-1.312-4.27-1.312h-.316c-9.4 0-17.404 5.146-23.148 14.882a.71.71 0 0 1-.064.091 3.032 3.032 0 0 1-.122.284.751.751 0 0 1-.336.335l-1.41.701c-2.492 1.238-5.595 2.78-6.616 3.46-.986.681-1.831 3.061-.91 4.81 2.283 4.12 8.834 14.29 20.177 19.44 2.76 1.273 9.1 5.453 9.368 5.631 2.469 1.988 4.74 4.223 7.208 7.076l1.383 1.701a.75.75 0 1 1-1.164.946l-1.37-1.683c-2.391-2.767-4.601-4.942-6.942-6.83-.006 0-6.453-4.254-9.107-5.478-11.746-5.333-18.51-15.826-20.873-20.09-1.245-2.363-.255-5.628 1.388-6.765 1.11-.74 4.129-2.239 6.792-3.56l1.158-.577c.038-.092.092-.203.185-.317 6.027-10.178 14.464-15.557 24.403-15.557h.316c2.562 0 4.278.58 5.4 1.825 1.292 1.525 1.166 3.296 1.056 4.86l-.022.32c-.264 1.475-.218 2.491.132 3.191.976 2.111 2.462 4.053 4.539 5.93 3.836-5.304 12.959-4.89 13.359-4.87a.75.75 0 0 1 .673.51s4.808 14.41 11.476 34.605c.474 1.055 1.98 3.81 5.153 5.116l9.522 3.867c.895.21 10.105 2.505 10.105 8.396 0 2.653-3.675 13.37-20.65 13.37zm-64.324-60.589v.001z" />
        <path id="zerse"
              d="M749.356 328.1c-9.419 0-13.518-5.48-13.707-5.74a.751.751 0 0 1 1.213-.883c.191.26 4.812 6.358 15.788 4.899a.751.751 0 0 1 .197 1.488c-1.236.163-2.4.237-3.491.237z" />
        <path id="zersf"
              d="M762.602 373.343c-.325 0-.637-.004-.935-.013-8.498-.242-17.22-3.798-19.856-8.095-.24-.39-.492-.817-.761-1.273-2.42-4.097-6.467-10.952-16.307-15.345-4.88-2.178-10.673-7.649-17.22-16.26a.75.75 0 0 1 1.195-.909c6.3 8.291 12.054 13.754 16.636 15.8 10.277 4.587 14.478 11.7 16.987 15.951.265.45.513.868.748 1.252 2.103 3.426 9.642 7.123 18.62 7.38 4.898.144 13.907-.76 19.19-8.362a.75.75 0 1 1 1.23.856c-5.358 7.712-14.176 9.018-19.527 9.018z" />
        <path id="zersg"
              d="M704.22 327.253a.747.747 0 0 1-.618-.325c-2.187-3.178-3.56-5.44-3.572-5.462a.75.75 0 1 1 1.283-.777c.013.022 1.365 2.25 3.524 5.389a.75.75 0 0 1-.617 1.175z" />
        <path id="zersh"
              d="M715.697 341.114a.75.75 0 0 1-.55-1.26c8.427-9.1 5.634-33.803 5.605-34.052a.75.75 0 1 1 1.49-.174c.122 1.042 2.898 25.642-5.995 35.246a.749.749 0 0 1-.55.24z" />
        <path id="zersi"
              d="M742.45 365.593a.75.75 0 0 1-.746-.836c.015-.122 1.362-12.247-1.857-21.667-3.161-9.245-18.69-15.09-18.847-15.149a.75.75 0 0 1 .52-1.407c.667.246 16.355 6.151 19.745 16.071 3.332 9.745 1.989 21.815 1.93 22.324a.75.75 0 0 1-.744.664z" />
        <path id="zersj"
              d="M762.142 365.547a.75.75 0 0 1 0-1.5c7.018 0 12.95-3.507 13.009-3.542a.75.75 0 1 1 .77 1.286c-.255.154-6.351 3.756-13.78 3.756z" />
        <path id="zersk"
              d="M683.27 356.882c0 2.262.313 4.451.897 6.526a24.062 24.062 0 0 0 6.789 11.094 23.995 23.995 0 0 0 16.389 6.437c13.296 0 24.078-10.772 24.078-24.058z" />
        <path id="zersl"
              d="M703.836 355.598c0-1.937 7.022-1.937 7.022 0a3.51 3.51 0 0 1-3.511 3.509 3.51 3.51 0 0 1-3.511-3.51z" />
        <path id="zersm" d="M703.836 356.024h7.022a3.51 3.51 0 0 1-3.511 3.51z" />
        <path id="zersn" d="M689.664 357.14c0 9.759 7.915 17.671 17.682 17.671s17.685-7.912 17.685-17.67z" />
        <path id="zerso"
              d="M707.345 375.56c-10.163 0-18.432-8.263-18.432-18.42a.75.75 0 0 1 1.5 0c0 9.33 7.596 16.92 16.932 16.92 9.338 0 16.936-7.59 16.936-16.92a.75.75 0 1 1 1.5 0c0 10.158-8.27 18.42-18.436 18.42z" />
        <path id="zersp"
              d="M707.345 361.13a4.255 4.255 0 0 1-4.252-4.25.75.75 0 0 1 1.5 0 2.753 2.753 0 0 0 5.505.002.75.75 0 0 1 1.5 0 4.256 4.256 0 0 1-4.253 4.249z" />
        <path id="zersq" d="M731.423 356.881h-20.575z" />
        <path id="zersr" d="M731.423 357.631h-20.575a.75.75 0 0 1 0-1.5h20.575a.75.75 0 0 1 0 1.5z" />
        <path id="zerss" d="M683.274 356.881h20.57z" />
        <path id="zerst" d="M703.843 357.631h-20.569a.75.75 0 0 1 0-1.5h20.57a.75.75 0 0 1 0 1.5z" />
        <path id="zersu" d="M707.345 374.832V360.38z" />
        <path id="zersv"
              d="M707.345 375.582a.75.75 0 0 1-.75-.75V360.38a.75.75 0 0 1 1.5 0v14.45a.75.75 0 0 1-.75.75z" />
        <path id="zersw" d="M709.318 359.86l10.18 10.172z" />
        <path id="zersx"
              d="M719.499 370.782a.747.747 0 0 1-.53-.219l-10.181-10.173a.751.751 0 0 1 1.06-1.062l10.181 10.173a.751.751 0 0 1-.53 1.281z" />
        <path id="zersy" d="M705.435 359.86l-9.912 10.5z" />
        <path id="zersz"
              d="M695.523 371.11a.75.75 0 0 1-.545-1.265l9.911-10.499a.75.75 0 0 1 1.091 1.03l-9.912 10.498a.747.747 0 0 1-.545.235z" />
        <path id="zersA"
              d="M707.345 381.69a24.743 24.743 0 0 1-16.9-6.639.75.75 0 1 1 1.021-1.098 23.254 23.254 0 0 0 15.88 6.236c12.862 0 23.327-10.456 23.327-23.308a.75.75 0 0 1 1.5 0c0 13.68-11.138 24.808-24.828 24.808z" />
        <path id="zersB"
              d="M684.167 364.159a.751.751 0 0 1-.722-.547 24.885 24.885 0 0 1-.925-6.73.75.75 0 1 1 1.5 0c.001 2.149.293 4.277.87 6.324a.751.751 0 0 1-.723.953z" />
        <path id="zersC" d="M793.07 381.777H687.877a.75.75 0 0 1 0-1.5H793.07a.75.75 0 0 1 0 1.5z" />
        <path id="zersD" d="M681.648 381.777h-7.078a.75.75 0 0 1 0-1.5h7.078a.75.75 0 0 1 0 1.5z" />
        <path id="zersE"
              d="M735.58 349.817a.75.75 0 0 1-.743-.862c.941-6.218-10.633-12.383-10.75-12.445a.75.75 0 1 1 .698-1.327c.517.272 12.634 6.735 11.536 13.996a.75.75 0 0 1-.74.638z" />
        <path id="tw0ca"
              d="M866.163 637.619H819.89c-2.035 0-3.701-1.653-3.701-3.688V573.35a3.713 3.713 0 0 1 3.7-3.701h44.112c2.022 0 3.688 1.666 3.688 3.701v44.858z" />
        <path id="tw0cb"
              d="M816.447 605.236a.75.75 0 0 1-.75-.75v-30.82c0-2.44 1.99-4.425 4.436-4.425h43.934a4.43 4.43 0 0 1 4.423 4.426v22.818a.75.75 0 0 1-1.5 0v-22.818a2.928 2.928 0 0 0-2.923-2.926h-43.934a2.935 2.935 0 0 0-2.936 2.926v30.819a.75.75 0 0 1-.75.75z" />
        <path id="tw0cc"
              d="M858.976 638.246h-38.843c-2.446 0-4.435-1.979-4.435-4.413v-18.885a.75.75 0 0 1 1.5 0v18.885c0 1.606 1.317 2.913 2.935 2.913h38.843a.75.75 0 0 1 0 1.5z" />
        <path id="tw0cd"
              d="M871.886 636.75l-.855 1.283a5.169 5.169 0 0 0-.87 2.87v1.818a.862.862 0 0 1-.861.862h-10.345a.861.861 0 0 1-.862-.862v-1.819a5.177 5.177 0 0 0-.87-2.869l-.855-1.283z" />
        <path id="tw0ce"
              d="M869.3 644.333h-10.346a1.614 1.614 0 0 1-1.612-1.612v-1.819c0-.876-.257-1.724-.743-2.453l-.855-1.283a.75.75 0 1 1 1.248-.832l.855 1.283c.651.976.995 2.112.995 3.285v1.82c0 .061.05.111.112.111H869.3c.062 0 .112-.05.112-.112v-1.819c0-1.173.344-2.309.995-3.285l.855-1.283a.75.75 0 1 1 1.248.832l-.855 1.283a4.408 4.408 0 0 0-.743 2.453v1.82c0 .888-.723 1.611-1.612 1.611z" />
        <path id="tw0cf"
              d="M871.886 612.613l-.855-1.283a5.169 5.169 0 0 1-.87-2.869v-1.819a.862.862 0 0 0-.861-.862h-10.345a.861.861 0 0 0-.862.862v1.82a5.177 5.177 0 0 1-.87 2.868l-.855 1.283z" />
        <path id="tw0cg"
              d="M871.886 613.363a.75.75 0 0 1-.625-.334l-.855-1.283a5.901 5.901 0 0 1-.995-3.285v-1.819a.112.112 0 0 0-.112-.112h-10.345a.112.112 0 0 0-.112.112v1.82a5.901 5.901 0 0 1-.995 3.284l-.855 1.283a.75.75 0 0 1-1.248-.832l.855-1.283a4.408 4.408 0 0 0 .743-2.453v-1.819c0-.889.723-1.612 1.612-1.612H869.3c.89 0 1.612.723 1.612 1.612v1.82c0 .875.257 1.723.743 2.452l.856 1.283a.75.75 0 0 1-.624 1.166z" />
        <path id="tw0ch"
              d="M874.472 633.302a3.448 3.448 0 0 1-3.448 3.448H857.23a3.448 3.448 0 0 1-3.448-3.448v-17.24a3.448 3.448 0 0 1 3.448-3.449h13.794a3.448 3.448 0 0 1 3.448 3.448z" />
        <path id="tw0ci"
              d="M871.024 637.5H857.23a4.202 4.202 0 0 1-4.198-4.198v-17.24a4.202 4.202 0 0 1 4.198-4.199h13.794a4.202 4.202 0 0 1 4.198 4.198v17.241a4.202 4.202 0 0 1-4.198 4.198zm-13.794-24.137a2.7 2.7 0 0 0-2.698 2.698v17.241A2.7 2.7 0 0 0 857.23 636h13.794a2.7 2.7 0 0 0 2.698-2.698v-17.24a2.7 2.7 0 0 0-2.698-2.699z" />
        <path id="tw0cj"
              d="M864.127 628.312l5.471-5.47a3.315 3.315 0 1 0-4.69-4.69l-.781.783-.781-.782a3.317 3.317 0 0 0-4.69 4.689l3.629 3.628z" />
        <path id="tw0ck"
              d="M864.127 629.062a.749.749 0 0 1-.53-1.28l5.47-5.47a2.568 2.568 0 0 0 0-3.63c-1-1-2.627-1-3.628 0l-.782.783a.772.772 0 0 1-1.06 0l-.782-.782c-1.001-1-2.627-1-3.628 0a2.568 2.568 0 0 0 0 3.629l3.628 3.628a.749.749 0 1 1-1.061 1.06l-3.628-3.628a4.07 4.07 0 0 1 0-5.75 4.071 4.071 0 0 1 5.75 0l.251.252.251-.251a4.07 4.07 0 0 1 5.75 0 4.07 4.07 0 0 1 0 5.749l-5.471 5.47a.744.744 0 0 1-.53.22z" />
        <path id="tw0cl" d="M866.713 633.075h-5.173a.75.75 0 0 1 0-1.5h5.173a.75.75 0 0 1 0 1.5z" />
        <path id="tw0cm"
              d="M854.918 585.005a3.59 3.59 0 0 1 3.769-3.412 3.6 3.6 0 0 1 3.425 3.769 3.612 3.612 0 0 1-3.782 3.425 3.6 3.6 0 0 1-3.413-3.782z" />
        <path id="tw0cn"
              d="M858.51 589.54c-.073 0-.145 0-.219-.004-2.393-.12-4.242-2.168-4.123-4.568.12-2.392 2.172-4.238 4.555-4.124 2.4.119 4.256 2.163 4.137 4.555a4.363 4.363 0 0 1-4.35 4.142zm-2.843-4.498a2.845 2.845 0 0 0 .732 2.06 2.821 2.821 0 0 0 1.968.936 2.862 2.862 0 0 0 2.996-2.713 2.815 2.815 0 0 0-.737-2.051 2.85 2.85 0 0 0-1.978-.932 2.834 2.834 0 0 0-2.982 2.7z" />
        <path id="tw0co"
              d="M830.002 598.556a3.613 3.613 0 0 1 3.783-3.425 3.6 3.6 0 0 1 3.411 3.782 3.59 3.59 0 0 1-3.769 3.412 3.6 3.6 0 0 1-3.425-3.769z" />
        <path id="tw0cp"
              d="M833.39 603.074a4.336 4.336 0 0 1-3.012-1.421 4.305 4.305 0 0 1-1.125-3.134c.12-2.401 2.172-4.267 4.57-4.137a4.355 4.355 0 0 1 4.122 4.568 4.35 4.35 0 0 1-4.555 4.124zm-1.7-6.456a2.835 2.835 0 0 0-.939 1.975 2.818 2.818 0 0 0 .736 2.05 2.85 2.85 0 0 0 1.977.933 2.838 2.838 0 0 0 2.983-2.7 2.845 2.845 0 0 0-.732-2.06 2.817 2.817 0 0 0-2.112-.939c-.708 0-1.384.26-1.914.741z" />
        <path id="tw0cq"
              d="M842.657 609.07a3.611 3.611 0 0 1 3.783-3.424 3.6 3.6 0 0 1 3.411 3.781 3.588 3.588 0 0 1-3.768 3.412 3.6 3.6 0 0 1-3.426-3.769z" />
        <path id="tw0cr"
              d="M846.263 613.593c-.072 0-.145 0-.217-.005-2.4-.119-4.257-2.163-4.138-4.555.12-2.4 2.17-4.266 4.57-4.136 2.392.118 4.241 2.168 4.122 4.567a4.35 4.35 0 0 1-4.337 4.13zm-2.857-4.486c-.038.76.224 1.488.736 2.051a2.85 2.85 0 0 0 1.978.932 2.831 2.831 0 0 0 2.982-2.7 2.847 2.847 0 0 0-.732-2.06 2.816 2.816 0 0 0-1.967-.935 2.848 2.848 0 0 0-2.997 2.712z" />
        <path id="tw0cs"
              d="M823.197 624.114a3.611 3.611 0 0 1 3.783-3.424 3.6 3.6 0 0 1 3.41 3.78 3.589 3.589 0 0 1-3.768 3.413 3.6 3.6 0 0 1-3.425-3.77z" />
        <path id="tw0ct"
              d="M826.585 628.632c-2.4-.12-4.256-2.163-4.137-4.555.119-2.4 2.18-4.263 4.569-4.136a4.308 4.308 0 0 1 3.008 1.429 4.35 4.35 0 0 1-3.44 7.262zm-1.701-6.456a2.837 2.837 0 0 0-.938 1.975 2.855 2.855 0 0 0 2.714 2.983 2.855 2.855 0 0 0 2.982-2.7 2.847 2.847 0 0 0-.732-2.06 2.816 2.816 0 0 0-2.112-.94c-.71 0-1.384.26-1.914.742z" />
        <path id="tw0cu"
              d="M827.567 621.521a.751.751 0 0 1-.728-.935l4.748-18.682a.751.751 0 0 1 1.454.37l-4.747 18.682a.752.752 0 0 1-.727.565z" />
        <path id="tw0cv"
              d="M843.748 607.418a.747.747 0 0 1-.478-.172l-7.163-5.925a.751.751 0 0 1 .956-1.156l7.164 5.925a.751.751 0 0 1-.479 1.328z" />
        <path id="tw0cw"
              d="M848.33 607.052a.75.75 0 0 1-.674-1.078l8.677-17.841a.75.75 0 0 1 1.349.656l-8.677 17.84a.75.75 0 0 1-.675.423z" />
        <path id="tw0cx" d="M841.655 578.77h-17.198a.75.75 0 0 1 0-1.5h17.198a.75.75 0 0 1 0 1.5z" />
        <path id="tw0cy" d="M841.655 587.079h-17.198a.75.75 0 0 1 0-1.5h17.198a.75.75 0 0 1 0 1.5z" />
        <path id="3l84a"
              d="M923.233 385.943h-58.789c-2.585 0-4.7-2.1-4.7-4.686v-76.966c0-2.585 2.115-4.702 4.7-4.702h56.042c2.57 0 4.685 2.117 4.685 4.702v56.991z" />
        <path id="3l84b"
              d="M860.07 344.598a.75.75 0 0 1-.75-.75v-39.155c0-2.988 2.438-5.419 5.434-5.419h55.817a5.424 5.424 0 0 1 5.417 5.419v28.99a.75.75 0 0 1-1.5 0v-28.99a3.922 3.922 0 0 0-3.917-3.919h-55.817c-2.17 0-3.933 1.758-3.933 3.919v39.155a.75.75 0 0 1-.75.75z" />
        <path id="3l84c"
              d="M914.102 386.538h-49.348c-2.996 0-5.433-2.424-5.433-5.403v-23.993a.75.75 0 1 1 1.5 0v23.993c0 2.152 1.764 3.903 3.933 3.903h49.348a.75.75 0 0 1 0 1.5z" />
        <path id="3l84d"
              d="M930.504 384.84l-1.087 1.63a6.567 6.567 0 0 0-1.103 3.645v2.31c0 .606-.49 1.096-1.096 1.096h-13.143c-.605 0-1.095-.49-1.095-1.095v-2.311a6.568 6.568 0 0 0-1.104-3.645l-1.087-1.63z" />
        <path id="3l84e"
              d="M927.219 394.27h-13.144a1.848 1.848 0 0 1-1.845-1.844v-2.311c0-1.154-.338-2.27-.977-3.23l-1.087-1.63a.75.75 0 1 1 1.248-.831l1.087 1.63a7.3 7.3 0 0 1 1.229 4.06v2.312c0 .19.155.345.345.345h13.144c.19 0 .345-.155.345-.345v-2.311a7.3 7.3 0 0 1 1.23-4.061l1.087-1.63a.75.75 0 0 1 1.248.832l-1.087 1.63a5.797 5.797 0 0 0-.978 3.229v2.31a1.847 1.847 0 0 1-1.845 1.846z" />
        <path id="3l84f"
              d="M930.504 354.174l-1.087-1.63a6.567 6.567 0 0 1-1.103-3.645v-2.311c0-.605-.49-1.095-1.096-1.095h-13.143c-.605 0-1.095.49-1.095 1.095v2.31a6.568 6.568 0 0 1-1.104 3.646l-1.087 1.63z" />
        <path id="3l84g"
              d="M930.505 354.924a.75.75 0 0 1-.625-.334l-1.086-1.63a7.293 7.293 0 0 1-1.23-4.061v-2.311a.346.346 0 0 0-.345-.345h-13.144a.346.346 0 0 0-.345.345v2.31a7.3 7.3 0 0 1-1.23 4.062l-1.086 1.63a.75.75 0 1 1-1.248-.832l1.087-1.63a5.806 5.806 0 0 0 .977-3.23v-2.31c0-1.018.828-1.845 1.845-1.845h13.144c1.017 0 1.845.827 1.845 1.845v2.31a5.8 5.8 0 0 0 .978 3.23l1.087 1.63a.75.75 0 0 1-.624 1.166z" />
        <path id="3l84h"
              d="M933.79 380.459a4.381 4.381 0 0 1-4.381 4.38h-17.524a4.381 4.381 0 0 1-4.381-4.38v-21.904a4.38 4.38 0 0 1 4.381-4.381h17.524a4.38 4.38 0 0 1 4.381 4.38z" />
        <path id="3l84i"
              d="M929.409 385.59h-17.524a5.137 5.137 0 0 1-5.131-5.131v-21.904a5.137 5.137 0 0 1 5.13-5.131h17.525a5.136 5.136 0 0 1 5.13 5.13v21.905a5.136 5.136 0 0 1-5.13 5.13zm-17.524-30.666a3.635 3.635 0 0 0-3.631 3.63v21.905a3.635 3.635 0 0 0 3.63 3.63h17.525a3.635 3.635 0 0 0 3.63-3.63v-21.904a3.635 3.635 0 0 0-3.63-3.631z" />
        <path id="3l84j"
              d="M920.647 374.119l6.95-6.95a4.212 4.212 0 1 0-5.957-5.957l-.993.993-.993-.993a4.212 4.212 0 1 0-5.957 5.957l4.61 4.61z" />
        <path id="3l84k"
              d="M920.647 374.869a.749.749 0 0 1-.53-1.28l6.95-6.95a3.467 3.467 0 0 0 0-4.897 3.467 3.467 0 0 0-4.897 0l-.993.993a.772.772 0 0 1-1.06 0l-.993-.993a3.468 3.468 0 0 0-4.897 0 3.467 3.467 0 0 0 0 4.897l4.61 4.609a.75.75 0 1 1-1.061 1.061l-4.609-4.61a4.966 4.966 0 0 1 0-7.018 4.969 4.969 0 0 1 7.018 0l.462.463.462-.463a4.97 4.97 0 0 1 7.018 0 4.966 4.966 0 0 1 0 7.018l-6.95 6.95a.744.744 0 0 1-.53.22z" />
        <path id="3l84l" d="M923.933 379.967h-6.571a.75.75 0 0 1 0-1.5h6.57a.75.75 0 0 1 0 1.5z" />
        <path id="3l84m"
              d="M908.947 319.099a4.56 4.56 0 0 1 4.788-4.335c2.525.126 4.477 2.264 4.352 4.789a4.589 4.589 0 0 1-4.806 4.35c-2.524-.125-4.46-2.28-4.334-4.804z" />
        <path id="3l84n"
              d="M913.244 324.651a5.277 5.277 0 0 1-3.681-1.749 5.307 5.307 0 0 1-1.365-3.84 5.31 5.31 0 0 1 5.574-5.048 5.312 5.312 0 0 1 3.688 1.74 5.275 5.275 0 0 1 1.376 3.835 5.298 5.298 0 0 1-1.75 3.687 5.293 5.293 0 0 1-3.842 1.375zm-3.548-5.516a3.82 3.82 0 0 0 .98 2.763 3.79 3.79 0 0 0 2.643 1.255 3.824 3.824 0 0 0 2.76-.989 3.804 3.804 0 0 0 1.259-2.649c.104-2.103-1.53-3.898-3.64-4.003a3.823 3.823 0 0 0-4.002 3.623z" />
        <path id="3l84o"
              d="M877.293 336.314a4.59 4.59 0 0 1 4.806-4.35c2.525.125 4.459 2.28 4.334 4.804a4.561 4.561 0 0 1-4.788 4.335c-2.525-.126-4.477-2.265-4.352-4.789z" />
        <path id="3l84p"
              d="M881.874 341.859a5.308 5.308 0 0 1-3.953-1.746 5.267 5.267 0 0 1-1.377-3.836c.147-2.937 2.665-5.201 5.592-5.062a5.277 5.277 0 0 1 3.68 1.749 5.325 5.325 0 0 1-3.943 8.895zm-.005-9.151a3.84 3.84 0 0 0-3.827 3.644 3.789 3.789 0 0 0 .988 2.752 3.823 3.823 0 0 0 2.652 1.25 3.822 3.822 0 0 0 4.002-3.623 3.816 3.816 0 0 0-.982-2.763 3.781 3.781 0 0 0-2.833-1.26z" />
        <path id="3l84q"
              d="M893.37 349.673a4.59 4.59 0 0 1 4.807-4.351c2.524.126 4.459 2.28 4.334 4.805a4.561 4.561 0 0 1-4.788 4.335c-2.525-.126-4.477-2.264-4.352-4.79z" />
        <path id="3l84r"
              d="M897.685 355.21c-2.937-.145-5.21-2.646-5.063-5.574.145-2.938 2.659-5.215 5.592-5.063 2.928.146 5.192 2.654 5.046 5.59a5.324 5.324 0 0 1-5.575 5.048zm-3.565-5.5c-.104 2.102 1.528 3.898 3.64 4.003a3.815 3.815 0 0 0 4.002-3.623c.105-2.111-1.52-3.914-3.622-4.02l-.192-.003a3.838 3.838 0 0 0-3.828 3.643z" />
        <path id="3l84s"
              d="M868.646 368.785a4.589 4.589 0 0 1 4.806-4.351c2.525.125 4.46 2.28 4.334 4.805a4.56 4.56 0 0 1-4.788 4.334c-2.525-.125-4.477-2.264-4.352-4.788z" />
        <path id="3l84t"
              d="M872.962 374.322a5.312 5.312 0 0 1-3.688-1.739 5.268 5.268 0 0 1-1.376-3.835 5.297 5.297 0 0 1 1.749-3.688 5.308 5.308 0 0 1 3.843-1.375 5.274 5.274 0 0 1 3.68 1.75 5.31 5.31 0 0 1 1.366 3.841 5.28 5.28 0 0 1-1.74 3.679 5.275 5.275 0 0 1-3.834 1.367zm-2.31-8.15a3.812 3.812 0 0 0-1.257 2.65 3.78 3.78 0 0 0 .989 2.752 3.82 3.82 0 0 0 2.652 1.25 3.808 3.808 0 0 0 4.002-3.622 3.82 3.82 0 0 0-.982-2.763 3.782 3.782 0 0 0-2.64-1.256c-.065-.002-.13-.004-.194-.004-.951 0-1.857.348-2.57.993z" />
        <path id="3l84u"
              d="M874.2 365.288a.751.751 0 0 1-.728-.935l6.031-23.734a.75.75 0 1 1 1.454.37l-6.03 23.734a.752.752 0 0 1-.728.565z" />
        <path id="3l84v"
              d="M894.756 347.37a.747.747 0 0 1-.478-.172l-9.1-7.527a.751.751 0 0 1 .956-1.156l9.1 7.527a.751.751 0 0 1-.478 1.328z" />
        <path id="3l84w"
              d="M900.577 346.905a.75.75 0 0 1-.674-1.078l11.024-22.667a.75.75 0 1 1 1.348.656l-11.023 22.667a.75.75 0 0 1-.675.422z" />
        <path id="3l84x" d="M892.097 310.974h-21.85a.75.75 0 0 1 0-1.5h21.85a.75.75 0 0 1 0 1.5z" />
        <path id="3l84y" d="M892.097 321.53h-21.85a.75.75 0 0 1 0-1.5h21.85a.75.75 0 0 1 0 1.5z" />
    </defs>
    <symbol id="micro" viewBox="0 0 18 26">
        <g>
            <g transform="translate(-416 -119)">
                <use fill="#232d37" xlink:href="#r9y5a" />
            </g>
            <g transform="translate(-416 -119)">
                <use fill="#232d37" xlink:href="#r9y5b" />
            </g>
        </g>
    </symbol>
    <symbol id="step1--mobile" viewBox="0 0 61 76">
        <g>
            <g transform="translate(-438 -569)">
                <use fill="#fff" xlink:href="#gxk6a" />
            </g>
            <g transform="translate(-438 -569)">
                <use fill="#37414b" xlink:href="#gxk6b" />
            </g>
            <g transform="translate(-438 -569)">
                <use fill="#e1e4e6" xlink:href="#gxk6c" />
            </g>
            <g transform="translate(-438 -569)">
                <use fill="#7fd4ff" xlink:href="#gxk6d" />
            </g>
            <g transform="translate(-438 -569)">
                <use fill="#7fd4ff" xlink:href="#gxk6e" />
            </g>
            <g transform="translate(-438 -569)">
                <use fill="#7fd4ff" xlink:href="#gxk6f" />
            </g>
            <g transform="translate(-438 -569)">
                <use fill="#e1e4e6" xlink:href="#gxk6g" />
            </g>
            <g transform="translate(-438 -569)">
                <use fill="#37414c" xlink:href="#gxk6h" />
            </g>
            <g transform="translate(-438 -569)">
                <use fill="#fff" xlink:href="#gxk6i" />
            </g>
            <g transform="translate(-438 -569)">
                <use fill="#37414c" xlink:href="#gxk6j" />
            </g>
            <g transform="translate(-438 -569)">
                <use fill="#e1e4e6" xlink:href="#gxk6k" />
            </g>
            <g transform="translate(-438 -569)">
                <use fill="#37414c" xlink:href="#gxk6l" />
            </g>
            <g transform="translate(-438 -569)">
                <use fill="#7fd4ff" xlink:href="#gxk6m" />
            </g>
            <g transform="translate(-438 -569)">
                <use fill="#37414c" xlink:href="#gxk6n" />
            </g>
            <g transform="translate(-438 -569)">
                <use fill="#7fd4ff" xlink:href="#gxk6o" />
            </g>
            <g transform="translate(-438 -569)">
                <use fill="#37414c" xlink:href="#gxk6p" />
            </g>
            <g transform="translate(-438 -569)">
                <use fill="#84d1f5" xlink:href="#gxk6q" />
            </g>
            <g transform="translate(-438 -569)">
                <use fill="#37414c" xlink:href="#gxk6r" />
            </g>
            <g transform="translate(-438 -569)">
                <use fill="#37414b" xlink:href="#gxk6s" />
            </g>
            <g transform="translate(-438 -569)">
                <use fill="#e1e4e6" xlink:href="#gxk6t" />
            </g>
            <g transform="translate(-438 -569)">
                <use fill="#37414b" xlink:href="#gxk6u" />
            </g>
            <g transform="translate(-438 -569)">
                <use fill="#37414b" xlink:href="#gxk6v" />
            </g>
            <g transform="translate(-438 -569)">
                <use fill="#fff" xlink:href="#gxk6w" />
            </g>
            <g transform="translate(-438 -569)">
                <use fill="#37414b" xlink:href="#gxk6x" />
            </g>
        </g>
    </symbol>
    <symbol id="step1" viewBox="0 0 77 96">
        <g>
            <g transform="translate(-379 -299)">
                <use fill="#fff" xlink:href="#ndj7a" />
            </g>
            <g transform="translate(-379 -299)">
                <use fill="#37414b" xlink:href="#ndj7b" />
            </g>
            <g transform="translate(-379 -299)">
                <use fill="#e1e4e6" xlink:href="#ndj7c" />
            </g>
            <g transform="translate(-379 -299)">
                <use fill="#7fd4ff" xlink:href="#ndj7d" />
            </g>
            <g transform="translate(-379 -299)">
                <use fill="#7fd4ff" xlink:href="#ndj7e" />
            </g>
            <g transform="translate(-379 -299)">
                <use fill="#7fd4ff" xlink:href="#ndj7f" />
            </g>
            <g transform="translate(-379 -299)">
                <use fill="#e1e4e6" xlink:href="#ndj7g" />
            </g>
            <g transform="translate(-379 -299)">
                <use fill="#37414c" xlink:href="#ndj7h" />
            </g>
            <g transform="translate(-379 -299)">
                <use fill="#fff" xlink:href="#ndj7i" />
            </g>
            <g transform="translate(-379 -299)">
                <use fill="#37414c" xlink:href="#ndj7j" />
            </g>
            <g transform="translate(-379 -299)">
                <use fill="#e1e4e6" xlink:href="#ndj7k" />
            </g>
            <g transform="translate(-379 -299)">
                <use fill="#37414c" xlink:href="#ndj7l" />
            </g>
            <g transform="translate(-379 -299)">
                <use fill="#7fd4ff" xlink:href="#ndj7m" />
            </g>
            <g transform="translate(-379 -299)">
                <use fill="#37414c" xlink:href="#ndj7n" />
            </g>
            <g transform="translate(-379 -299)">
                <use fill="#7fd4ff" xlink:href="#ndj7o" />
            </g>
            <g transform="translate(-379 -299)">
                <use fill="#37414c" xlink:href="#ndj7p" />
            </g>
            <g transform="translate(-379 -299)">
                <use fill="#84d1f5" xlink:href="#ndj7q" />
            </g>
            <g transform="translate(-379 -299)">
                <use fill="#37414c" xlink:href="#ndj7r" />
            </g>
            <g transform="translate(-379 -299)">
                <use fill="#37414b" xlink:href="#ndj7s" />
            </g>
            <g transform="translate(-379 -299)">
                <use fill="#e1e4e6" xlink:href="#ndj7t" />
            </g>
            <g transform="translate(-379 -299)">
                <use fill="#37414b" xlink:href="#ndj7u" />
            </g>
            <g transform="translate(-379 -299)">
                <use fill="#37414b" xlink:href="#ndj7v" />
            </g>
            <g transform="translate(-379 -299)">
                <use fill="#fff" xlink:href="#ndj7w" />
            </g>
            <g transform="translate(-379 -299)">
                <use fill="#37414b" xlink:href="#ndj7x" />
            </g>
        </g>
    </symbol>
    <symbol id="step2--mobile" viewBox="0 0 77 84">
        <g>
            <g transform="translate(-550 -571)">
                <use fill="#fff" xlink:href="#zcb4a" />
            </g>
            <g transform="translate(-550 -571)">
                <use fill="#84d1f5" xlink:href="#zcb4b" />
            </g>
            <g transform="translate(-550 -571)">
                <use fill="#37414b" xlink:href="#zcb4c" />
            </g>
            <g transform="translate(-550 -571)">
                <use fill="#37414b" xlink:href="#zcb4d" />
            </g>
            <g transform="translate(-550 -571)">
                <use fill="#e0e3e5" xlink:href="#zcb4e" />
            </g>
            <g transform="translate(-550 -571)">
                <use fill="#37414b" xlink:href="#zcb4f" />
            </g>
            <g transform="translate(-550 -571)">
                <use fill="#37414b" xlink:href="#zcb4g" />
            </g>
            <g transform="translate(-550 -571)">
                <use fill="#e0e3e5" xlink:href="#zcb4h" />
            </g>
            <g transform="translate(-550 -571)">
                <use fill="#37414b" xlink:href="#zcb4i" />
            </g>
            <g transform="translate(-550 -571)">
                <use fill="#37414b" xlink:href="#zcb4j" />
            </g>
            <g transform="translate(-550 -571)">
                <use fill="#e1e4e6" xlink:href="#zcb4k" />
            </g>
            <g transform="translate(-550 -571)">
                <use fill="#37414b" xlink:href="#zcb4l" />
            </g>
            <g transform="translate(-550 -571)">
                <use fill="#37414b" xlink:href="#zcb4m" />
            </g>
            <g transform="translate(-550 -571)">
                <use fill="#37414b" xlink:href="#zcb4n" />
            </g>
            <g transform="translate(-550 -571)">
                <use fill="#84d1f5" xlink:href="#zcb4o" />
            </g>
            <g transform="translate(-550 -571)">
                <use fill="#37414b" xlink:href="#zcb4p" />
            </g>
            <g transform="translate(-550 -571)">
                <use fill="#fff" xlink:href="#zcb4q" />
            </g>
            <g transform="translate(-550 -571)">
                <use fill="#fff" xlink:href="#zcb4r" />
            </g>
            <g transform="translate(-550 -571)">
                <use fill="#37414b" xlink:href="#zcb4s" />
            </g>
            <g transform="translate(-550 -571)">
                <use fill="#37414c" xlink:href="#zcb4t" />
            </g>
            <g transform="translate(-550 -571)">
                <use fill="#37414c" xlink:href="#zcb4u" />
            </g>
        </g>
    </symbol>
    <symbol id="step2" viewBox="0 0 98 106">
        <g>
            <g transform="translate(-522 -301)">
                <use fill="#fff" xlink:href="#9np3a" />
            </g>
            <g transform="translate(-522 -301)">
                <use fill="#84d1f5" xlink:href="#9np3b" />
            </g>
            <g transform="translate(-522 -301)">
                <use fill="#37414b" xlink:href="#9np3c" />
            </g>
            <g transform="translate(-522 -301)">
                <use fill="#37414b" xlink:href="#9np3d" />
            </g>
            <g transform="translate(-522 -301)">
                <use fill="#e0e3e5" xlink:href="#9np3e" />
            </g>
            <g transform="translate(-522 -301)">
                <use fill="#37414b" xlink:href="#9np3f" />
            </g>
            <g transform="translate(-522 -301)">
                <use fill="#37414b" xlink:href="#9np3g" />
            </g>
            <g transform="translate(-522 -301)">
                <use fill="#e0e3e5" xlink:href="#9np3h" />
            </g>
            <g transform="translate(-522 -301)">
                <use fill="#37414b" xlink:href="#9np3i" />
            </g>
            <g transform="translate(-522 -301)">
                <use fill="#37414b" xlink:href="#9np3j" />
            </g>
            <g transform="translate(-522 -301)">
                <use fill="#e1e4e6" xlink:href="#9np3k" />
            </g>
            <g transform="translate(-522 -301)">
                <use fill="#37414b" xlink:href="#9np3l" />
            </g>
            <g transform="translate(-522 -301)">
                <use fill="#37414b" xlink:href="#9np3m" />
            </g>
            <g transform="translate(-522 -301)">
                <use fill="#37414b" xlink:href="#9np3n" />
            </g>
            <g transform="translate(-522 -301)">
                <use fill="#84d1f5" xlink:href="#9np3o" />
            </g>
            <g transform="translate(-522 -301)">
                <use fill="#37414b" xlink:href="#9np3p" />
            </g>
            <g transform="translate(-522 -301)">
                <use fill="#fff" xlink:href="#9np3q" />
            </g>
            <g transform="translate(-522 -301)">
                <use fill="#fff" xlink:href="#9np3r" />
            </g>
            <g transform="translate(-522 -301)">
                <use fill="#37414b" xlink:href="#9np3s" />
            </g>
            <g transform="translate(-522 -301)">
                <use fill="#37414c" xlink:href="#9np3t" />
            </g>
            <g transform="translate(-522 -301)">
                <use fill="#37414c" xlink:href="#9np3u" />
            </g>
        </g>
    </symbol>
    <symbol id="step3--mobile" viewBox="0 0 96 62">
        <g>
            <g transform="translate(-669 -573)">
                <use fill="#fff" xlink:href="#pofva" />
            </g>
            <g transform="translate(-669 -573)">
                <use fill="#84d1f5" xlink:href="#pofvb" />
            </g>
            <g transform="translate(-669 -573)">
                <use fill="#e0e3e5" xlink:href="#pofvc" />
            </g>
            <g transform="translate(-669 -573)">
                <use fill="#37414c" xlink:href="#pofvd" />
            </g>
            <g transform="translate(-669 -573)">
                <use fill="#37414c" xlink:href="#pofve" />
            </g>
            <g transform="translate(-669 -573)">
                <use fill="#37414c" xlink:href="#pofvf" />
            </g>
            <g transform="translate(-669 -573)">
                <use fill="#37414c" xlink:href="#pofvg" />
            </g>
            <g transform="translate(-669 -573)">
                <use fill="#37414c" xlink:href="#pofvh" />
            </g>
            <g transform="translate(-669 -573)">
                <use fill="#37414c" xlink:href="#pofvi" />
            </g>
            <g transform="translate(-669 -573)">
                <use fill="#37414c" xlink:href="#pofvj" />
            </g>
            <g transform="translate(-669 -573)">
                <use fill="#84d1f5" xlink:href="#pofvk" />
            </g>
            <g transform="translate(-669 -573)">
                <use fill="#fff" xlink:href="#pofvl" />
            </g>
            <g transform="translate(-669 -573)">
                <use fill="#fff" xlink:href="#pofvm" />
            </g>
            <g transform="translate(-669 -573)">
                <use fill="#fff" xlink:href="#pofvn" />
            </g>
            <g transform="translate(-669 -573)">
                <use fill="#37414c" xlink:href="#pofvo" />
            </g>
            <g transform="translate(-669 -573)">
                <use fill="#37414c" xlink:href="#pofvp" />
            </g>
            <g transform="translate(-669 -573)">
                <use fill="#fff" xlink:href="#pofvq" />
            </g>
            <g transform="translate(-669 -573)">
                <use fill="#37414c" xlink:href="#pofvr" />
            </g>
            <g transform="translate(-669 -573)">
                <use fill="#fff" xlink:href="#pofvs" />
            </g>
            <g transform="translate(-669 -573)">
                <use fill="#37414c" xlink:href="#pofvt" />
            </g>
            <g transform="translate(-669 -573)">
                <use fill="#fff" xlink:href="#pofvu" />
            </g>
            <g transform="translate(-669 -573)">
                <use fill="#37414c" xlink:href="#pofvv" />
            </g>
            <g transform="translate(-669 -573)">
                <use fill="#fff" xlink:href="#pofvw" />
            </g>
            <g transform="translate(-669 -573)">
                <use fill="#37414c" xlink:href="#pofvx" />
            </g>
            <g transform="translate(-669 -573)">
                <use fill="#fff" xlink:href="#pofvy" />
            </g>
            <g transform="translate(-669 -573)">
                <use fill="#37414c" xlink:href="#pofvz" />
            </g>
            <g transform="translate(-669 -573)">
                <use fill="#37414c" xlink:href="#pofvA" />
            </g>
            <g transform="translate(-669 -573)">
                <use fill="#37414c" xlink:href="#pofvB" />
            </g>
            <g transform="translate(-669 -573)">
                <use fill="#37414b" xlink:href="#pofvC" />
            </g>
            <g transform="translate(-669 -573)">
                <use fill="#37414b" xlink:href="#pofvD" />
            </g>
            <g transform="translate(-669 -573)">
                <use fill="#fff" xlink:href="#pofvE" />
            </g>
        </g>
    </symbol>
    <symbol id="step3" viewBox="0 0 121 78">
        <g>
            <g transform="translate(-673 -304)">
                <use fill="#fff" xlink:href="#zersa" />
            </g>
            <g transform="translate(-673 -304)">
                <use fill="#84d1f5" xlink:href="#zersb" />
            </g>
            <g transform="translate(-673 -304)">
                <use fill="#e0e3e5" xlink:href="#zersc" />
            </g>
            <g transform="translate(-673 -304)">
                <use fill="#37414c" xlink:href="#zersd" />
            </g>
            <g transform="translate(-673 -304)">
                <use fill="#37414c" xlink:href="#zerse" />
            </g>
            <g transform="translate(-673 -304)">
                <use fill="#37414c" xlink:href="#zersf" />
            </g>
            <g transform="translate(-673 -304)">
                <use fill="#37414c" xlink:href="#zersg" />
            </g>
            <g transform="translate(-673 -304)">
                <use fill="#37414c" xlink:href="#zersh" />
            </g>
            <g transform="translate(-673 -304)">
                <use fill="#37414c" xlink:href="#zersi" />
            </g>
            <g transform="translate(-673 -304)">
                <use fill="#37414c" xlink:href="#zersj" />
            </g>
            <g transform="translate(-673 -304)">
                <use fill="#84d1f5" xlink:href="#zersk" />
            </g>
            <g transform="translate(-673 -304)">
                <use fill="#fff" xlink:href="#zersl" />
            </g>
            <g transform="translate(-673 -304)">
                <use fill="#fff" xlink:href="#zersm" />
            </g>
            <g transform="translate(-673 -304)">
                <use fill="#fff" xlink:href="#zersn" />
            </g>
            <g transform="translate(-673 -304)">
                <use fill="#37414c" xlink:href="#zerso" />
            </g>
            <g transform="translate(-673 -304)">
                <use fill="#37414c" xlink:href="#zersp" />
            </g>
            <g transform="translate(-673 -304)">
                <use fill="#fff" xlink:href="#zersq" />
            </g>
            <g transform="translate(-673 -304)">
                <use fill="#37414c" xlink:href="#zersr" />
            </g>
            <g transform="translate(-673 -304)">
                <use fill="#fff" xlink:href="#zerss" />
            </g>
            <g transform="translate(-673 -304)">
                <use fill="#37414c" xlink:href="#zerst" />
            </g>
            <g transform="translate(-673 -304)">
                <use fill="#fff" xlink:href="#zersu" />
            </g>
            <g transform="translate(-673 -304)">
                <use fill="#37414c" xlink:href="#zersv" />
            </g>
            <g transform="translate(-673 -304)">
                <use fill="#fff" xlink:href="#zersw" />
            </g>
            <g transform="translate(-673 -304)">
                <use fill="#37414c" xlink:href="#zersx" />
            </g>
            <g transform="translate(-673 -304)">
                <use fill="#fff" xlink:href="#zersy" />
            </g>
            <g transform="translate(-673 -304)">
                <use fill="#37414c" xlink:href="#zersz" />
            </g>
            <g transform="translate(-673 -304)">
                <use fill="#37414c" xlink:href="#zersA" />
            </g>
            <g transform="translate(-673 -304)">
                <use fill="#37414c" xlink:href="#zersB" />
            </g>
            <g transform="translate(-673 -304)">
                <use fill="#37414b" xlink:href="#zersC" />
            </g>
            <g transform="translate(-673 -304)">
                <use fill="#37414b" xlink:href="#zersD" />
            </g>
            <g transform="translate(-673 -304)">
                <use fill="#fff" xlink:href="#zersE" />
            </g>
        </g>
    </symbol>
    <symbol id="step4--mobile" viewBox="0 0 61 76">
        <g>
            <g transform="translate(-815 -569)">
                <use fill="#e0e3e5" xlink:href="#tw0ca" />
            </g>
            <g transform="translate(-815 -569)">
                <use fill="#37414b" xlink:href="#tw0cb" />
            </g>
            <g transform="translate(-815 -569)">
                <use fill="#37414b" xlink:href="#tw0cc" />
            </g>
            <g transform="translate(-815 -569)">
                <use fill="#fff" xlink:href="#tw0cd" />
            </g>
            <g transform="translate(-815 -569)">
                <use fill="#37414c" xlink:href="#tw0ce" />
            </g>
            <g transform="translate(-815 -569)">
                <use fill="#fff" xlink:href="#tw0cf" />
            </g>
            <g transform="translate(-815 -569)">
                <use fill="#37414c" xlink:href="#tw0cg" />
            </g>
            <g transform="translate(-815 -569)">
                <use fill="#84d1f5" xlink:href="#tw0ch" />
            </g>
            <g transform="translate(-815 -569)">
                <use fill="#37414c" xlink:href="#tw0ci" />
            </g>
            <g transform="translate(-815 -569)">
                <use fill="#fff" xlink:href="#tw0cj" />
            </g>
            <g transform="translate(-815 -569)">
                <use fill="#37414c" xlink:href="#tw0ck" />
            </g>
            <g transform="translate(-815 -569)">
                <use fill="#37414c" xlink:href="#tw0cl" />
            </g>
            <g transform="translate(-815 -569)">
                <use fill="#fff" xlink:href="#tw0cm" />
            </g>
            <g transform="translate(-815 -569)">
                <use fill="#37414b" xlink:href="#tw0cn" />
            </g>
            <g transform="translate(-815 -569)">
                <use fill="#fff" xlink:href="#tw0co" />
            </g>
            <g transform="translate(-815 -569)">
                <use fill="#37414b" xlink:href="#tw0cp" />
            </g>
            <g transform="translate(-815 -569)">
                <use fill="#fff" xlink:href="#tw0cq" />
            </g>
            <g transform="translate(-815 -569)">
                <use fill="#37414b" xlink:href="#tw0cr" />
            </g>
            <g transform="translate(-815 -569)">
                <use fill="#fff" xlink:href="#tw0cs" />
            </g>
            <g transform="translate(-815 -569)">
                <use fill="#37414b" xlink:href="#tw0ct" />
            </g>
            <g transform="translate(-815 -569)">
                <use fill="#37414b" xlink:href="#tw0cu" />
            </g>
            <g transform="translate(-815 -569)">
                <use fill="#37414b" xlink:href="#tw0cv" />
            </g>
            <g transform="translate(-815 -569)">
                <use fill="#37414b" xlink:href="#tw0cw" />
            </g>
            <g transform="translate(-815 -569)">
                <use fill="#37414b" xlink:href="#tw0cx" />
            </g>
            <g transform="translate(-815 -569)">
                <use fill="#37414b" xlink:href="#tw0cy" />
            </g>
        </g>
    </symbol>
    <symbol id="step4" viewBox="0 0 76 96">
        <g>
            <g transform="translate(-859 -299)">
                <use fill="#e0e3e5" xlink:href="#3l84a" />
            </g>
            <g transform="translate(-859 -299)">
                <use fill="#37414b" xlink:href="#3l84b" />
            </g>
            <g transform="translate(-859 -299)">
                <use fill="#37414b" xlink:href="#3l84c" />
            </g>
            <g transform="translate(-859 -299)">
                <use fill="#fff" xlink:href="#3l84d" />
            </g>
            <g transform="translate(-859 -299)">
                <use fill="#37414c" xlink:href="#3l84e" />
            </g>
            <g transform="translate(-859 -299)">
                <use fill="#fff" xlink:href="#3l84f" />
            </g>
            <g transform="translate(-859 -299)">
                <use fill="#37414c" xlink:href="#3l84g" />
            </g>
            <g transform="translate(-859 -299)">
                <use fill="#84d1f5" xlink:href="#3l84h" />
            </g>
            <g transform="translate(-859 -299)">
                <use fill="#37414c" xlink:href="#3l84i" />
            </g>
            <g transform="translate(-859 -299)">
                <use fill="#fff" xlink:href="#3l84j" />
            </g>
            <g transform="translate(-859 -299)">
                <use fill="#37414c" xlink:href="#3l84k" />
            </g>
            <g transform="translate(-859 -299)">
                <use fill="#37414c" xlink:href="#3l84l" />
            </g>
            <g transform="translate(-859 -299)">
                <use fill="#fff" xlink:href="#3l84m" />
            </g>
            <g transform="translate(-859 -299)">
                <use fill="#37414b" xlink:href="#3l84n" />
            </g>
            <g transform="translate(-859 -299)">
                <use fill="#fff" xlink:href="#3l84o" />
            </g>
            <g transform="translate(-859 -299)">
                <use fill="#37414b" xlink:href="#3l84p" />
            </g>
            <g transform="translate(-859 -299)">
                <use fill="#fff" xlink:href="#3l84q" />
            </g>
            <g transform="translate(-859 -299)">
                <use fill="#37414b" xlink:href="#3l84r" />
            </g>
            <g transform="translate(-859 -299)">
                <use fill="#fff" xlink:href="#3l84s" />
            </g>
            <g transform="translate(-859 -299)">
                <use fill="#37414b" xlink:href="#3l84t" />
            </g>
            <g transform="translate(-859 -299)">
                <use fill="#37414b" xlink:href="#3l84u" />
            </g>
            <g transform="translate(-859 -299)">
                <use fill="#37414b" xlink:href="#3l84v" />
            </g>
            <g transform="translate(-859 -299)">
                <use fill="#37414b" xlink:href="#3l84w" />
            </g>
            <g transform="translate(-859 -299)">
                <use fill="#37414b" xlink:href="#3l84x" />
            </g>
            <g transform="translate(-859 -299)">
                <use fill="#37414b" xlink:href="#3l84y" />
            </g>
        </g>
    </symbol>
</svg>
